<?xml version="1.0" encoding="UTF-8"?>
<svg id="Layer_1" data-name="Layer 1" xmlns="http://www.w3.org/2000/svg" viewBox="0 0 400 100">
  <defs>
    <style>
      .cls-1 {
        fill: #333;
      }

      .cls-2 {
        fill: #ccc;
      }
    </style>
  </defs>
  <g>
    <path class="cls-2" d="m31.33,54.97l1.89-1.2c.72,1.17,2.02,1.75,3.89,1.75,1.17,0,2.04-.25,2.62-.76.51-.45.76-1.07.76-1.86,0-.86-.3-1.49-.9-1.89-.28-.2-.54-.34-.78-.43-.25-.08-.96-.27-2.14-.56-1.79-.46-3.04-1.09-3.75-1.89-.63-.72-.94-1.68-.94-2.88,0-1.55.52-2.73,1.56-3.54.9-.71,2.12-1.06,3.66-1.06,2.38,0,4.04.76,4.99,2.28l-1.84,1.2c-.69-.98-1.76-1.47-3.22-1.47-.92,0-1.63.25-2.14.74-.43.43-.64,1.01-.64,1.72,0,.81.3,1.44.9,1.89.52.38,1.4.74,2.64,1.06,1.1.28,1.85.48,2.23.62.38.14.77.34,1.17.62,1.06.71,1.59,1.88,1.59,3.52s-.56,2.86-1.68,3.66c-.98.71-2.35,1.06-4.09,1.06-2.81,0-4.73-.86-5.77-2.58Z"/>
    <path class="cls-2" d="m49.69,57.31v-14.4h-4.6v-2.02h11.66v2.02h-4.6v14.4h-2.46Z"/>
    <path class="cls-2" d="m59.95,57.31v-16.42h9.84v2.02h-7.41v5.08h6.3v2.03h-6.3v5.27h7.47v2.03h-9.91Z"/>
    <path class="cls-2" d="m82.69,53.88h-6.69l-1.15,3.43h-2.67l5.98-16.42h2.37l5.98,16.42h-2.67l-1.15-3.43Zm-.6-1.98l-2.74-8.03-2.76,8.03h5.5Z"/>
    <path class="cls-2" d="m88.54,57.31v-16.42h2.32l4.85,10.1,4.85-10.1h2.32v16.42h-2.37v-11.75l-4.03,8.33h-1.56l-4.02-8.33v11.75h-2.37Z"/>
    <path class="cls-2" d="m127.98,46.02v6.42c0,1.72-.46,2.99-1.38,3.82-.78.71-1.86,1.06-3.24,1.06h-7.25c-1.76,0-3.14-.6-4.12-1.79-.77-.94-1.15-2.05-1.15-3.33,0-1,.13-1.89.39-2.67.29-.88.74-1.65,1.36-2.32l1.61,1.11c-.41.47-.74,1.06-.99,1.77-.21.58-.32,1.21-.32,1.89,0,.98.34,1.81,1.04,2.48.67.66,1.56.99,2.64.99h6.79c.78,0,1.38-.28,1.79-.85.35-.47.53-1.11.53-1.91v-6.65h2.3Zm-8.76-1.45h-1.93v-2.53h1.93v2.53Zm3.47,0h-1.93v-2.53h1.93v2.53Z"/>
    <path class="cls-2" d="m143.34,40.89v11.54c0,3.25-1.53,4.88-4.6,4.88h-7.64v-1.89h3.06v-11.11h2.28v11.11h2.3c.78,0,1.38-.28,1.79-.85.35-.47.53-1.11.53-1.91v-11.78h2.28Z"/>
    <path class="cls-2" d="m149.39,40.89v11.78c0,.94.25,1.66.76,2.16.43.4.93.6,1.5.6h.48v1.89h-.55c-1.36-.02-2.44-.41-3.22-1.2-.83-.83-1.24-2.05-1.24-3.68v-11.54h2.28Z"/>
    <path class="cls-2" d="m158.94,45.77c2.05,0,3.58.73,4.58,2.19.37.49.64,1.21.8,2.16.02.12.06.43.14.92.15,1.17.29,1.97.41,2.41.12.6.28,1.04.48,1.33.35.43.84.64,1.45.64h.51v1.89h-15.59v-1.89h11.45c-.37-.43-.62-1.17-.76-2.23-.06-.29-.12-.77-.18-1.45-.03-.29-.05-.52-.07-.69-.11-.84-.31-1.52-.62-2.03-.25-.43-.6-.77-1.06-1.01-.46-.24-.98-.37-1.56-.37-1.09,0-2.03.55-2.83,1.66l-1.75-.99c.47-.81,1.11-1.44,1.91-1.88.8-.45,1.69-.67,2.69-.67Zm1.06,16.31h-2.28v-2.58h2.28v2.58Z"/>
    <path class="cls-2" d="m175.36,45.77c3.19,0,4.78,1.69,4.78,5.06v2.39c0,1.86-.47,3.19-1.4,4-.78.69-1.91,1.04-3.38,1.04-1.96,0-3.33-.62-4.09-1.84-.77.6-1.78.9-3.04.9h-1.33v-1.89h1.33c.78,0,1.38-.28,1.79-.85.35-.47.53-1.11.53-1.91v-1.84c0-3.37,1.6-5.06,4.81-5.06Zm2.48,7.68v-2.85c0-1.96-.84-2.94-2.51-2.94s-2.51.98-2.51,2.94v2.85c0,1.95.84,2.92,2.51,2.92s2.51-.97,2.51-2.92Z"/>
    <path class="cls-2" d="m204.07,55.43v1.89h-1.79c-.28,0-.55-.04-.83-.12-.2,2.04-.95,3.59-2.25,4.65-1.18.96-2.75,1.45-4.69,1.45-1.24,0-2.39-.29-3.45-.85-1.07-.57-1.91-1.36-2.51-2.37-.66-1.09-.99-2.33-.99-3.73,0-1.09.17-2.16.51-3.21.34-1.05.8-1.95,1.4-2.7l1.63,1.1c-.95,1.35-1.43,2.88-1.43,4.58s.56,3.08,1.68,4.05c.89.77,1.95,1.15,3.17,1.15,1.52,0,2.69-.47,3.52-1.4.77-.84,1.15-2.01,1.15-3.5v-10.39h2.3v9.27c.15.09.39.14.71.14h1.86Zm-8.28-10.26h-2.28v-2.58h2.28v2.58Z"/>
    <path class="cls-2" d="m212.14,57.31h-2.51c-.94,0-1.53-.25-1.79-.76-.74.51-1.69.76-2.85.76h-1.33v-1.89h1.33c.78,0,1.38-.28,1.79-.85.35-.47.53-1.11.53-1.91v-6.65h2.28v6.42c0,1.17-.25,2.09-.74,2.76.14.15.4.23.78.23h2.51v1.89Zm-6.16,4.76h-1.93v-2.53h1.93v2.53Zm3.47,0h-1.93v-2.53h1.93v2.53Z"/>
    <path class="cls-2" d="m217.66,46.02v6.42c0,1.72-.46,2.99-1.38,3.82-.78.71-1.86,1.06-3.22,1.06h-1.33v-1.89h1.33c.78,0,1.38-.28,1.79-.85.35-.47.53-1.11.53-1.91v-6.65h2.28Zm-1.61,16.05h-2.28v-2.58h2.28v2.58Z"/>
    <path class="cls-2" d="m241.81,55.43v1.89h-1.79c-.28,0-.55-.04-.83-.12-.2,2.04-.95,3.59-2.25,4.65-1.18.96-2.75,1.45-4.69,1.45-1.24,0-2.39-.29-3.45-.85-1.07-.57-1.91-1.36-2.51-2.37-.66-1.09-.99-2.33-.99-3.73,0-1.09.17-2.16.51-3.21.34-1.05.8-1.95,1.4-2.7l1.63,1.1c-.95,1.35-1.43,2.88-1.43,4.58s.56,3.08,1.68,4.05c.89.77,1.95,1.15,3.17,1.15,1.52,0,2.69-.47,3.52-1.4.77-.84,1.15-2.01,1.15-3.5v-15.52h2.3v14.4c.15.09.39.14.71.14h1.86Z"/>
    <path class="cls-2" d="m249.86,45.77c3.19,0,4.78,1.69,4.78,5.06v2.39c0,1.86-.47,3.19-1.4,4-.78.69-1.91,1.04-3.38,1.04-1.96,0-3.33-.62-4.09-1.84-.77.6-1.78.9-3.04.9h-1.33v-1.89h1.33c.78,0,1.38-.28,1.79-.85.35-.47.53-1.11.53-1.91v-1.84c0-3.37,1.6-5.06,4.81-5.06Zm2.48,7.68v-2.85c0-1.96-.84-2.94-2.51-2.94s-2.51.98-2.51,2.94v2.85c0,1.95.84,2.92,2.51,2.92s2.51-.97,2.51-2.92Z"/>
    <path class="cls-2" d="m260.46,40.89v11.78c0,.94.25,1.66.76,2.16.43.4.93.6,1.5.6h.48v1.89h-.55c-1.36-.02-2.44-.41-3.22-1.2-.83-.83-1.24-2.05-1.24-3.68v-11.54h2.28Z"/>
    <path class="cls-2" d="m277.73,55.43v1.89h-2.48c-.95,0-1.55-.26-1.79-.78-.75.52-1.72.78-2.9.78h-7.77v-1.89h7.77c.81,0,1.42-.28,1.82-.85.35-.47.53-1.11.53-1.91v-1.98c0-.92-.22-1.62-.67-2.12-.41-.45-.97-.67-1.68-.67h-5.08v-.76c0-.41.06-.77.2-1.06.13-.29.4-.69.82-1.2l3.29-4h2.58l-4.21,5.13h2.42c1.58,0,2.76.46,3.54,1.38.72.83,1.08,1.99,1.08,3.5v1.54c0,1.17-.21,2.12-.62,2.85.15.09.38.14.67.14h2.51Z"/>
    <path class="cls-2" d="m285.81,57.31h-2.51c-.94,0-1.53-.25-1.79-.76-.74.51-1.69.76-2.85.76h-1.33v-1.89h1.33c.78,0,1.38-.28,1.79-.85.35-.47.53-1.11.53-1.91v-6.65h2.28v6.42c0,1.17-.25,2.09-.74,2.76.14.15.4.23.78.23h2.51v1.89Zm-4.46-13.64h-1.93v-2.53h1.93v2.53Zm3.47,0h-1.93v-2.53h1.93v2.53Z"/>
    <path class="cls-2" d="m291.33,40.89v11.54c0,1.72-.46,2.99-1.38,3.82-.78.71-1.86,1.06-3.22,1.06h-1.33v-1.89h1.33c.78,0,1.38-.28,1.79-.85.35-.47.53-1.11.53-1.91v-11.78h2.28Z"/>
    <path class="cls-2" d="m297.38,40.89v16.42h-2.28v-16.42h2.28Z"/>
  </g>
  <circle class="cls-2" cx="349.34" cy="50" r="32.51"/>
  <g>
    <path class="cls-1" d="m344.48,40.89v16.42h-2.28v-16.42h2.28Z"/>
    <path class="cls-1" d="m353.1,40.61c1,0,1.87.21,2.62.62.67.38,1.2.91,1.56,1.59l-1.77.97c-.34-.46-.69-.79-1.06-.99s-.83-.3-1.38-.3c-.78,0-1.4.26-1.86.78-.46.52-.69,1.24-.69,2.16v11.87h-2.28v-11.75c0-1.62.48-2.88,1.45-3.75.86-.78,1.99-1.18,3.4-1.2Z"/>
  </g>
</svg>