<?xml version="1.0" encoding="UTF-8"?>
<svg id="Layer_1" data-name="Layer 1" xmlns="http://www.w3.org/2000/svg" viewBox="0 0 329 100">
  <defs>
    <style>
      .cls-1 {
        fill: #333;
      }

      .cls-2 {
        fill: #ffd9b0;
      }

      .cls-3 {
        fill: #ff9f1c;
      }
    </style>
  </defs>
  <g>
    <path class="cls-3" d="m36.23,45.77c2.05,0,3.58.73,4.58,2.18.37.51.63,1.23.78,2.16.03.23.09.62.18,1.17.14,1.06.27,1.78.39,2.16.12.67.31,1.15.55,1.43.32.37.8.55,1.45.55h.44v1.89h-6.49c-1.13,0-2.06.11-2.78.32-.83.28-1.47.74-1.93,1.38-.41.58-.62,1.23-.62,1.96,0,1.1.41,2.01,1.24,2.71.61.55,1.33.88,2.16.99.43.06.77.09,1.04.09,1.3,0,2.69-.38,4.16-1.15l.76,1.7c-1.55.94-3.24,1.4-5.06,1.4-.44,0-.76-.02-.94-.05-1.66-.15-3.01-.73-4.07-1.73-1.07-1.01-1.61-2.3-1.61-3.86,0-1.21.31-2.25.94-3.13.6-.86,1.46-1.51,2.6-1.95.86-.34,2.01-.53,3.45-.58h3.01c-.35-.4-.61-1.14-.78-2.23-.05-.28-.09-.71-.14-1.31-.03-.35-.06-.63-.09-.83-.14-.87-.34-1.55-.62-2.02-.25-.43-.6-.77-1.06-1.01s-.98-.37-1.56-.37c-1.09,0-2.03.55-2.83,1.66l-1.75-.99c.47-.81,1.11-1.44,1.91-1.89.8-.44,1.69-.67,2.69-.67Zm2.92,16.28h-2.28v-2.58h2.28v2.58Z"/>
    <path class="cls-3" d="m63.26,55.43v1.89h-2.09c-.95,0-1.55-.26-1.79-.78-.77.52-1.72.78-2.85.78h-4.14c-.72,0-1.31-.12-1.77-.37-.46.25-1.04.37-1.72.37h-4.69v-1.89h3.82c-.32-.28-.6-.69-.83-1.25-.23-.56-.35-1.1-.35-1.62,0-1.17.28-2.12.85-2.88.52-.67,1.23-1.09,2.14-1.24l.92-1.96c1.07-.47,2.37-.71,3.89-.71,2.04.02,3.66.69,4.85,2.02,1.09,1.21,1.63,2.81,1.63,4.78,0,1.07-.21,1.99-.62,2.74.15.08.37.12.64.12h2.12Zm-12.67-.18c.66-.14,1.18-.51,1.56-1.13.29-.49.44-1.04.44-1.63,0-.72-.17-1.32-.51-1.79-.35-.49-.85-.74-1.5-.74-.72,0-1.26.31-1.61.94-.25.45-.37.97-.37,1.59,0,.69.19,1.3.58,1.84.37.49.83.8,1.4.92Zm2.6.18h3.31c.8,0,1.4-.3,1.82-.9.35-.51.53-1.15.53-1.93,0-1.55-.44-2.78-1.31-3.68-.81-.84-1.89-1.27-3.24-1.27-1.47,0-2.86.25-4.16.74.09-.02.25-.02.46-.02,1.29,0,2.28.45,2.97,1.36.55.74.83,1.68.83,2.83,0,.52-.12,1.07-.35,1.63-.23.57-.51.98-.85,1.24Z"/>
    <path class="cls-3" d="m71.33,57.31h-2.51c-.94,0-1.53-.25-1.79-.76-.74.51-1.69.76-2.85.76h-1.33v-1.89h1.33c.78,0,1.38-.28,1.79-.85.35-.47.53-1.11.53-1.91v-6.65h2.28v6.42c0,1.17-.25,2.08-.74,2.76.14.15.4.23.78.23h2.51v1.89Zm-2.55-13.64h-2.28v-2.58h2.28v2.58Z"/>
    <path class="cls-3" d="m86.88,55.43v1.89h-.55c-1.17-.01-2.12-.31-2.88-.9-.75,1.23-2.11,1.84-4.07,1.84s-3.33-.61-4.09-1.84c-.77.6-1.78.9-3.04.9h-1.33v-1.89h1.33c.78,0,1.38-.28,1.79-.85.35-.47.53-1.11.53-1.91v-1.84c0-3.37,1.6-5.06,4.81-5.06s4.78,1.69,4.78,5.06v2.3c.06.71.31,1.27.74,1.7.43.4.93.6,1.49.6h.48Zm-5.01-1.98v-2.85c0-1.96-.84-2.94-2.51-2.94s-2.51.98-2.51,2.94v2.85c0,1.95.84,2.92,2.51,2.92s2.51-.97,2.51-2.92Z"/>
    <path class="cls-3" d="m92.4,40.89v11.55c0,1.72-.46,2.99-1.38,3.82-.78.71-1.86,1.06-3.22,1.06h-1.33v-1.89h1.33c.78,0,1.38-.28,1.79-.85.35-.47.53-1.11.53-1.91v-11.78h2.28Z"/>
    <path class="cls-3" d="m98.45,40.89v16.42h-2.28v-16.42h2.28Z"/>
    <path class="cls-3" d="m118.9,57.31h-.55c-1.64,0-2.85-.56-3.63-1.68-.43.32-.98.59-1.64.82s-1.29.33-1.85.33c-1.58,0-2.76-.47-3.54-1.4-.72-.84-1.08-2.06-1.08-3.66v-.9c0-1.79.47-3.12,1.43-3.98.77-.71,1.83-1.06,3.2-1.06.98,0,1.87.19,2.67.58v-1.06h2.28v7.36c0,.87.23,1.56.69,2.07.41.46.93.69,1.56.69h.48v1.89Zm-8.23-13.89h-1.93v-2.53h1.93v2.53Zm.71,11.48c.98,0,1.86-.35,2.64-1.06-.09-.4-.14-1.01-.14-1.84v-3.61c-.58-.49-1.41-.74-2.48-.74-1.67,0-2.51.98-2.51,2.94v1.36c0,1.96.83,2.94,2.48,2.94Zm2.76-11.48h-1.93v-2.53h1.93v2.53Z"/>
    <path class="cls-3" d="m126.53,45.77c1.69,0,2.97.54,3.84,1.61.72.9,1.08,2.08,1.08,3.54,0,1-.25,1.95-.74,2.85-.38.72-.84,1.27-1.36,1.66h4.28v1.89h-5.36c-.75,0-1.33-.12-1.72-.34-.4.23-.98.34-1.75.34h-6.33v-1.89h5.24c-.61-.43-1.12-1.08-1.52-1.96-.38-.83-.57-1.68-.57-2.55,0-1.69.47-2.99,1.4-3.91.86-.83,2.02-1.24,3.5-1.24Zm.02,1.89c-.75,0-1.37.27-1.84.8-.46.52-.71,1.21-.76,2.07v.44c.03.9.3,1.75.81,2.53.46.67,1.06,1.23,1.79,1.68.84-.51,1.5-1.17,1.96-1.98.4-.71.61-1.45.62-2.23v-.44c-.06-.98-.38-1.73-.94-2.25-.45-.41-.99-.62-1.63-.62Zm1.17-3.96h-2.28v-2.58h2.28v2.58Z"/>
    <path class="cls-3" d="m157.79,55.43v1.89h-3.36c-.86,0-1.43-.21-1.7-.64-.75.6-1.77.9-3.06.9-1.55,0-2.68-.52-3.4-1.56-.72,1.03-1.89,1.54-3.52,1.54s-2.91-.55-3.61-1.66c-.74.95-1.85,1.43-3.33,1.43h-2.58v-1.89h2.58c.78,0,1.38-.28,1.79-.85.35-.47.53-1.11.53-1.91v-6.65h2.3v6.9c0,.92.22,1.62.67,2.09.4.43.95.64,1.66.64.8,0,1.4-.28,1.82-.83.34-.47.51-1.11.51-1.91v-6.9h2.28v6.9c0,.92.22,1.62.67,2.12.4.43.95.64,1.66.64.8,0,1.4-.28,1.82-.85.34-.47.51-1.11.51-1.91v-6.88h2.3v6.65c0,1-.17,1.87-.51,2.62.15.08.37.12.64.12h3.36Z"/>
    <path class="cls-3" d="m165.86,55.43v1.89h-2.48c-.95,0-1.55-.26-1.79-.78-.75.52-1.71.78-2.88.78h-1.33v-1.89h1.33c.78,0,1.38-.28,1.79-.85.35-.47.53-1.11.53-1.91v-11.78h2.28v11.55c0,1.17-.21,2.12-.62,2.85.15.09.38.14.67.14h2.51Z"/>
    <path class="cls-3" d="m173.94,45.77c3.17,0,4.76,1.69,4.76,5.06v1.45c0,3.36-1.59,5.04-4.76,5.04h-8.49v-1.89h4.74c-.71-.67-1.06-1.73-1.06-3.15v-1.45c0-1.85.47-3.2,1.4-4.02.78-.69,1.92-1.04,3.4-1.04Zm-.02,1.89c-1.67,0-2.51.98-2.51,2.94v1.89c0,1.96.84,2.94,2.51,2.94s2.51-.98,2.51-2.94v-1.89c0-1.96-.84-2.94-2.51-2.94Zm1.13-3.96h-2.28v-2.58h2.28v2.58Z"/>
    <path class="cls-3" d="m187.05,48.2v-2.6h2.46v2.6h-2.46Zm0,9.11v-2.6h2.46v2.6h-2.46Z"/>
    <path class="cls-3" d="m195.74,40.89v11.78c0,.94.25,1.66.76,2.16.43.4.93.6,1.5.6h.48v1.89h-.55c-1.36-.01-2.44-.41-3.22-1.2-.83-.83-1.24-2.05-1.24-3.68v-11.55h2.28Z"/>
    <path class="cls-3" d="m204.39,41.1h-4.19v-1.13h4.19v1.13Zm0,2.71h-4.19v-1.13h4.19v1.13Z"/>
    <path class="cls-3" d="m206.55,57.31h-2.51c-.94,0-1.53-.25-1.79-.76-.74.51-1.69.76-2.85.76h-1.33v-1.89h1.33c.78,0,1.38-.28,1.79-.85.35-.47.53-1.11.53-1.91v-6.65h2.28v6.42c0,1.17-.25,2.08-.74,2.76.14.15.4.23.78.23h2.51v1.89Zm-6.16,4.76h-1.93v-2.53h1.93v2.53Zm3.47,0h-1.93v-2.53h1.93v2.53Z"/>
    <path class="cls-3" d="m212.07,46.02v6.42c0,1.72-.46,2.99-1.38,3.82-.78.71-1.86,1.06-3.22,1.06h-1.33v-1.89h1.33c.78,0,1.38-.28,1.79-.85.35-.47.53-1.11.53-1.91v-6.65h2.28Zm0-2.32h-2.28v-2.58h2.28v2.58Z"/>
    <path class="cls-3" d="m218.12,40.89v11.78c0,.94.25,1.66.76,2.16.43.4.93.6,1.5.6h.48v1.89h-.55c-1.36-.01-2.44-.41-3.22-1.2-.83-.83-1.24-2.05-1.24-3.68v-11.55h2.28Z"/>
    <path class="cls-3" d="m226.38,46.02v6.42c0,1.72-.46,2.99-1.38,3.82-.78.71-1.86,1.06-3.22,1.06h-1.33v-1.89h1.33c.78,0,1.38-.28,1.79-.85.35-.47.53-1.11.53-1.91v-6.65h2.28Zm-1.93-2.35h-1.93v-2.53h1.93v2.53Zm1.68-3.59h-1.79v-2.25h1.79v2.25Zm1.79,3.59h-1.93v-2.53h1.93v2.53Z"/>
  </g>
  <circle class="cls-2" cx="278.34" cy="50" r="32.51"/>
  <g>
    <path class="cls-1" d="m280.53,40.89v5.01c0,1.72-.46,2.99-1.38,3.82-.78.69-1.86,1.04-3.22,1.04-1.53,0-2.66-.51-3.38-1.54-.71,1.03-1.84,1.54-3.4,1.54-1.03,0-1.86-.29-2.48-.87v7.43h-2.28v-16.42h2.28v5.24c0,.92.22,1.62.67,2.09.4.43.95.64,1.66.64.81,0,1.42-.28,1.82-.83.34-.48.51-1.11.51-1.91v-5.24h2.3v5.24c0,.92.22,1.62.67,2.09.4.43.95.64,1.66.64.8,0,1.4-.28,1.82-.83.34-.48.51-1.11.51-1.91v-5.24h2.28Z"/>
    <path class="cls-1" d="m288.92,40.61c1,0,1.87.21,2.62.62.67.38,1.2.91,1.56,1.59l-1.77.97c-.34-.46-.69-.79-1.06-.99s-.83-.3-1.38-.3c-.78,0-1.4.26-1.86.78-.46.52-.69,1.24-.69,2.16v11.87h-2.28v-11.75c0-1.62.48-2.88,1.45-3.75.86-.78,1.99-1.18,3.4-1.2Z"/>
  </g>
</svg>