<?xml version="1.0" encoding="UTF-8"?>
<svg id="Layer_1" data-name="Layer 1" xmlns="http://www.w3.org/2000/svg" viewBox="0 0 550 100">
  <defs>
    <style>
      .cls-1 {
        fill: #333;
      }

      .cls-2 {
        fill: #ffd9b0;
      }

      .cls-3 {
        fill: #ff9f1c;
      }
    </style>
  </defs>
  <g>
    <path class="cls-3" d="m35.1,45.77c3.19,0,4.78,1.69,4.78,5.06v1.68c0,1.86-.47,3.19-1.4,4-.78.69-1.91,1.04-3.38,1.04-3.21,0-4.81-1.68-4.81-5.04v-1.68c0-3.37,1.6-5.06,4.81-5.06Zm-.78-2.07h-1.93v-2.53h1.93v2.53Zm.78,3.96c-1.67,0-2.51.98-2.51,2.94v2.14c0,1.95.84,2.92,2.51,2.92s2.51-.97,2.51-2.92v-2.14c0-1.96-.84-2.94-2.51-2.94Zm2.69-3.96h-1.93v-2.53h1.93v2.53Z"/>
    <path class="cls-3" d="m50.3,55.43v1.89h-1.84c-.26,0-.5-.02-.71-.07-.02,1.13-.09,2.03-.23,2.68-.14.65-.38,1.25-.71,1.78-.72,1.06-1.86,1.59-3.4,1.59-1.09,0-2.05-.22-2.9-.64l.71-1.72c.57.29,1.18.44,1.84.44.97,0,1.63-.38,2-1.13.28-.51.41-1.44.41-2.81v-11.41h2.28v9.29c.15.08.37.12.64.12h1.91Z"/>
    <path class="cls-3" d="m64.84,55.43v1.89h-2.48c-.95,0-1.55-.26-1.79-.78-.75.52-1.72.78-2.9.78h-7.77v-1.89h7.77c.81,0,1.42-.28,1.82-.85.35-.47.53-1.11.53-1.91v-1.98c0-.92-.22-1.62-.67-2.12-.41-.44-.97-.67-1.68-.67h-5.08v-.76c0-.41.06-.77.2-1.06.13-.29.4-.69.82-1.2l3.29-4h2.58l-4.21,5.13h2.42c1.58,0,2.76.46,3.54,1.38.72.83,1.08,1.99,1.08,3.5v1.54c0,1.17-.21,2.12-.62,2.85.15.09.38.14.67.14h2.51Z"/>
    <path class="cls-3" d="m72.91,57.31h-2.51c-.94,0-1.53-.25-1.79-.76-.74.51-1.69.76-2.85.76h-1.33v-1.89h1.33c.78,0,1.38-.28,1.79-.85.35-.47.53-1.11.53-1.91v-6.65h2.28v6.42c0,1.17-.25,2.08-.74,2.76.14.15.4.23.78.23h2.51v1.89Zm-3.63,4.76h-2.28v-2.58h2.28v2.58Z"/>
    <path class="cls-3" d="m88.46,55.43v1.89h-.55c-1.17-.01-2.12-.31-2.88-.9-.75,1.23-2.11,1.84-4.07,1.84s-3.33-.61-4.09-1.84c-.77.6-1.78.9-3.04.9h-1.33v-1.89h1.33c.78,0,1.38-.28,1.79-.85.35-.47.53-1.11.53-1.91v-1.84c0-3.37,1.6-5.06,4.81-5.06s4.78,1.69,4.78,5.06v2.3c.06.71.31,1.27.74,1.7.43.4.93.6,1.49.6h.48Zm-5.01-1.98v-2.85c0-1.96-.84-2.94-2.51-2.94s-2.51.98-2.51,2.94v2.85c0,1.95.84,2.92,2.51,2.92s2.51-.97,2.51-2.92Z"/>
    <path class="cls-3" d="m93.98,40.89v11.55c0,1.72-.46,2.99-1.38,3.82-.78.71-1.86,1.06-3.22,1.06h-1.33v-1.89h1.33c.78,0,1.38-.28,1.79-.85.35-.47.53-1.11.53-1.91v-11.78h2.28Z"/>
    <path class="cls-3" d="m100.03,40.89v16.42h-2.28v-16.42h2.28Z"/>
    <path class="cls-3" d="m120.48,57.31h-.55c-1.64,0-2.85-.56-3.63-1.68-.43.32-.98.59-1.64.82s-1.29.33-1.85.33c-1.58,0-2.76-.47-3.54-1.4-.72-.84-1.08-2.06-1.08-3.66v-.9c0-1.79.47-3.12,1.43-3.98.77-.71,1.83-1.06,3.2-1.06.98,0,1.87.19,2.67.58v-1.06h2.28v7.36c0,.87.23,1.56.69,2.07.41.46.93.69,1.56.69h.48v1.89Zm-8.23-13.89h-1.93v-2.53h1.93v2.53Zm.71,11.48c.98,0,1.86-.35,2.64-1.06-.09-.4-.14-1.01-.14-1.84v-3.61c-.58-.49-1.41-.74-2.48-.74-1.67,0-2.51.98-2.51,2.94v1.36c0,1.96.83,2.94,2.48,2.94Zm2.76-11.48h-1.93v-2.53h1.93v2.53Z"/>
    <path class="cls-3" d="m126,40.89v11.55c0,1.72-.46,2.99-1.38,3.82-.78.71-1.86,1.06-3.22,1.06h-1.33v-1.89h1.33c.78,0,1.38-.28,1.79-.85.35-.47.53-1.11.53-1.91v-11.78h2.28Z"/>
    <path class="cls-3" d="m134.32,45.77c1.7,0,2.94.46,3.7,1.38.71.83,1.06,2.05,1.06,3.68v4.6h2.55v1.89h-2.55v.58c-.02,1.9-.54,3.31-1.56,4.23-.86.78-2.05,1.17-3.56,1.17-1.35,0-2.65-.31-3.89-.92l.76-1.72c.95.48,1.9.71,2.85.71,2.08,0,3.13-1.1,3.13-3.31v-.74h-2.71c-1.49,0-2.62-.43-3.4-1.29-.77-.84-1.15-2.09-1.15-3.75v-1.45c0-3.37,1.59-5.06,4.78-5.06Zm.02,1.89c-1.67,0-2.51.98-2.51,2.94v1.89c0,1.96.84,2.94,2.51,2.94h2.48v-4.83c0-1.06-.22-1.83-.67-2.3-.4-.43-1-.64-1.82-.64Z"/>
    <path class="cls-3" d="m149.27,45.77c1.69,0,2.97.54,3.84,1.61.72.9,1.08,2.08,1.08,3.54,0,1-.25,1.95-.74,2.85-.38.72-.84,1.27-1.36,1.66h4.28v1.89h-5.36c-.75,0-1.33-.12-1.72-.34-.4.23-.98.34-1.75.34h-6.33v-1.89h5.24c-.61-.43-1.12-1.08-1.52-1.96-.38-.83-.57-1.68-.57-2.55,0-1.69.47-2.99,1.4-3.91.86-.83,2.02-1.24,3.5-1.24Zm.02,1.89c-.75,0-1.37.27-1.84.8-.46.52-.71,1.21-.76,2.07v.44c.03.9.3,1.75.81,2.53.46.67,1.06,1.23,1.79,1.68.84-.51,1.5-1.17,1.96-1.98.4-.71.61-1.45.62-2.23v-.44c-.06-.98-.38-1.73-.94-2.25-.45-.41-.99-.62-1.63-.62Zm1.17-3.96h-2.28v-2.58h2.28v2.58Z"/>
    <path class="cls-3" d="m177.08,55.43v1.89h-2.09c-.94,0-1.53-.25-1.79-.76-.75.51-1.69.76-2.83.76h-14.4v-1.89h3.66v-14.54h2.3v8.83c.74-1.36,1.79-2.4,3.15-3.11,1.1-.57,2.31-.85,3.61-.85,1.7,0,3.1.47,4.19,1.4.98.84,1.62,1.98,1.91,3.4.12.55.18,1.23.18,2.05,0,1.06-.21,1.96-.62,2.69.15.08.36.12.62.12h2.12Zm-15.18,0h8.44c.78,0,1.38-.29,1.79-.87.35-.49.53-1.13.53-1.93,0-1.56-.38-2.8-1.15-3.7-.72-.84-1.7-1.27-2.94-1.27-1.81,0-3.38.94-4.71,2.83-1.04,1.47-1.69,3.12-1.96,4.95Z"/>
    <path class="cls-3" d="m182.6,40.89v11.55c0,1.72-.46,2.99-1.38,3.82-.78.71-1.86,1.06-3.22,1.06h-1.33v-1.89h1.33c.78,0,1.38-.28,1.79-.85.35-.47.53-1.11.53-1.91v-11.78h2.28Z"/>
    <path class="cls-3" d="m188.65,40.89v16.42h-2.28v-16.42h2.28Z"/>
    <path class="cls-3" d="m211.88,57.31h-.78c0,.78-.24,1.6-.71,2.46-.55,1.01-1.33,1.82-2.35,2.42-1.2.74-2.63,1.1-4.3,1.1-2.44,0-4.34-.75-5.7-2.25-1.17-1.29-1.75-2.95-1.75-4.99,0-1.66.39-3.13,1.17-4.42l1.66,1.13c-.46.98-.69,1.99-.69,3.01,0,1.87.55,3.3,1.66,4.28.93.84,2.16,1.26,3.68,1.26,1.69,0,3.02-.54,4-1.61.69-.74,1.04-1.45,1.04-2.14,0-.17-.09-.25-.28-.25h-3.2v-1.89h6.55v1.89Zm-8.9,10.63h-1.93v-2.53h1.93v2.53Zm3.47,0h-1.93v-2.53h1.93v2.53Z"/>
    <path class="cls-3" d="m219.95,45.77c3.17,0,4.76,1.69,4.76,5.06v1.45c0,3.36-1.59,5.04-4.76,5.04h-8.49v-1.89h4.74c-.71-.67-1.06-1.73-1.06-3.15v-1.45c0-1.85.47-3.2,1.4-4.02.78-.69,1.92-1.04,3.4-1.04Zm-.02,1.89c-1.67,0-2.51.98-2.51,2.94v1.89c0,1.96.84,2.94,2.51,2.94s2.51-.98,2.51-2.94v-1.89c0-1.96-.84-2.94-2.51-2.94Zm1.13-3.96h-2.28v-2.58h2.28v2.58Z"/>
    <path class="cls-3" d="m231.77,54.97l1.89-1.2c.72,1.17,2.02,1.75,3.89,1.75,1.17,0,2.04-.25,2.62-.76.51-.44.76-1.07.76-1.86,0-.86-.3-1.49-.9-1.89-.28-.2-.54-.34-.78-.43-.25-.08-.96-.27-2.14-.56-1.79-.46-3.04-1.09-3.75-1.89-.63-.72-.94-1.68-.94-2.88,0-1.55.52-2.73,1.56-3.54.9-.71,2.12-1.06,3.66-1.06,2.38,0,4.04.76,4.99,2.28l-1.84,1.2c-.69-.98-1.76-1.47-3.22-1.47-.92,0-1.63.25-2.14.74-.43.43-.64,1-.64,1.72,0,.81.3,1.44.9,1.89.52.38,1.4.74,2.64,1.06,1.1.28,1.85.48,2.23.62.38.14.77.34,1.17.62,1.06.71,1.59,1.88,1.59,3.52s-.56,2.86-1.68,3.66c-.98.71-2.35,1.06-4.09,1.06-2.81,0-4.73-.86-5.77-2.58Z"/>
    <path class="cls-3" d="m250.13,57.31v-14.4h-4.6v-2.02h11.66v2.02h-4.6v14.4h-2.46Z"/>
    <path class="cls-3" d="m260.39,57.31v-16.42h9.84v2.02h-7.41v5.08h6.3v2.02h-6.3v5.27h7.47v2.02h-9.91Z"/>
    <path class="cls-3" d="m283.13,53.88h-6.69l-1.15,3.43h-2.67l5.98-16.42h2.37l5.98,16.42h-2.67l-1.15-3.43Zm-.6-1.98l-2.74-8.03-2.76,8.03h5.5Z"/>
    <path class="cls-3" d="m288.97,57.31v-16.42h2.32l4.85,10.1,4.85-10.1h2.32v16.42h-2.37v-11.75l-4.03,8.33h-1.56l-4.02-8.33v11.75h-2.37Z"/>
    <path class="cls-3" d="m317.17,45.77c2.05,0,3.58.73,4.58,2.18.37.51.63,1.23.78,2.16.03.23.09.62.18,1.17.14,1.06.27,1.78.39,2.16.12.67.31,1.15.55,1.43.32.37.8.55,1.45.55h.44v1.89h-6.49c-1.13,0-2.06.11-2.78.32-.83.28-1.47.74-1.93,1.38-.41.58-.62,1.23-.62,1.96,0,1.1.41,2.01,1.24,2.71.61.55,1.33.88,2.16.99.43.06.77.09,1.04.09,1.3,0,2.69-.38,4.16-1.15l.76,1.7c-1.55.94-3.24,1.4-5.06,1.4-.44,0-.76-.02-.94-.05-1.66-.15-3.01-.73-4.07-1.73-1.07-1.01-1.61-2.3-1.61-3.86,0-1.21.31-2.25.94-3.13.6-.86,1.46-1.51,2.6-1.95.86-.34,2.01-.53,3.45-.58h3.01c-.35-.4-.61-1.14-.78-2.23-.05-.28-.09-.71-.14-1.31-.03-.35-.06-.63-.09-.83-.14-.87-.34-1.55-.62-2.02-.25-.43-.6-.77-1.06-1.01s-.98-.37-1.56-.37c-1.09,0-2.03.55-2.83,1.66l-1.75-.99c.47-.81,1.11-1.44,1.91-1.89.8-.44,1.69-.67,2.69-.67Zm2.92,16.28h-2.28v-2.58h2.28v2.58Z"/>
    <path class="cls-3" d="m344.2,55.43v1.89h-2.09c-.95,0-1.55-.26-1.79-.78-.77.52-1.72.78-2.85.78h-4.14c-.72,0-1.31-.12-1.77-.37-.46.25-1.04.37-1.72.37h-4.69v-1.89h3.82c-.32-.28-.6-.69-.83-1.25-.23-.56-.35-1.1-.35-1.62,0-1.17.28-2.12.85-2.88.52-.67,1.23-1.09,2.14-1.24l.92-1.96c1.07-.47,2.37-.71,3.89-.71,2.04.02,3.66.69,4.85,2.02,1.09,1.21,1.63,2.81,1.63,4.78,0,1.07-.21,1.99-.62,2.74.15.08.37.12.64.12h2.12Zm-12.67-.18c.66-.14,1.18-.51,1.56-1.13.29-.49.44-1.04.44-1.63,0-.72-.17-1.32-.51-1.79-.35-.49-.85-.74-1.5-.74-.72,0-1.26.31-1.61.94-.25.45-.37.97-.37,1.59,0,.69.19,1.3.58,1.84.37.49.83.8,1.4.92Zm2.6.18h3.31c.8,0,1.4-.3,1.82-.9.35-.51.53-1.15.53-1.93,0-1.55-.44-2.78-1.31-3.68-.81-.84-1.89-1.27-3.24-1.27-1.47,0-2.86.25-4.16.74.09-.02.25-.02.46-.02,1.29,0,2.28.45,2.97,1.36.55.74.83,1.68.83,2.83,0,.52-.12,1.07-.35,1.63-.23.57-.51.98-.85,1.24Z"/>
    <path class="cls-3" d="m352.27,57.31h-2.51c-.94,0-1.53-.25-1.79-.76-.74.51-1.69.76-2.85.76h-1.33v-1.89h1.33c.78,0,1.38-.28,1.79-.85.35-.47.53-1.11.53-1.91v-6.65h2.28v6.42c0,1.17-.25,2.08-.74,2.76.14.15.4.23.78.23h2.51v1.89Zm-2.55-13.64h-2.28v-2.58h2.28v2.58Z"/>
    <path class="cls-3" d="m360.32,45.77c3.19,0,4.78,1.69,4.78,5.06v2.39c0,1.86-.47,3.19-1.4,4-.78.69-1.91,1.04-3.38,1.04-1.96,0-3.33-.61-4.09-1.84-.77.6-1.78.9-3.04.9h-1.33v-1.89h1.33c.78,0,1.38-.28,1.79-.85.35-.47.53-1.11.53-1.91v-1.84c0-3.37,1.6-5.06,4.81-5.06Zm2.48,7.68v-2.85c0-1.96-.84-2.94-2.51-2.94s-2.51.98-2.51,2.94v2.85c0,1.95.84,2.92,2.51,2.92s2.51-.97,2.51-2.92Z"/>
    <path class="cls-3" d="m389.65,46.02v6.42c0,1.72-.46,2.99-1.38,3.82-.78.71-1.86,1.06-3.24,1.06h-7.25c-1.76,0-3.14-.6-4.12-1.79-.77-.94-1.15-2.05-1.15-3.33,0-1,.13-1.89.39-2.67.29-.87.74-1.65,1.36-2.32l1.61,1.1c-.41.47-.74,1.07-.99,1.77-.21.58-.32,1.21-.32,1.89,0,.98.34,1.81,1.04,2.48.67.66,1.56.99,2.64.99h6.79c.78,0,1.38-.28,1.79-.85.35-.47.53-1.11.53-1.91v-6.65h2.3Zm-8.76-1.45h-1.93v-2.53h1.93v2.53Zm3.47,0h-1.93v-2.53h1.93v2.53Z"/>
    <path class="cls-3" d="m395.67,40.89v16.42h-2.28v-16.42h2.28Z"/>
    <path class="cls-3" d="m403.77,46.02v11.06c0,1.18-.07,2.11-.21,2.79s-.38,1.29-.74,1.83c-.72,1.06-1.86,1.59-3.4,1.59-1.09,0-2.05-.22-2.9-.64l.71-1.72c.57.29,1.18.44,1.84.44.97,0,1.63-.38,2-1.13.28-.51.41-1.44.41-2.81v-11.41h2.28Z"/>
    <path class="cls-3" d="m409.82,40.89v11.78c0,.94.25,1.66.76,2.16.43.4.93.6,1.5.6h.48v1.89h-.55c-1.36-.01-2.44-.41-3.22-1.2-.83-.83-1.24-2.05-1.24-3.68v-11.55h2.28Z"/>
    <path class="cls-3" d="m420.63,57.31h-2.51c-.94,0-1.53-.25-1.79-.76-.74.51-1.69.76-2.85.76h-1.33v-1.89h1.33c.78,0,1.38-.28,1.79-.85.35-.47.53-1.11.53-1.91v-6.65h2.28v6.42c0,1.17-.25,2.08-.74,2.76.14.15.4.23.78.23h2.51v1.89Zm-3.63,4.76h-2.28v-2.58h2.28v2.58Z"/>
    <path class="cls-3" d="m428.7,57.31h-2.51c-.94,0-1.53-.25-1.79-.76-.74.51-1.69.76-2.85.76h-1.33v-1.89h1.33c.78,0,1.38-.28,1.79-.85.35-.47.53-1.11.53-1.91v-6.65h2.28v6.42c0,1.17-.25,2.08-.74,2.76.14.15.4.23.78.23h2.51v1.89Zm-4.46-13.64h-1.93v-2.53h1.93v2.53Zm3.47,0h-1.93v-2.53h1.93v2.53Z"/>
    <path class="cls-3" d="m441.95,55.43v1.89h-13.66v-1.89h4.55c-.9-1.07-1.36-2.37-1.36-3.89,0-1.79.56-3.23,1.68-4.32.98-.97,2.24-1.45,3.77-1.45,1.09,0,2.07.27,2.94.8.69.43,1.22.98,1.59,1.66l-1.77.99c-.71-1.04-1.64-1.56-2.81-1.56-.87,0-1.62.36-2.23,1.08-.6.69-.9,1.56-.9,2.62,0,1.58.5,2.71,1.5,3.4.66.44,1.45.67,2.37.67h4.32Z"/>
    <path class="cls-3" d="m447.38,40.89v16.42h-2.28v-16.42h2.28Z"/>
  </g>
  <circle class="cls-2" cx="499.34" cy="50" r="32.51"/>
  <g>
    <path class="cls-1" d="m501.59,40.89v5.01c0,1.72-.46,2.99-1.38,3.82-.78.69-1.86,1.04-3.22,1.04-1.53,0-2.66-.51-3.38-1.54-.71,1.03-1.84,1.54-3.4,1.54-1.03,0-1.86-.29-2.48-.87v7.43h-2.28v-16.42h2.28v5.24c0,.92.22,1.62.67,2.09.4.43.95.64,1.66.64.81,0,1.42-.28,1.82-.83.34-.48.51-1.11.51-1.91v-5.24h2.3v5.24c0,.92.22,1.62.67,2.09.4.43.95.64,1.66.64.8,0,1.4-.28,1.82-.83.34-.48.51-1.11.51-1.91v-5.24h2.28Z"/>
    <path class="cls-1" d="m509.18,43.42c2.88,0,4.4,1.69,4.55,5.06l.23,4.03c.11,1.84-.34,3.18-1.36,4.02-.81.67-1.96,1.01-3.43,1.01-3.2,0-4.81-1.51-4.81-4.53,0-.05,0-.13.02-.25v-.25l.23-4.03c.2-3.37,1.72-5.06,4.55-5.06Zm0,1.89c-1.41,0-2.16.94-2.25,2.83l-.25,4.6c-.06,1.01.16,1.77.67,2.28.43.43,1.04.64,1.84.64.91,0,1.57-.28,2-.85.37-.49.53-1.18.48-2.07l-.25-4.6c-.06-1.89-.8-2.83-2.23-2.83Z"/>
  </g>
</svg>