<?xml version="1.0" encoding="UTF-8"?>
<svg id="Layer_1" data-name="Layer 1" xmlns="http://www.w3.org/2000/svg" viewBox="0 0 828 100">
  <defs>
    <style>
      .cls-1 {
        fill: #333;
      }

      .cls-2 {
        fill: #ccc;
      }
    </style>
  </defs>
  <g>
    <path class="cls-2" d="m34.41,54.97l1.89-1.2c.72,1.17,2.02,1.75,3.89,1.75,1.17,0,2.04-.25,2.62-.76.51-.44.76-1.07.76-1.86,0-.86-.3-1.49-.9-1.89-.28-.2-.54-.34-.78-.43-.25-.08-.96-.27-2.14-.56-1.79-.46-3.04-1.09-3.75-1.89-.63-.72-.94-1.68-.94-2.88,0-1.55.52-2.73,1.56-3.54.9-.71,2.12-1.06,3.66-1.06,2.38,0,4.04.76,4.99,2.28l-1.84,1.2c-.69-.98-1.76-1.47-3.22-1.47-.92,0-1.63.25-2.14.74-.43.43-.64,1-.64,1.72,0,.81.3,1.44.9,1.89.52.38,1.4.74,2.64,1.06,1.1.28,1.85.48,2.23.62.38.14.77.34,1.17.62,1.06.71,1.59,1.88,1.59,3.52s-.56,2.86-1.68,3.66c-.98.71-2.35,1.06-4.09,1.06-2.81,0-4.73-.86-5.77-2.58Z"/>
    <path class="cls-2" d="m52.76,57.31v-14.4h-4.6v-2.02h11.66v2.02h-4.6v14.4h-2.46Z"/>
    <path class="cls-2" d="m63.02,57.31v-16.42h9.84v2.02h-7.41v5.08h6.3v2.02h-6.3v5.27h7.47v2.02h-9.91Z"/>
    <path class="cls-2" d="m85.77,53.89h-6.69l-1.15,3.43h-2.67l5.98-16.42h2.37l5.98,16.42h-2.67l-1.15-3.43Zm-.6-1.98l-2.74-8.03-2.76,8.03h5.5Z"/>
    <path class="cls-2" d="m91.61,57.31v-16.42h2.32l4.85,10.1,4.85-10.1h2.32v16.42h-2.37v-11.75l-4.03,8.33h-1.56l-4.02-8.33v11.75h-2.37Z"/>
    <path class="cls-2" d="m127.86,46.02v10.12c0,2.36-.66,4.17-1.98,5.43-1.21,1.15-2.88,1.73-5.01,1.73-1.24,0-2.39-.28-3.45-.85-1.07-.57-1.91-1.36-2.51-2.37-.66-1.09-.99-2.33-.99-3.73,0-1.09.17-2.16.51-3.21.34-1.05.8-1.95,1.4-2.7l1.63,1.1c-.95,1.35-1.43,2.88-1.43,4.58s.56,3.08,1.68,4.05c.89.77,1.95,1.15,3.17,1.15,1.52,0,2.69-.47,3.52-1.4.77-.84,1.15-2.01,1.15-3.5v-10.4h2.3Zm-5.7-.85h-2.28v-2.58h2.28v2.58Z"/>
    <path class="cls-2" d="m136.16,45.77c1.7,0,2.94.46,3.7,1.38.71.83,1.06,2.05,1.06,3.68v4.6h2.55v1.89h-2.55v.58c-.02,1.9-.54,3.31-1.56,4.23-.86.78-2.05,1.17-3.56,1.17-1.35,0-2.65-.31-3.89-.92l.76-1.72c.95.48,1.9.71,2.85.71,2.08,0,3.13-1.1,3.13-3.31v-.74h-2.71c-1.49,0-2.62-.43-3.4-1.29-.77-.84-1.15-2.09-1.15-3.75v-1.45c0-3.37,1.59-5.06,4.78-5.06Zm.02,1.89c-1.67,0-2.51.98-2.51,2.94v1.89c0,1.96.84,2.94,2.51,2.94h2.48v-4.83c0-1.06-.22-1.83-.67-2.3-.4-.43-1-.64-1.82-.64Z"/>
    <path class="cls-2" d="m151.55,57.31h-2.51c-.94,0-1.53-.25-1.79-.76-.74.51-1.69.76-2.85.76h-1.33v-1.89h1.33c.78,0,1.38-.28,1.79-.85.35-.47.53-1.11.53-1.91v-6.65h2.28v6.42c0,1.17-.25,2.08-.74,2.76.14.15.4.23.78.23h2.51v1.89Zm-2.55-13.64h-2.28v-2.58h2.28v2.58Z"/>
    <path class="cls-2" d="m159.18,45.77c1.69,0,2.97.54,3.84,1.61.72.9,1.08,2.08,1.08,3.54,0,1-.25,1.95-.74,2.85-.38.72-.84,1.27-1.36,1.66h4.28v1.89h-5.36c-.75,0-1.33-.12-1.72-.34-.4.23-.98.34-1.75.34h-6.33v-1.89h5.24c-.61-.43-1.12-1.08-1.52-1.96-.38-.83-.57-1.68-.57-2.55,0-1.69.47-2.99,1.4-3.91.86-.83,2.02-1.24,3.5-1.24Zm.02,1.89c-.75,0-1.37.27-1.84.8-.46.52-.71,1.21-.76,2.07v.44c.03.9.3,1.75.81,2.53.46.67,1.06,1.23,1.79,1.68.84-.51,1.5-1.17,1.96-1.98.4-.71.61-1.45.62-2.23v-.44c-.06-.98-.38-1.73-.94-2.25-.45-.41-.99-.62-1.63-.62Zm1.17-3.96h-2.28v-2.58h2.28v2.58Z"/>
    <path class="cls-2" d="m171.81,40.89v11.55c0,1.72-.46,2.99-1.38,3.82-.78.71-1.86,1.06-3.22,1.06h-1.33v-1.89h1.33c.78,0,1.38-.28,1.79-.85.35-.47.53-1.11.53-1.91v-11.78h2.28Z"/>
    <path class="cls-2" d="m177.86,40.89v16.42h-2.28v-16.42h2.28Z"/>
    <path class="cls-2" d="m186.19,45.77c1.7,0,2.94.46,3.7,1.38.71.83,1.06,2.05,1.06,3.68v6.6c0,2.25-.56,3.86-1.68,4.81-.84.71-1.99,1.06-3.45,1.06-1.37,0-2.66-.31-3.89-.92l.76-1.72c.95.48,1.89.71,2.81.71s1.59-.2,2.12-.6c.71-.58,1.06-1.5,1.06-2.76v-1.08c-.86.41-1.76.62-2.71.62-1.49,0-2.62-.43-3.4-1.29-.77-.84-1.15-2.09-1.15-3.75v-1.68c0-3.37,1.59-5.06,4.78-5.06Zm.02,1.89c-1.67,0-2.51.98-2.51,2.94v2.14c0,1.95.84,2.92,2.51,2.92.97,0,1.79-.25,2.48-.74v-4.32c0-1.06-.22-1.83-.67-2.3-.4-.43-1-.64-1.82-.64Z"/>
    <path class="cls-2" d="m215.74,46.02v6.42c0,1.72-.46,2.99-1.38,3.82-.78.71-1.86,1.06-3.24,1.06h-7.25c-1.76,0-3.14-.6-4.12-1.79-.77-.94-1.15-2.05-1.15-3.33,0-1,.13-1.89.39-2.67.29-.87.74-1.65,1.36-2.32l1.61,1.1c-.41.47-.74,1.07-.99,1.77-.21.58-.32,1.21-.32,1.89,0,.98.34,1.81,1.04,2.48.67.66,1.56.99,2.64.99h6.79c.78,0,1.38-.28,1.79-.85.35-.47.53-1.11.53-1.91v-6.65h2.3Zm-8.76-1.45h-1.93v-2.53h1.93v2.53Zm3.47,0h-1.93v-2.53h1.93v2.53Z"/>
    <path class="cls-2" d="m221.77,40.89v11.78c0,.94.25,1.66.76,2.16.43.4.93.6,1.5.6h.48v1.89h-.55c-1.36-.01-2.44-.41-3.22-1.2-.83-.83-1.24-2.05-1.24-3.68v-11.55h2.28Z"/>
    <path class="cls-2" d="m232.58,57.31h-2.51c-.94,0-1.53-.25-1.79-.76-.74.51-1.69.76-2.85.76h-1.33v-1.89h1.33c.78,0,1.38-.28,1.79-.85.35-.47.53-1.11.53-1.91v-6.65h2.28v6.42c0,1.17-.25,2.08-.74,2.76.14.15.4.23.78.23h2.51v1.89Zm-6.16,4.76h-1.93v-2.53h1.93v2.53Zm3.47,0h-1.93v-2.53h1.93v2.53Z"/>
    <path class="cls-2" d="m250.98,50.57c.12.55.18,1.23.18,2.05,0,1.66-.48,2.89-1.45,3.7-.78.66-1.83.99-3.15.99h-8.46v1.68h-2.28v-1.68h-3.66v-1.89h3.66v-9.41h2.3v3.7c.74-1.36,1.79-2.4,3.15-3.11,1.1-.57,2.31-.85,3.61-.85,1.7,0,3.1.47,4.19,1.4.98.84,1.62,1.98,1.91,3.4Zm-12.88,4.85h8.44c.78,0,1.38-.29,1.79-.87.35-.49.53-1.13.53-1.93,0-1.56-.38-2.8-1.15-3.7-.72-.84-1.7-1.27-2.94-1.27-1.81,0-3.38.94-4.71,2.83-1.04,1.47-1.69,3.12-1.96,4.95Zm7.54-11.75h-2.28v-2.58h2.28v2.58Z"/>
    <path class="cls-2" d="m256.68,40.89v11.78c0,.94.25,1.66.76,2.16.43.4.93.6,1.5.6h.48v1.89h-.55c-1.36-.01-2.44-.41-3.22-1.2-.83-.83-1.24-2.05-1.24-3.68v-11.55h2.28Z"/>
    <path class="cls-2" d="m264.94,46.02v6.42c0,1.72-.46,2.99-1.38,3.82-.78.71-1.86,1.06-3.22,1.06h-1.33v-1.89h1.33c.78,0,1.38-.28,1.79-.85.35-.47.53-1.11.53-1.91v-6.65h2.28Zm-3.63,16.05h-1.93v-2.53h1.93v2.53Zm3.47,0h-1.93v-2.53h1.93v2.53Z"/>
    <path class="cls-2" d="m276.51,55.43v1.89h-1.84c-.26,0-.5-.02-.71-.07-.02,1.13-.09,2.03-.23,2.68-.14.65-.38,1.25-.71,1.78-.72,1.06-1.86,1.59-3.4,1.59-1.09,0-2.05-.22-2.9-.64l.71-1.72c.57.29,1.18.44,1.84.44.97,0,1.63-.38,2-1.13.28-.51.41-1.44.41-2.81v-11.41h2.28v9.29c.15.08.37.12.64.12h1.91Z"/>
    <path class="cls-2" d="m282.03,40.89v11.55c0,1.72-.46,2.99-1.38,3.82-.78.71-1.86,1.06-3.22,1.06h-1.33v-1.89h1.33c.78,0,1.38-.28,1.79-.85.35-.47.53-1.11.53-1.91v-11.78h2.28Z"/>
    <path class="cls-2" d="m288.08,40.89v16.42h-2.28v-16.42h2.28Z"/>
    <path class="cls-2" d="m296.4,45.77c1.7,0,2.94.46,3.7,1.38.71.83,1.06,2.05,1.06,3.68v6.6c0,2.25-.56,3.86-1.68,4.81-.84.71-1.99,1.06-3.45,1.06-1.37,0-2.66-.31-3.89-.92l.76-1.72c.95.48,1.89.71,2.81.71s1.59-.2,2.12-.6c.71-.58,1.06-1.5,1.06-2.76v-1.08c-.86.41-1.76.62-2.71.62-1.49,0-2.62-.43-3.4-1.29-.77-.84-1.15-2.09-1.15-3.75v-1.68c0-3.37,1.59-5.06,4.78-5.06Zm.02,1.89c-1.67,0-2.51.98-2.51,2.94v2.14c0,1.95.84,2.92,2.51,2.92.97,0,1.79-.25,2.48-.74v-4.32c0-1.06-.22-1.83-.67-2.3-.4-.43-1-.64-1.82-.64Z"/>
    <path class="cls-2" d="m321.63,57.31h-.55c-1.64,0-2.85-.56-3.63-1.68-.43.32-.98.59-1.64.82s-1.29.33-1.85.33c-1.58,0-2.76-.47-3.54-1.4-.72-.84-1.08-2.06-1.08-3.66v-.9c0-1.79.47-3.12,1.43-3.98.77-.71,1.83-1.06,3.2-1.06.98,0,1.87.19,2.67.58v-1.06h2.28v7.36c0,.87.23,1.56.69,2.07.41.46.93.69,1.56.69h.48v1.89Zm-8.23-13.89h-1.93v-2.53h1.93v2.53Zm.71,11.48c.98,0,1.86-.35,2.64-1.06-.09-.4-.14-1.01-.14-1.84v-3.61c-.58-.49-1.41-.74-2.48-.74-1.67,0-2.51.98-2.51,2.94v1.36c0,1.96.83,2.94,2.48,2.94Zm2.76-11.48h-1.93v-2.53h1.93v2.53Z"/>
    <path class="cls-2" d="m342.29,46.04v6.65c0,1.72-.46,2.99-1.38,3.82-.78.71-1.86,1.06-3.24,1.06-1.55,0-2.68-.52-3.4-1.56-.72,1.03-1.89,1.54-3.52,1.54s-2.91-.55-3.61-1.66c-.74.95-1.85,1.43-3.33,1.43h-2.58v-1.89h2.58c.78,0,1.38-.28,1.79-.85.35-.47.53-1.11.53-1.91v-6.65h2.3v6.9c0,.92.22,1.62.67,2.09.4.43.95.64,1.66.64.8,0,1.4-.28,1.82-.83.34-.47.51-1.11.51-1.91v-6.9h2.28v6.9c0,.92.22,1.62.67,2.12.4.43.95.64,1.66.64.8,0,1.4-.28,1.82-.85.34-.47.51-1.11.51-1.91v-6.88h2.3Z"/>
    <path class="cls-2" d="m356.96,55.43v1.89h-2.09c-.95,0-1.55-.25-1.79-.76-.77.51-1.77.76-3.01.76h-4.65v-1.89h4.65c1.66,0,2.48-.97,2.48-2.9,0-1.67-.48-2.92-1.45-3.75-.74-.63-1.78-1.04-3.13-1.24l.9-1.77c1.66.2,2.99.74,4,1.63.92.81,1.51,1.86,1.77,3.15.12.57.18,1.22.18,1.96,0,1.13-.21,2.07-.62,2.81.15.08.37.12.64.12h2.12Z"/>
    <path class="cls-2" d="m365.03,57.31h-2.51c-.94,0-1.53-.25-1.79-.76-.74.51-1.69.76-2.85.76h-1.33v-1.89h1.33c.78,0,1.38-.28,1.79-.85.35-.47.53-1.11.53-1.91v-6.65h2.28v6.42c0,1.17-.25,2.08-.74,2.76.14.15.4.23.78.23h2.51v1.89Zm-2.55-13.64h-2.28v-2.58h2.28v2.58Z"/>
    <path class="cls-2" d="m383.69,55.43v1.89h-2.09c-.95,0-1.55-.26-1.79-.78-.77.52-1.72.78-2.85.78h-4.14c-.72,0-1.31-.12-1.77-.37-.46.25-1.04.37-1.72.37h-4.69v-1.89h3.82c-.32-.28-.6-.69-.83-1.25-.23-.56-.35-1.1-.35-1.62,0-1.17.28-2.12.85-2.88.52-.67,1.23-1.09,2.14-1.24l.92-1.96c1.07-.47,2.37-.71,3.89-.71,2.04.02,3.66.69,4.85,2.02,1.09,1.21,1.63,2.81,1.63,4.78,0,1.07-.21,1.99-.62,2.74.15.08.37.12.64.12h2.12Zm-12.67-.18c.66-.14,1.18-.51,1.56-1.13.29-.49.44-1.04.44-1.63,0-.72-.17-1.32-.51-1.79-.35-.49-.85-.74-1.5-.74-.72,0-1.26.31-1.61.94-.25.45-.37.97-.37,1.59,0,.69.19,1.3.58,1.84.37.49.83.8,1.4.92Zm2.6.18h3.31c.8,0,1.4-.3,1.82-.9.35-.51.53-1.15.53-1.93,0-1.55-.44-2.78-1.31-3.68-.81-.84-1.89-1.27-3.24-1.27-1.47,0-2.86.25-4.16.74.09-.02.25-.02.46-.02,1.29,0,2.28.45,2.97,1.36.55.74.83,1.68.83,2.83,0,.52-.12,1.07-.35,1.63-.23.57-.51.98-.85,1.24Z"/>
    <path class="cls-2" d="m389.21,40.89v11.55c0,1.72-.46,2.99-1.38,3.82-.78.71-1.86,1.06-3.22,1.06h-1.33v-1.89h1.33c.78,0,1.38-.28,1.79-.85.35-.47.53-1.11.53-1.91v-11.78h2.28Z"/>
    <path class="cls-2" d="m395.26,40.89v16.42h-2.28v-16.42h2.28Z"/>
    <path class="cls-2" d="m403.58,45.77c1.7,0,2.94.46,3.7,1.38.71.83,1.06,2.05,1.06,3.68v6.6c0,2.25-.56,3.86-1.68,4.81-.84.71-1.99,1.06-3.45,1.06-1.37,0-2.66-.31-3.89-.92l.76-1.72c.95.48,1.89.71,2.81.71s1.59-.2,2.12-.6c.71-.58,1.06-1.5,1.06-2.76v-1.08c-.86.41-1.76.62-2.71.62-1.49,0-2.62-.43-3.4-1.29-.77-.84-1.15-2.09-1.15-3.75v-1.68c0-3.37,1.59-5.06,4.78-5.06Zm.02,1.89c-1.67,0-2.51.98-2.51,2.94v2.14c0,1.95.84,2.92,2.51,2.92.97,0,1.79-.25,2.48-.74v-4.32c0-1.06-.22-1.83-.67-2.3-.4-.43-1-.64-1.82-.64Z"/>
    <path class="cls-2" d="m428.81,57.31h-.55c-1.64,0-2.85-.56-3.63-1.68-.43.32-.98.59-1.64.82s-1.29.33-1.85.33c-1.58,0-2.76-.47-3.54-1.4-.72-.84-1.08-2.06-1.08-3.66v-.9c0-1.79.47-3.12,1.43-3.98.77-.71,1.83-1.06,3.2-1.06.98,0,1.87.19,2.67.58v-1.06h2.28v7.36c0,.87.23,1.56.69,2.07.41.46.93.69,1.56.69h.48v1.89Zm-8.23-13.89h-1.93v-2.53h1.93v2.53Zm.71,11.48c.98,0,1.86-.35,2.64-1.06-.09-.4-.14-1.01-.14-1.84v-3.61c-.58-.49-1.41-.74-2.48-.74-1.67,0-2.51.98-2.51,2.94v1.36c0,1.96.83,2.94,2.48,2.94Zm2.76-11.48h-1.93v-2.53h1.93v2.53Z"/>
    <path class="cls-2" d="m436.89,57.31h-2.51c-.94,0-1.53-.25-1.79-.76-.74.51-1.69.76-2.85.76h-1.33v-1.89h1.33c.78,0,1.38-.28,1.79-.85.35-.47.53-1.11.53-1.91v-6.65h2.28v6.42c0,1.17-.25,2.08-.74,2.76.14.15.4.23.78.23h2.51v1.89Zm-6.16,4.76h-1.93v-2.53h1.93v2.53Zm3.47,0h-1.93v-2.53h1.93v2.53Z"/>
    <path class="cls-2" d="m444.96,57.31h-2.51c-.94,0-1.53-.25-1.79-.76-.74.51-1.69.76-2.85.76h-1.33v-1.89h1.33c.78,0,1.38-.28,1.79-.85.35-.47.53-1.11.53-1.91v-6.65h2.28v6.42c0,1.17-.25,2.08-.74,2.76.14.15.4.23.78.23h2.51v1.89Zm-2.55-13.64h-2.28v-2.58h2.28v2.58Z"/>
    <path class="cls-2" d="m452.59,45.77c1.69,0,2.97.54,3.84,1.61.72.9,1.08,2.08,1.08,3.54,0,1-.25,1.95-.74,2.85-.38.72-.84,1.27-1.36,1.66h4.28v1.89h-5.36c-.75,0-1.33-.12-1.72-.34-.4.23-.98.34-1.75.34h-6.33v-1.89h5.24c-.61-.43-1.12-1.08-1.52-1.96-.38-.83-.57-1.68-.57-2.55,0-1.69.47-2.99,1.4-3.91.86-.83,2.02-1.24,3.5-1.24Zm-.78-2.12h-1.93v-2.53h1.93v2.53Zm.81,4c-.75,0-1.37.27-1.84.8-.46.52-.71,1.21-.76,2.07v.44c.03.9.3,1.75.81,2.53.46.67,1.06,1.23,1.79,1.68.84-.51,1.5-1.17,1.96-1.98.4-.71.61-1.45.62-2.23v-.44c-.06-.98-.38-1.73-.94-2.25-.45-.41-.99-.62-1.63-.62Zm2.67-4h-1.93v-2.53h1.93v2.53Z"/>
    <path class="cls-2" d="m467.78,57.31h-2.51c-.94,0-1.53-.25-1.79-.76-.74.51-1.69.76-2.85.76h-1.33v-1.89h1.33c.78,0,1.38-.28,1.79-.85.35-.47.53-1.11.53-1.91v-6.65h2.28v6.42c0,1.17-.25,2.08-.74,2.76.14.15.4.23.78.23h2.51v1.89Zm-4.46-13.64h-1.93v-2.53h1.93v2.53Zm3.47,0h-1.93v-2.53h1.93v2.53Z"/>
    <path class="cls-2" d="m473.29,40.89v11.55c0,1.72-.46,2.99-1.38,3.82-.78.71-1.86,1.06-3.22,1.06h-1.33v-1.89h1.33c.78,0,1.38-.28,1.79-.85.35-.47.53-1.11.53-1.91v-11.78h2.28Z"/>
    <path class="cls-2" d="m479.34,40.89v16.42h-2.28v-16.42h2.28Z"/>
    <path class="cls-2" d="m487.67,45.77c1.7,0,2.94.46,3.7,1.38.71.83,1.06,2.05,1.06,3.68v6.6c0,2.25-.56,3.86-1.68,4.81-.84.71-1.99,1.06-3.45,1.06-1.37,0-2.66-.31-3.89-.92l.76-1.72c.95.48,1.89.71,2.81.71s1.59-.2,2.12-.6c.71-.58,1.06-1.5,1.06-2.76v-1.08c-.86.41-1.76.62-2.71.62-1.49,0-2.62-.43-3.4-1.29-.77-.84-1.15-2.09-1.15-3.75v-1.68c0-3.37,1.59-5.06,4.78-5.06Zm.02,1.89c-1.67,0-2.51.98-2.51,2.94v2.14c0,1.95.84,2.92,2.51,2.92.97,0,1.79-.25,2.48-.74v-4.32c0-1.06-.22-1.83-.67-2.3-.4-.43-1-.64-1.82-.64Z"/>
    <path class="cls-2" d="m508.09,45.77c3.19,0,4.78,1.69,4.78,5.06v2.37c0,3.37-1.6,5.06-4.78,5.06-1.93,0-3.28-.6-4.05-1.79-1.09.14-1.63.77-1.63,1.91v6.95h-2.28v-6.74c0-1.41.31-2.43.94-3.06.51-.51,1.28-.81,2.32-.92-.08-.46-.12-.93-.12-1.4v-2.37c0-3.37,1.6-5.06,4.81-5.06Zm2.51,7.66v-2.83c0-1.96-.84-2.94-2.51-2.94s-2.51.98-2.51,2.94v2.83c0,1.96.83,2.94,2.51,2.94s2.51-.98,2.51-2.94Z"/>
    <path class="cls-2" d="m520.97,45.77c1.7,0,2.94.46,3.7,1.38.71.83,1.06,2.05,1.06,3.68v4.6h2.55v1.89h-2.55v.58c-.02,1.9-.54,3.31-1.56,4.23-.86.78-2.05,1.17-3.56,1.17-1.35,0-2.65-.31-3.89-.92l.76-1.72c.95.48,1.9.71,2.85.71,2.08,0,3.13-1.1,3.13-3.31v-.74h-2.71c-1.49,0-2.62-.43-3.4-1.29-.77-.84-1.15-2.09-1.15-3.75v-1.45c0-3.37,1.59-5.06,4.78-5.06Zm.02,1.89c-1.67,0-2.51.98-2.51,2.94v1.89c0,1.96.84,2.94,2.51,2.94h2.48v-4.83c0-1.06-.22-1.83-.67-2.3-.4-.43-1-.64-1.82-.64Z"/>
    <path class="cls-2" d="m536.36,55.43v1.89h-2.48c-.95,0-1.55-.26-1.79-.78-.75.52-1.71.78-2.88.78h-1.33v-1.89h1.33c.78,0,1.38-.28,1.79-.85.35-.47.53-1.11.53-1.91v-11.78h2.28v11.55c0,1.17-.21,2.12-.62,2.85.15.09.38.14.67.14h2.51Z"/>
    <path class="cls-2" d="m544.46,45.77c1.67,0,2.99.52,3.96,1.56.87.95,1.33,2.25,1.38,3.91-1.52,1.12-2.57,2.52-3.15,4.19h5.17v1.89h-5.57c-.78,0-1.39-.13-1.82-.39-.43.26-1.03.39-1.79.39h-6.69v-1.89h6.33c-.61-1.67-1.66-3.07-3.15-4.19.05-1.87.64-3.3,1.77-4.28.93-.8,2.12-1.2,3.56-1.2Zm0,1.91c-.84,0-1.55.29-2.12.87-.55.57-.87,1.33-.94,2.28,1.27.92,2.25,2.33,2.94,4.23.03.06.07.09.12.09.06,0,.1-.03.12-.09.69-1.92,1.67-3.33,2.94-4.23-.09-1.09-.48-1.92-1.15-2.48-.54-.44-1.17-.67-1.91-.67Z"/>
    <path class="cls-2" d="m557.34,40.89v11.55c0,1.72-.46,2.99-1.38,3.82-.78.71-1.86,1.06-3.22,1.06h-1.33v-1.89h1.33c.78,0,1.38-.28,1.79-.85.35-.47.53-1.11.53-1.91v-11.78h2.28Z"/>
    <path class="cls-2" d="m563.39,40.89v16.42h-2.28v-16.42h2.28Z"/>
    <path class="cls-2" d="m586.55,55.43v1.89h-.55c-1.2-.01-2.16-.32-2.9-.92-.75,1.24-2.11,1.86-4.07,1.86s-3.28-.6-4.05-1.79c-1.09.14-1.63.77-1.63,1.91v6.95h-2.28v-6.74c0-1.41.31-2.43.94-3.06.51-.51,1.28-.81,2.32-.92-.08-.46-.12-.93-.12-1.4v-2.37c0-3.37,1.6-5.06,4.81-5.06s4.78,1.69,4.78,5.06v1.84c0,.94.25,1.66.76,2.16.43.4.93.6,1.5.6h.48Zm-5.01-2v-2.83c0-1.96-.84-2.94-2.51-2.94s-2.51.98-2.51,2.94v2.83c0,1.96.83,2.94,2.51,2.94s2.51-.98,2.51-2.94Z"/>
    <path class="cls-2" d="m594.62,57.31h-2.51c-.94,0-1.53-.25-1.79-.76-.74.51-1.69.76-2.85.76h-1.33v-1.89h1.33c.78,0,1.38-.28,1.79-.85.35-.47.53-1.11.53-1.91v-6.65h2.28v6.42c0,1.17-.25,2.08-.74,2.76.14.15.4.23.78.23h2.51v1.89Zm-6.16,4.76h-1.93v-2.53h1.93v2.53Zm3.47,0h-1.93v-2.53h1.93v2.53Z"/>
    <path class="cls-2" d="m602.69,55.43v1.89h-2.48c-.95,0-1.55-.26-1.79-.78-.75.52-1.71.78-2.88.78h-1.33v-1.89h1.33c.78,0,1.38-.28,1.79-.85.35-.47.53-1.11.53-1.91v-11.78h2.28v11.55c0,1.17-.21,2.12-.62,2.85.15.09.38.14.67.14h2.51Z"/>
    <path class="cls-2" d="m610.79,45.77c1.67,0,2.99.52,3.96,1.56.87.95,1.33,2.25,1.38,3.91-1.52,1.12-2.57,2.52-3.15,4.19h5.17v1.89h-5.57c-.78,0-1.39-.13-1.82-.39-.43.26-1.03.39-1.79.39h-6.69v-1.89h6.33c-.61-1.67-1.66-3.07-3.15-4.19.05-1.87.64-3.3,1.77-4.28.93-.8,2.12-1.2,3.56-1.2Zm0,1.91c-.84,0-1.55.29-2.12.87-.55.57-.87,1.33-.94,2.28,1.27.92,2.25,2.33,2.94,4.23.03.06.07.09.12.09.06,0,.1-.03.12-.09.69-1.92,1.67-3.33,2.94-4.23-.09-1.09-.48-1.92-1.15-2.48-.54-.44-1.17-.67-1.91-.67Z"/>
    <path class="cls-2" d="m623.67,46.02v6.42c0,1.72-.46,2.99-1.38,3.82-.78.71-1.86,1.06-3.22,1.06h-1.33v-1.89h1.33c.78,0,1.38-.28,1.79-.85.35-.47.53-1.11.53-1.91v-6.65h2.28Zm-1.93-2.35h-1.93v-2.53h1.93v2.53Zm3.47,0h-1.93v-2.53h1.93v2.53Z"/>
    <path class="cls-2" d="m636.62,45.77c3.19,0,4.78,1.69,4.78,5.06v1.68c0,1.86-.47,3.19-1.4,4-.78.69-1.91,1.04-3.38,1.04-3.21,0-4.81-1.68-4.81-5.04v-1.68c0-3.37,1.6-5.06,4.81-5.06Zm-.78-2.07h-1.93v-2.53h1.93v2.53Zm.78,3.96c-1.67,0-2.51.98-2.51,2.94v2.14c0,1.95.84,2.92,2.51,2.92s2.51-.97,2.51-2.92v-2.14c0-1.96-.84-2.94-2.51-2.94Zm2.69-3.96h-1.93v-2.53h1.93v2.53Z"/>
    <path class="cls-2" d="m648.14,39.97h-4.16v-1.13h.74c-.18-.29-.28-.63-.28-1.01,0-.51.18-.93.54-1.28.36-.34.81-.52,1.34-.52.34,0,.66.09.98.26.31.18.53.4.66.68l-.92.55-.05-.07c-.17-.26-.39-.39-.67-.39-.43,0-.64.28-.64.83,0,.28.1.5.29.67.19.17.45.26.77.28h1.4v1.13Zm-.92,2.21v10.49c0,.94.25,1.66.76,2.16.43.4.93.6,1.5.6h.53v1.89h-.6c-1.36-.01-2.44-.41-3.22-1.2-.83-.83-1.24-2.05-1.24-3.68v-10.26h2.28Z"/>
    <path class="cls-2" d="m674.11,55.43v1.89h-3.36c-.86,0-1.43-.21-1.7-.64-.75.6-1.77.9-3.06.9-1.55,0-2.68-.52-3.4-1.56-.72,1.03-1.89,1.54-3.52,1.54s-2.91-.55-3.61-1.66c-.74.95-1.85,1.43-3.33,1.43h-2.58v-1.89h2.58c.78,0,1.38-.28,1.79-.85.35-.47.53-1.11.53-1.91v-6.65h2.3v6.9c0,.92.22,1.62.67,2.09.4.43.95.64,1.66.64.8,0,1.4-.28,1.82-.83.34-.47.51-1.11.51-1.91v-6.9h2.28v6.9c0,.92.22,1.62.67,2.12.4.43.95.64,1.66.64.8,0,1.4-.28,1.82-.85.34-.47.51-1.11.51-1.91v-6.88h2.3v6.65c0,1-.17,1.87-.51,2.62.15.08.37.12.64.12h3.36Zm-12.31-11.75h-1.93v-2.53h1.93v2.53Zm1.68-3.59h-1.79v-2.25h1.79v2.25Zm-.14,1.06h1.93v2.53h-1.93v-2.53Z"/>
    <path class="cls-2" d="m679.63,46.02v6.42c0,1.72-.46,2.99-1.38,3.82-.78.71-1.86,1.06-3.22,1.06h-1.33v-1.89h1.33c.78,0,1.38-.28,1.79-.85.35-.47.53-1.11.53-1.91v-6.65h2.28Zm0-2.32h-2.28v-2.58h2.28v2.58Z"/>
    <path class="cls-2" d="m688.18,48.2v-2.6h2.46v2.6h-2.46Zm0,9.11v-2.6h2.46v2.6h-2.46Z"/>
    <path class="cls-2" d="m699.89,40.04h-4.19v-1.13h4.19v1.13Zm0,2.71h-4.19v-1.13h4.19v1.13Z"/>
    <path class="cls-2" d="m706.22,40.89v11.55c0,3.25-1.53,4.88-4.6,4.88h-7.64v-1.89h3.06v-11.11h2.28v11.11h2.3c.78,0,1.38-.28,1.79-.85.35-.47.53-1.11.53-1.91v-11.78h2.28Z"/>
    <path class="cls-2" d="m714.54,45.77c1.7,0,2.94.46,3.7,1.38.71.83,1.06,2.05,1.06,3.68v6.6c0,2.25-.56,3.86-1.68,4.81-.84.71-1.99,1.06-3.45,1.06-1.37,0-2.66-.31-3.89-.92l.76-1.72c.95.48,1.89.71,2.81.71s1.59-.2,2.12-.6c.71-.58,1.06-1.5,1.06-2.76v-1.08c-.86.41-1.76.62-2.71.62-1.49,0-2.62-.43-3.4-1.29-.77-.84-1.15-2.09-1.15-3.75v-1.68c0-3.37,1.59-5.06,4.78-5.06Zm.02,1.89c-1.67,0-2.51.98-2.51,2.94v2.14c0,1.95.84,2.92,2.51,2.92.97,0,1.79-.25,2.48-.74v-4.32c0-1.06-.22-1.83-.67-2.3-.4-.43-1-.64-1.82-.64Z"/>
    <path class="cls-2" d="m726.29,39.97h-4.16v-1.13h.74c-.18-.29-.28-.63-.28-1.01,0-.51.18-.93.54-1.28.36-.34.81-.52,1.34-.52.34,0,.66.09.98.26.31.18.53.4.66.68l-.92.55-.05-.07c-.17-.26-.39-.39-.67-.39-.43,0-.64.28-.64.83,0,.28.1.5.29.67.19.17.45.26.77.28h1.4v1.13Zm-.92,2.21v15.13h-2.28v-15.13h2.28Z"/>
  </g>
  <circle class="cls-2" cx="777.34" cy="50" r="32.51"/>
  <path class="cls-1" d="m777.04,40.61c1.41,0,2.51.34,3.31,1.01.98.83,1.47,2.05,1.47,3.66v12.03h-2.3l.02-6.58h-2.51c-1.67,0-2.9-.44-3.68-1.33-.67-.8-1.04-1.89-1.1-3.29v-.83c.02-1.41.4-2.54,1.15-3.38.81-.86,2.02-1.29,3.63-1.29Zm0,1.89c-.81,0-1.44.23-1.89.69-.41.49-.62,1.19-.62,2.09v.76c.03.92.24,1.62.62,2.12.41.48,1.04.71,1.89.71h2.48v-3.59c0-.9-.21-1.6-.62-2.09-.41-.46-1.04-.69-1.86-.69Z"/>
</svg>