<?xml version="1.0" encoding="UTF-8"?>
<svg id="Layer_2" data-name="Layer 2" xmlns="http://www.w3.org/2000/svg" viewBox="0 0 812.41 44.29">
  <defs>
    <style>
      .cls-1 {
        fill: #2baf9f;
      }

      .cls-2 {
        fill: #ff9f1c;
      }
    </style>
  </defs>
  <g id="Layer_1-2" data-name="Layer 1">
    <rect class="cls-1" x="792.74" width="19.67" height="39.47" rx="3.47" ry="3.47"/>
    <g>
      <path class="cls-2" d="m54.62,14.86c3.87,0,5.8,1.96,5.8,5.88v1.92c0,3.9-1.93,5.85-5.8,5.85s-5.82-1.95-5.82-5.85v-1.92c0-3.92,1.94-5.88,5.82-5.88Zm-.73-1.72h-3.07v-3.33h3.07v3.33Zm.73,4.71c-1.42,0-2.13.82-2.13,2.47v2.76c0,1.65.71,2.47,2.13,2.47s2.11-.82,2.11-2.47v-2.76c0-1.65-.7-2.47-2.11-2.47Zm3.82-4.71h-3.07v-3.33h3.07v3.33Z"/>
      <path class="cls-2" d="m72.53,28.23h-1.92c-.21,0-.49-.02-.83-.05v.34c0,4.31-1.83,6.47-5.49,6.47-1.28,0-2.5-.29-3.67-.88l1.14-2.71c.76.33,1.48.49,2.16.49.83,0,1.42-.32,1.77-.96.26-.5.39-1.23.39-2.19v-13.62h3.69v10.01c.19.07.43.1.73.1h2.03v2.99Z"/>
      <path class="cls-2" d="m89.62,28.23h-2.24c-1.28,0-2.08-.36-2.39-1.07-.94.71-2.22,1.07-3.85,1.07h-9.1v-2.99h9.1c.66,0,1.17-.21,1.52-.62.35-.42.53-1.01.53-1.77v-2.31c0-.8-.19-1.4-.57-1.82-.35-.38-.84-.57-1.48-.57h-6.19v-1.14c0-.64.09-1.19.29-1.65.19-.46.55-1.01,1.07-1.65l3.33-4.03h4.11l-4.5,5.49h1.9c3.83,0,5.75,1.93,5.75,5.8v1.48c0,1.02-.13,1.9-.39,2.62.16.12.45.18.88.18h2.24v2.99Z"/>
      <path class="cls-2" d="m89.12,25.24h1.92c.64,0,1.14-.21,1.51-.64.36-.42.55-1.01.55-1.75v-7.7h3.69v7.28c0,1.06-.14,1.94-.42,2.65.19.11.47.16.83.16h2.26v2.99h-2.24c-1.26,0-2.06-.35-2.39-1.04-.95.69-2.22,1.04-3.8,1.04h-1.92v-2.99Zm6.92,8.24h-3.69v-3.38h3.69v3.38Z"/>
      <path class="cls-2" d="m117.38,28.23h-.81c-1.25,0-2.31-.22-3.17-.68-.95,1.18-2.5,1.77-4.63,1.77s-3.68-.59-4.65-1.77c-.85.45-1.92.68-3.22.68h-1.9v-2.99h1.9c.64,0,1.14-.21,1.51-.64.36-.42.55-1.01.55-1.75v-2.11c0-3.92,1.94-5.88,5.82-5.88s5.8,1.96,5.8,5.88v2.11c0,.76.2,1.36.6,1.79.36.4.84.6,1.43.6h.78v2.99Zm-6.5-4.37v-3.54c0-1.65-.7-2.47-2.11-2.47s-2.13.82-2.13,2.47v3.54c0,1.65.71,2.47,2.13,2.47s2.11-.82,2.11-2.47Z"/>
      <path class="cls-2" d="m124.53,9.66v12.77c0,3.87-1.92,5.8-5.75,5.8h-1.9v-2.99h1.9c.64,0,1.14-.21,1.51-.64.36-.42.55-1.01.55-1.75v-13.18h3.69Z"/>
      <path class="cls-2" d="m131.89,9.66v18.56h-3.69V9.66h3.69Z"/>
      <path class="cls-2" d="m152.17,14.27v8.58c0,.73.19,1.32.57,1.77.36.42.84.62,1.43.62h.81v2.99h-.83c-2.04,0-3.53-.55-4.45-1.66-.45.31-1.01.57-1.69.77s-1.32.3-1.92.3c-1.84,0-3.23-.54-4.19-1.61-.88-1.01-1.33-2.43-1.33-4.26v-1.02c0-2.01.62-3.54,1.85-4.6.99-.83,2.24-1.25,3.74-1.25h.18c.68,0,1.39.14,2.13.42v-1.04h3.69Zm-6.45-1.61h-3.07v-3.33h3.07v3.33Zm.65,5.2c-.68,0-1.2.21-1.56.64-.36.42-.55,1.04-.55,1.83v1.85c0,1.65.7,2.47,2.11,2.47.76,0,1.49-.28,2.18-.83-.05-.47-.08-.99-.08-1.56v-3.82c-.49-.38-1.19-.57-2.11-.57Zm3.9-5.2h-3.07v-3.33h3.07v3.33Z"/>
      <path class="cls-2" d="m162.13,9.66v12.77c0,3.87-1.92,5.8-5.75,5.8h-1.9v-2.99h1.9c.64,0,1.14-.21,1.51-.64.36-.42.55-1.01.55-1.75v-13.18h3.69Z"/>
      <path class="cls-2" d="m179.91,28.23h-2.73c-.12,4.51-2.2,6.76-6.24,6.76-1.66,0-3.25-.37-4.76-1.12l1.14-2.7c1.04.48,2.06.73,3.07.73,1.11,0,1.91-.27,2.39-.8.47-.5.7-1.28.7-2.31v-.55h-2.52c-1.7,0-3.02-.51-3.95-1.53-.94-1.01-1.4-2.45-1.4-4.34v-1.61c0-3.92,1.93-5.88,5.8-5.88,2.03,0,3.51.52,4.45,1.56.88.95,1.33,2.39,1.33,4.31v4.5h2.73v2.99Zm-10.61-7.9v2.45c0,1.65.7,2.47,2.11,2.47h2.08v-4.91c0-1.65-.69-2.47-2.08-2.47s-2.11.82-2.11,2.47Z"/>
      <path class="cls-2" d="m188.78,14.86c2.03,0,3.56.62,4.6,1.87.87,1.06,1.3,2.45,1.3,4.19,0,.73-.18,1.5-.53,2.33-.36.82-.8,1.49-1.34,1.99h4.21v2.99h-5.98c-.94,0-1.69-.16-2.26-.47-.59.31-1.35.47-2.29.47h-7.07v-2.99h5.3c-.54-.5-.98-1.16-1.34-1.99-.36-.82-.53-1.6-.53-2.33,0-1.99.56-3.53,1.69-4.6,1.04-.97,2.45-1.46,4.24-1.46Zm0,2.99c-.71,0-1.27.32-1.66.96-.33.5-.49,1.13-.49,1.87,0,1.91.72,3.33,2.16,4.26,1.42-.94,2.13-2.36,2.13-4.26,0-.87-.21-1.56-.62-2.08-.38-.5-.88-.75-1.51-.75Zm1.9-4.68h-3.69v-3.41h3.69v3.41Z"/>
      <path class="cls-2" d="m221.02,28.23h-1.79c-1.26,0-2.06-.35-2.39-1.04-.94.69-2.18,1.04-3.74,1.04h-16.54v-2.99h3.95v-15.57h3.69v8.58c.88-1.16,2.07-2.04,3.56-2.65,1.2-.49,2.44-.73,3.74-.73,2.58,0,4.51.86,5.8,2.57.99,1.33,1.48,3.01,1.48,5.02,0,.97-.14,1.85-.42,2.62.19.11.48.16.86.16h1.79v2.99Zm-16.82-2.99h8.87c.62,0,1.12-.22,1.5-.68.37-.45.56-1.05.56-1.79,0-1.54-.35-2.75-1.04-3.62-.68-.87-1.63-1.3-2.86-1.3-1.72,0-3.3.9-4.76,2.7-1.13,1.4-1.88,2.96-2.26,4.68Z"/>
      <path class="cls-2" d="m228.17,9.66v12.77c0,3.87-1.92,5.8-5.75,5.8h-1.9v-2.99h1.9c.64,0,1.14-.21,1.51-.64.36-.42.55-1.01.55-1.75v-13.18h3.69Z"/>
      <path class="cls-2" d="m235.53,9.66v18.56h-3.69V9.66h3.69Z"/>
      <path class="cls-2" d="m262.57,28.23h-.88c0,.87-.28,1.78-.83,2.73-.66,1.16-1.59,2.08-2.78,2.76-1.44.85-3.16,1.27-5.15,1.27-3.02,0-5.34-.9-6.97-2.7-1.35-1.51-2.03-3.43-2.03-5.77,0-2.01.49-3.74,1.46-5.2l2.6,1.77c-.43,1.02-.65,2.02-.65,2.99,0,1.94.56,3.42,1.69,4.42.97.88,2.28,1.33,3.93,1.33s2.96-.47,3.98-1.4c.73-.66,1.09-1.3,1.09-1.92,0-.17-.1-.26-.29-.26h-3.69v-2.99h8.53v2.99Zm-10.61,11.91h-3.07v-3.33h3.07v3.33Zm4.55,0h-3.07v-3.33h3.07v3.33Z"/>
      <path class="cls-2" d="m271.88,14.86c3.87,0,5.8,1.96,5.8,5.88v1.61c0,3.92-1.93,5.88-5.8,5.88h-9.8v-2.99h4.78c-.54-.76-.81-1.72-.81-2.88v-1.61c0-3.92,1.94-5.88,5.82-5.88Zm0,2.99c-1.42,0-2.13.82-2.13,2.47v2.45c0,1.65.71,2.47,2.13,2.47s2.11-.82,2.11-2.47v-2.45c0-1.65-.7-2.47-2.11-2.47Zm1.85-4.68h-3.69v-3.41h3.69v3.41Z"/>
      <path class="cls-2" d="m284.82,25.26l3.04-1.92c.42.68.94,1.17,1.59,1.48.64.31,1.46.47,2.47.47,1.94,0,2.91-.74,2.91-2.21,0-.76-.26-1.31-.78-1.64-.26-.17-.52-.3-.78-.38-.26-.08-1.03-.28-2.31-.61-2.05-.5-3.47-1.23-4.26-2.18-.69-.83-1.04-1.97-1.04-3.41,0-1.89.61-3.3,1.85-4.24,1.09-.83,2.58-1.25,4.47-1.25,2.95,0,5.01,1.01,6.19,3.02l-2.96,1.9c-.82-1.14-1.92-1.72-3.3-1.72-.81,0-1.43.2-1.85.6-.38.36-.57.85-.57,1.46,0,.75.29,1.32.86,1.72.49.35,1.36.68,2.63.99,1.2.29,2.02.53,2.48.7.46.17.92.41,1.39.7,1.21.82,1.82,2.19,1.82,4.13s-.5,3.25-1.51,4.13c-1.18,1.02-2.93,1.53-5.25,1.53-3.45,0-5.81-1.09-7.07-3.28Z"/>
      <path class="cls-2" d="m305.52,28.23v-15.31h-4.94v-3.25h13.86v3.25h-4.91v15.31h-4Z"/>
      <path class="cls-2" d="m317.27,28.23V9.66h11.73v3.25h-7.77v4.32h6.58v3.25h-6.58v4.5h7.88v3.25h-11.83Z"/>
      <path class="cls-2" d="m342.96,24.74h-6.5l-1.09,3.48h-4.32l6.71-18.56h3.87l6.73,18.56h-4.34l-1.07-3.48Zm-.96-3.17l-2.26-7.23-2.31,7.23h4.58Z"/>
      <path class="cls-2" d="m349.85,28.23V9.66h3.72l4.81,9.98,4.78-9.98h3.74v18.56h-3.85v-11.1l-3.41,7.05h-2.55l-3.43-7.05v11.1h-3.82Z"/>
      <path class="cls-2" d="m393.48,28.23h-.81c-1.27,0-2.33-.22-3.2-.68-.95,1.16-2.49,1.74-4.6,1.74s-3.7-.6-4.65-1.79c-.8.26-1.2.9-1.2,1.92v7.85h-3.69v-7.62c0-1.73.35-3.01,1.04-3.82.61-.71,1.52-1.16,2.73-1.35-.04-.45-.05-.8-.05-1.06v-2.68c0-3.92,1.94-5.88,5.82-5.88s5.8,1.96,5.8,5.88v2.11c0,.76.2,1.36.6,1.79.36.4.84.6,1.43.6h.78v2.99Zm-6.5-4.39v-3.51c0-1.65-.7-2.47-2.11-2.47s-2.13.82-2.13,2.47v3.51c0,1.65.71,2.47,2.13,2.47s2.11-.82,2.11-2.47Z"/>
      <path class="cls-2" d="m403.36,28.23h-2.24c-1.28,0-2.08-.36-2.39-1.07-.94.71-2.22,1.07-3.85,1.07h-1.9v-2.99h1.9c.64,0,1.14-.21,1.51-.64.36-.42.55-1.01.55-1.75v-13.18h3.69v12.77c0,1.02-.13,1.9-.39,2.62.16.12.45.18.88.18h2.24v2.99Z"/>
      <path class="cls-2" d="m412.67,14.86c2.03,0,3.61.59,4.73,1.77,1.04,1.09,1.59,2.62,1.64,4.58-1.37,1.01-2.32,2.35-2.86,4.03h5.07v2.99h-6.03c-1.04,0-1.89-.17-2.55-.52-.66.35-1.5.52-2.52.52h-7.28v-2.99h6.29c-.54-1.68-1.49-3.02-2.86-4.03.05-2.22.76-3.88,2.13-4.99,1.09-.9,2.5-1.35,4.24-1.35Zm0,2.99c-.76,0-1.4.27-1.9.8-.47.5-.75,1.19-.83,2.05.49.33.96.86,1.43,1.6s.85,1.55,1.14,2.43c.04.11.09.16.16.16s.11-.05.13-.16c.29-.88.68-1.69,1.14-2.43.47-.74.94-1.27,1.43-1.6-.09-1.02-.42-1.78-1.01-2.26-.45-.4-1.01-.6-1.69-.6Z"/>
      <path class="cls-2" d="m428.4,15.15v7.28c0,3.87-1.92,5.8-5.75,5.8h-1.9v-2.99h1.9c.64,0,1.14-.21,1.51-.64.36-.42.55-1.01.55-1.75v-7.7h3.69Zm-2.6-2.03h-3.07v-3.33h3.07v3.33Zm4.55,0h-3.07v-3.33h3.07v3.33Z"/>
      <path class="cls-2" d="m445.09,35.74c.78,0,1.5-.09,2.16-.27.66-.18,1.47-.52,2.44-1l1.2,2.68c-1.89,1.14-3.89,1.72-6.01,1.72-.55,0-.97-.02-1.25-.05-1.98-.19-3.61-.88-4.89-2.08-1.3-1.21-1.95-2.76-1.95-4.65,0-1.46.38-2.71,1.14-3.77.71-1,1.75-1.79,3.12-2.34,1.06-.4,2.44-.64,4.16-.73h2.39c-.23-.38-.38-.76-.47-1.13-.09-.37-.17-1.05-.26-2.04-.12-1.26-.39-2.25-.81-2.96-.23-.38-.55-.69-.97-.91-.43-.22-.87-.34-1.34-.34-.64,0-1.19.15-1.65.44-.46.29-.9.78-1.31,1.46l-2.78-1.56c.54-1.07,1.32-1.9,2.34-2.47.99-.57,2.13-.86,3.43-.86,2.36,0,4.17.8,5.43,2.39.36.47.63,1.01.81,1.62.17.62.35,1.62.52,3,.17,1.3.39,2.15.65,2.55.35.54.96.8,1.85.8h.23v2.99h-6.89c-1.42,0-2.51.12-3.28.37-.83.28-1.47.74-1.92,1.38-.42.59-.62,1.24-.62,1.95,0,1.07.4,1.97,1.2,2.7.64.57,1.37.91,2.18,1.01.49.07.87.1,1.14.1Zm2.78-2.31h-3.69v-3.38h3.69v3.38Z"/>
      <path class="cls-2" d="m474.31,28.23h-1.79c-1.27,0-2.06-.35-2.39-1.04-.97.69-2.23,1.04-3.77,1.04h-3.93c-1.02,0-1.86-.17-2.52-.52-.66.35-1.49.52-2.5.52h-4.65v-2.99h3.64c-.24-.29-.45-.67-.61-1.13-.17-.46-.25-.9-.25-1.31,0-1.37.33-2.48.99-3.33.57-.73,1.34-1.19,2.31-1.38l1.3-2.47c1.28-.5,2.7-.75,4.24-.75,2.44.02,4.38.83,5.82,2.44,1.25,1.4,1.87,3.18,1.87,5.33,0,.94-.13,1.76-.39,2.47.17.09.45.13.83.13h1.79v2.99Zm-14.4-3.15c.48-.12.87-.39,1.14-.82.28-.42.42-.95.42-1.57,0-.69-.14-1.24-.42-1.65-.28-.41-.66-.61-1.14-.61s-.87.2-1.14.61c-.28.41-.42.96-.42,1.65,0,.61.14,1.13.43,1.56.29.43.66.71,1.13.83Zm3.54.16h2.89c.62,0,1.12-.23,1.5-.69.37-.46.56-1.08.56-1.86,0-1.47-.45-2.66-1.35-3.56-.85-.83-1.99-1.26-3.41-1.27-.99,0-1.92.07-2.81.21,1.16.19,2.05.75,2.65,1.69.54.81.81,1.83.81,3.04,0,.45-.08.91-.23,1.37s-.36.82-.6,1.08Z"/>
      <path class="cls-2" d="m480.16,2.04c.83,0,1.47.28,1.92.83.33.42.49.91.49,1.48,0,.73-.19,1.29-.56,1.7-.37.41-1.09.81-2.14,1.21-1.54.59-2.74.99-3.59,1.2l-.65-1.33c1.3-.4,2.24-.74,2.81-1.01-.47-.36-.7-.93-.7-1.69,0-.69.23-1.27.68-1.72.45-.45,1.03-.68,1.74-.68Zm-.1,3.51c.23-.07.42-.23.6-.48.17-.25.26-.51.26-.77,0-.59-.24-.88-.73-.88-.22,0-.41.08-.55.25s-.21.39-.21.66c0,.59.21,1,.62,1.22Z"/>
      <path class="cls-2" d="m473.82,25.24h1.92c.64,0,1.14-.21,1.51-.64.36-.42.55-1.01.55-1.75v-7.7h3.69v7.28c0,1.06-.14,1.94-.42,2.65.19.11.47.16.83.16h2.26v2.99h-2.24c-1.27,0-2.06-.35-2.39-1.04-.95.69-2.22,1.04-3.8,1.04h-1.92v-2.99Zm7.67-12.09h-3.69v-3.41h3.69v3.41Z"/>
      <path class="cls-2" d="m491.34,9.66v12.77c0,3.87-1.92,5.8-5.75,5.8h-1.9v-2.99h1.9c.64,0,1.14-.21,1.51-.64.36-.42.55-1.01.55-1.75v-13.18h3.69Z"/>
      <path class="cls-2" d="m512.43,14.86c1.02,0,2.01.27,2.96.81.95.52,1.65,1.23,2.08,2.13l-2.81,1.51c-.62-.97-1.38-1.46-2.26-1.46-.75,0-1.35.34-1.82,1.01-.43.62-.65,1.46-.65,2.5.02,1.51.48,2.58,1.4,3.22.62.43,1.38.65,2.26.65h1.72c1.54,0,2.31.8,2.31,2.39,0,1.11-.3,2.19-.91,3.25-.68,1.21-1.64,2.18-2.89,2.89-1.44.81-3.14,1.22-5.1,1.22-3.02,0-5.34-.9-6.97-2.7-1.35-1.51-2.03-3.43-2.03-5.77,0-2.01.49-3.74,1.46-5.2l2.6,1.77c-.43,1.02-.65,2.02-.65,2.99,0,1.94.56,3.42,1.69,4.42.97.88,2.28,1.33,3.93,1.33s2.96-.47,3.98-1.4c.73-.68,1.09-1.32,1.09-1.92,0-.17-.09-.26-.29-.26h-1.12c-1.82,0-3.35-.73-4.58-2.18-1.08-1.27-1.61-2.76-1.61-4.5,0-2.08.61-3.74,1.82-4.99,1.13-1.13,2.58-1.69,4.37-1.69Zm-4.65,25.27h-3.07v-3.33h3.07v3.33Zm4.55,0h-3.07v-3.33h3.07v3.33Z"/>
      <path class="cls-2" d="m529.48,28.23h-1.92c-.21,0-.49-.02-.83-.05v.34c0,4.31-1.83,6.47-5.49,6.47-1.28,0-2.5-.29-3.67-.88l1.14-2.71c.76.33,1.48.49,2.16.49.83,0,1.42-.32,1.77-.96.26-.5.39-1.23.39-2.19v-13.62h3.69v10.01c.19.07.43.1.73.1h2.03v2.99Z"/>
      <path class="cls-2" d="m553.45,28.23h-1.79c-1.27,0-2.06-.35-2.39-1.04-.94.69-2.18,1.04-3.74,1.04h-16.54v-2.99h3.95v-15.57h3.69v8.58c.88-1.16,2.07-2.04,3.56-2.65,1.2-.49,2.44-.73,3.74-.73,2.58,0,4.51.86,5.8,2.57.99,1.33,1.48,3.01,1.48,5.02,0,.97-.14,1.85-.42,2.62.19.11.48.16.86.16h1.79v2.99Zm-16.82-2.99h8.87c.62,0,1.12-.22,1.5-.68.37-.45.56-1.05.56-1.79,0-1.54-.35-2.75-1.04-3.62-.68-.87-1.63-1.3-2.86-1.3-1.72,0-3.3.9-4.76,2.7-1.13,1.4-1.88,2.96-2.26,4.68Zm8.53-12.09h-3.69v-3.41h3.69v3.41Z"/>
      <path class="cls-2" d="m552.96,25.24h1.92c.64,0,1.14-.21,1.51-.64.36-.42.55-1.01.55-1.75v-7.7h3.69v7.28c0,1.06-.14,1.94-.42,2.65.19.11.47.16.83.16h2.26v2.99h-2.24c-1.27,0-2.06-.35-2.39-1.04-.95.69-2.22,1.04-3.8,1.04h-1.92v-2.99Zm7.67-12.09h-3.69v-3.41h3.69v3.41Z"/>
      <path class="cls-2" d="m570.49,9.66v12.77c0,3.87-1.92,5.8-5.75,5.8h-1.9v-2.99h1.9c.64,0,1.14-.21,1.51-.64.36-.42.55-1.01.55-1.75v-13.18h3.69Z"/>
      <path class="cls-2" d="m577.84,9.66v18.56h-3.69V9.66h3.69Z"/>
      <path class="cls-2" d="m592.56,15.12v13.39c0,4.31-1.83,6.47-5.49,6.47-1.28,0-2.5-.29-3.67-.88l1.14-2.71c.76.33,1.48.49,2.16.49.83,0,1.42-.32,1.77-.96.26-.5.39-1.23.39-2.19v-13.62h3.69Z"/>
      <path class="cls-2" d="m599.94,9.66v13.18c0,.76.2,1.36.6,1.79.36.4.84.6,1.43.6h.78v2.99h-.81c-3.8,0-5.69-1.93-5.69-5.8v-12.77h3.69Z"/>
      <path class="cls-2" d="m602.26,28.23v-2.99h3.95v-15.57h3.69v8.58c.88-1.16,2.07-2.04,3.56-2.65,1.2-.49,2.44-.73,3.74-.73,2.58,0,4.51.86,5.8,2.57.99,1.33,1.48,3.01,1.48,5.02,0,2.12-.61,3.66-1.82,4.63-.95.76-2.25,1.14-3.87,1.14h-16.54Zm7.64-2.99h8.87c.62,0,1.12-.22,1.5-.68.37-.45.56-1.05.56-1.79,0-1.54-.35-2.75-1.04-3.62-.68-.87-1.63-1.3-2.86-1.3-1.72,0-3.3.9-4.76,2.7-1.13,1.4-1.88,2.96-2.26,4.68Z"/>
      <path class="cls-2" d="m641.83,9.66v12.77c0,3.87-1.92,5.8-5.75,5.8h-8.87v-2.99h3.17v-11.67h3.69v11.67h2c.64,0,1.14-.21,1.51-.64.36-.42.55-1.01.55-1.75v-13.18h3.69Zm-6.94,25.58h-5.49v-1.61h.91c-.19-.36-.29-.77-.29-1.22,0-.64.24-1.2.73-1.66.47-.43,1.05-.65,1.74-.65.45,0,.88.12,1.27.36.4.24.68.55.83.94l-1.3.73s-.03-.04-.05-.08c-.19-.31-.42-.47-.7-.47-.49,0-.73.31-.73.94,0,.33.11.6.34.8.22.21.53.31.91.31h1.82v1.61Z"/>
      <path class="cls-2" d="m649.19,9.66v18.56h-3.69V9.66h3.69Z"/>
      <path class="cls-2" d="m658.05,18.32v-3.64h4v3.64h-4Zm0,9.91v-3.64h4v3.64h-4Z"/>
      <path class="cls-2" d="m681.82,9.66v17.11c0,2.6-.75,4.63-2.26,6.08-1.46,1.42-3.49,2.13-6.11,2.13-1.53,0-2.92-.35-4.19-1.04-1.23-.68-2.2-1.6-2.91-2.78-.73-1.23-1.09-2.6-1.09-4.11,0-1.33.2-2.63.61-3.89.41-1.26.97-2.34,1.68-3.26l2.57,1.74c-.97,1.51-1.46,3.17-1.46,4.99,0,1.66.54,2.99,1.61,3.98.88.8,1.95,1.2,3.2,1.2,1.49,0,2.66-.45,3.51-1.35.76-.81,1.14-1.91,1.14-3.28V9.66h3.69Z"/>
      <path class="cls-2" d="m691.13,14.86c2.03,0,3.51.52,4.45,1.56.88.95,1.33,2.39,1.33,4.31v7.1c0,4.77-2.08,7.15-6.24,7.15-1.66,0-3.25-.37-4.76-1.12l1.14-2.7c1.04.48,2.06.73,3.07.73,1.11,0,1.91-.27,2.39-.8.47-.5.7-1.28.7-2.31v-.78c-.78.35-1.62.52-2.52.52-1.7,0-3.02-.5-3.95-1.51-.94-1.02-1.4-2.47-1.4-4.34v-1.92c0-3.92,1.93-5.88,5.8-5.88Zm0,2.99c-1.4,0-2.11.82-2.11,2.47v2.76c0,1.65.7,2.47,2.11,2.47.78,0,1.47-.19,2.08-.57v-4.65c0-1.65-.69-2.47-2.08-2.47Z"/>
      <path class="cls-2" d="m714.71,9.66v12.77c0,3.87-1.92,5.8-5.75,5.8h-8.87v-2.99h3.17v-11.67h3.69v11.67h2c.64,0,1.14-.21,1.51-.64.36-.42.55-1.01.55-1.75v-13.18h3.69Zm-6.92,1.95h-5.49v-1.61h.91c-.19-.37-.29-.77-.29-1.22,0-.64.24-1.2.73-1.66.47-.43,1.05-.65,1.74-.65.43,0,.85.12,1.25.36.4.24.68.55.86.91l-1.3.75s-.04-.04-.05-.08c-.19-.31-.42-.47-.7-.47-.49,0-.73.31-.73.94,0,.33.11.59.34.79.22.2.53.31.91.33h1.82v1.61Z"/>
      <path class="cls-2" d="m722.07,9.66v18.56h-3.69V9.66h3.69Z"/>
      <path class="cls-2" d="m748.38,28.23h-.81c-1.27,0-2.33-.22-3.2-.68-.95,1.16-2.49,1.74-4.6,1.74s-3.7-.6-4.65-1.79c-.8.26-1.2.9-1.2,1.92v7.85h-3.69v-7.62c0-1.73.35-3.01,1.04-3.82.61-.71,1.52-1.16,2.73-1.35-.04-.45-.05-.8-.05-1.06v-2.68c0-3.92,1.94-5.88,5.82-5.88s5.8,1.96,5.8,5.88v2.11c0,.76.2,1.36.6,1.79.36.4.84.6,1.43.6h.78v2.99Zm-6.5-4.39v-3.51c0-1.65-.7-2.47-2.11-2.47s-2.13.82-2.13,2.47v3.51c0,1.65.71,2.47,2.13,2.47s2.11-.82,2.11-2.47Z"/>
      <path class="cls-2" d="m776.09,28.23h-3.25c-1.14,0-1.91-.29-2.29-.88-.95.8-2.29,1.2-4,1.2-1.58,0-2.84-.43-3.8-1.3-.92.85-2.25,1.28-4,1.28s-3.19-.46-4.11-1.38c-.9.73-2.13,1.09-3.69,1.09h-3.07v-2.99h3.07c.64,0,1.14-.21,1.51-.64.36-.42.55-1.01.55-1.75v-7.7h3.69v7.98c0,.8.19,1.4.57,1.82.36.4.86.6,1.48.6s1.14-.21,1.51-.64c.36-.42.55-1.02.55-1.78v-7.98h3.69v8.01c0,.8.19,1.4.57,1.82.35.38.84.57,1.48.57s1.17-.21,1.52-.62c.35-.42.53-1.01.53-1.77v-7.98h3.69v7.56c0,.88-.1,1.66-.31,2.34.19.11.47.16.83.16h3.28v2.99Z"/>
      <path class="cls-2" d="m784.96,14.86c2.03,0,3.56.62,4.6,1.87.87,1.06,1.3,2.45,1.3,4.19,0,.73-.18,1.5-.53,2.33-.36.82-.8,1.49-1.34,1.99h4.21v2.99h-5.98c-.94,0-1.69-.16-2.26-.47-.59.31-1.35.47-2.29.47h-7.07v-2.99h5.3c-.54-.5-.98-1.16-1.34-1.99-.36-.82-.53-1.6-.53-2.33,0-1.99.56-3.53,1.69-4.6,1.04-.97,2.45-1.46,4.24-1.46Zm-.88-1.79h-3.07v-3.33h3.07v3.33Zm.88,4.79c-.71,0-1.27.32-1.66.96-.33.5-.49,1.13-.49,1.87,0,1.91.72,3.33,2.16,4.26,1.42-.94,2.13-2.36,2.13-4.26,0-.87-.21-1.56-.62-2.08-.38-.5-.88-.75-1.51-.75Zm3.67-4.79h-3.07v-3.33h3.07v3.33Z"/>
      <path class="cls-2" d="m800.38,9.66v12.77c0,3.87-1.92,5.8-5.75,5.8h-1.9v-2.99h1.9c.64,0,1.14-.21,1.51-.64.36-.42.55-1.01.55-1.75v-13.18h3.69Z"/>
      <path class="cls-2" d="m807.74,9.66v18.56h-3.69V9.66h3.69Z"/>
    </g>
  </g>
</svg>