<?xml version="1.0" encoding="UTF-8"?>
<svg id="Layer_1" data-name="Layer 1" xmlns="http://www.w3.org/2000/svg" viewBox="0 0 455 100">
  <defs>
    <style>
      .cls-1 {
        fill: #333;
      }

      .cls-2 {
        fill: #ccc;
      }
    </style>
  </defs>
  <g>
    <path class="cls-2" d="m43.33,54.96l1.89-1.2c.72,1.16,2.02,1.75,3.89,1.75,1.17,0,2.04-.25,2.62-.76.51-.44.76-1.06.76-1.86,0-.86-.3-1.49-.9-1.88-.28-.2-.54-.34-.78-.43s-.96-.27-2.14-.56c-1.79-.46-3.04-1.09-3.75-1.88-.63-.72-.94-1.68-.94-2.88,0-1.55.52-2.73,1.56-3.54.9-.71,2.12-1.06,3.66-1.06,2.38,0,4.04.76,4.99,2.28l-1.84,1.2c-.69-.98-1.76-1.47-3.22-1.47-.92,0-1.63.25-2.14.74-.43.43-.64,1-.64,1.72,0,.81.3,1.44.9,1.89.52.38,1.4.73,2.64,1.06,1.1.28,1.85.48,2.23.62.38.14.77.35,1.17.62,1.06.71,1.59,1.88,1.59,3.52s-.56,2.86-1.68,3.66c-.98.71-2.35,1.06-4.09,1.06-2.81,0-4.73-.86-5.77-2.58Z"/>
    <path class="cls-2" d="m61.68,57.31v-14.4h-4.6v-2.02h11.66v2.02h-4.6v14.4h-2.46Z"/>
    <path class="cls-2" d="m71.94,57.31v-16.42h9.84v2.02h-7.41v5.08h6.3v2.02h-6.3v5.27h7.47v2.02h-9.91Z"/>
    <path class="cls-2" d="m94.68,53.88h-6.69l-1.15,3.43h-2.67l5.98-16.42h2.37l5.98,16.42h-2.67l-1.15-3.43Zm-.6-1.98l-2.74-8.03-2.76,8.03h5.5Z"/>
    <path class="cls-2" d="m100.53,57.31v-16.42h2.32l4.85,10.1,4.85-10.1h2.32v16.42h-2.37v-11.75l-4.03,8.33h-1.56l-4.02-8.33v11.75h-2.37Z"/>
    <path class="cls-2" d="m135.65,57.31h-.55c-1.64,0-2.85-.56-3.63-1.68-.43.32-.98.59-1.64.82s-1.29.33-1.85.33c-1.58,0-2.76-.47-3.54-1.4-.72-.84-1.08-2.06-1.08-3.66v-.9c0-1.79.47-3.12,1.43-3.98.77-.71,1.83-1.06,3.2-1.06.98,0,1.87.19,2.67.58v-1.06h2.28v7.36c0,.88.23,1.56.69,2.07.41.46.93.69,1.56.69h.48v1.88Zm-8.23-13.89h-1.93v-2.53h1.93v2.53Zm.71,11.48c.98,0,1.86-.35,2.64-1.06-.09-.4-.14-1.01-.14-1.84v-3.61c-.58-.49-1.41-.74-2.48-.74-1.67,0-2.51.98-2.51,2.95v1.36c0,1.96.83,2.95,2.48,2.95Zm2.76-11.48h-1.93v-2.53h1.93v2.53Z"/>
    <path class="cls-2" d="m143.72,57.31h-2.51c-.94,0-1.53-.25-1.79-.76-.74.51-1.69.76-2.85.76h-1.33v-1.88h1.33c.78,0,1.38-.29,1.79-.85.35-.47.53-1.11.53-1.91v-6.65h2.28v6.42c0,1.16-.25,2.08-.74,2.76.14.15.4.23.78.23h2.51v1.88Zm-1.61-13.62h-4.16v-1.13h.74c-.18-.29-.28-.63-.28-1.01,0-.51.18-.93.54-1.28.36-.35.81-.52,1.34-.52.34,0,.66.09.98.27.31.18.53.4.66.68l-.92.55-.05-.07c-.17-.26-.39-.39-.67-.39-.43,0-.64.28-.64.83,0,.28.1.5.29.67.19.17.45.26.77.28h1.4v1.13Z"/>
    <path class="cls-2" d="m151.79,57.31h-2.51c-.94,0-1.53-.25-1.79-.76-.74.51-1.69.76-2.85.76h-1.33v-1.88h1.33c.78,0,1.38-.29,1.79-.85.35-.47.53-1.11.53-1.91v-6.65h2.28v6.42c0,1.16-.25,2.08-.74,2.76.14.15.4.23.78.23h2.51v1.88Zm-6.16,4.76h-1.93v-2.53h1.93v2.53Zm3.47,0h-1.93v-2.53h1.93v2.53Z"/>
    <path class="cls-2" d="m157.31,46.02v6.42c0,1.72-.46,2.99-1.38,3.82-.78.71-1.86,1.06-3.22,1.06h-1.33v-1.88h1.33c.78,0,1.38-.29,1.79-.85.35-.47.53-1.11.53-1.91v-6.65h2.28Zm-1.61,16.05h-2.28v-2.58h2.28v2.58Z"/>
    <path class="cls-2" d="m180.47,55.43v1.88h-.55c-1.2-.01-2.16-.32-2.9-.92-.75,1.24-2.11,1.86-4.07,1.86s-3.28-.6-4.05-1.79c-1.09.14-1.63.77-1.63,1.91v6.95h-2.28v-6.74c0-1.41.31-2.43.94-3.06.51-.51,1.28-.81,2.32-.92-.08-.46-.12-.93-.12-1.4v-2.37c0-3.37,1.6-5.06,4.81-5.06s4.78,1.69,4.78,5.06v1.84c0,.94.25,1.66.76,2.16.43.4.93.6,1.5.6h.48Zm-5.01-2v-2.83c0-1.96-.84-2.95-2.51-2.95s-2.51.98-2.51,2.95v2.83c0,1.96.83,2.94,2.51,2.94s2.51-.98,2.51-2.94Z"/>
    <path class="cls-2" d="m188.55,57.31h-2.51c-.94,0-1.53-.25-1.79-.76-.74.51-1.69.76-2.85.76h-1.33v-1.88h1.33c.78,0,1.38-.29,1.79-.85.35-.47.53-1.11.53-1.91v-6.65h2.28v6.42c0,1.16-.25,2.08-.74,2.76.14.15.4.23.78.23h2.51v1.88Zm-6.16,4.76h-1.93v-2.53h1.93v2.53Zm3.47,0h-1.93v-2.53h1.93v2.53Z"/>
    <path class="cls-2" d="m204.09,55.43v1.88h-.55c-1.17-.01-2.12-.31-2.88-.9-.75,1.23-2.11,1.84-4.07,1.84s-3.33-.61-4.09-1.84c-.77.6-1.78.9-3.04.9h-1.33v-1.88h1.33c.78,0,1.38-.29,1.79-.85.35-.47.53-1.11.53-1.91v-1.84c0-3.37,1.6-5.06,4.81-5.06s4.78,1.69,4.78,5.06v2.3c.06.71.31,1.27.74,1.7.43.4.93.6,1.49.6h.48Zm-5.01-1.98v-2.85c0-1.96-.84-2.95-2.51-2.95s-2.51.98-2.51,2.95v2.85c0,1.95.84,2.92,2.51,2.92s2.51-.97,2.51-2.92Z"/>
    <path class="cls-2" d="m224.79,55.43v1.88h-2.09c-.94,0-1.53-.25-1.79-.76-.75.51-1.69.76-2.83.76h-8.46v1.68h-2.28v-1.68h-3.66v-1.88h3.66v-9.41h2.3v3.7c.74-1.36,1.79-2.4,3.15-3.11,1.1-.57,2.31-.85,3.61-.85,1.7,0,3.1.47,4.19,1.4.98.84,1.62,1.98,1.91,3.4.12.55.18,1.23.18,2.05,0,1.06-.21,1.96-.62,2.69.15.08.36.12.62.12h2.12Zm-15.18,0h8.44c.78,0,1.38-.29,1.79-.88.35-.49.53-1.13.53-1.93,0-1.56-.38-2.8-1.15-3.7-.72-.84-1.7-1.27-2.94-1.27-1.81,0-3.38.94-4.71,2.83-1.04,1.47-1.69,3.12-1.96,4.95Z"/>
    <path class="cls-2" d="m230.31,46.02v6.42c0,1.72-.46,2.99-1.38,3.82-.78.71-1.86,1.06-3.22,1.06h-1.33v-1.88h1.33c.78,0,1.38-.29,1.79-.85.35-.47.53-1.11.53-1.91v-6.65h2.28Zm-1.93-2.35h-1.93v-2.53h1.93v2.53Zm3.47,0h-1.93v-2.53h1.93v2.53Z"/>
    <path class="cls-2" d="m255.09,46.02v6.42c0,1.72-.46,2.99-1.38,3.82-.78.71-1.86,1.06-3.24,1.06h-7.25c-1.76,0-3.14-.6-4.12-1.79-.77-.94-1.15-2.05-1.15-3.34,0-1,.13-1.88.39-2.67.29-.87.74-1.65,1.36-2.32l1.61,1.1c-.41.47-.74,1.07-.99,1.77-.21.58-.32,1.21-.32,1.88,0,.98.34,1.81,1.04,2.48.67.66,1.56.99,2.64.99h6.79c.78,0,1.38-.29,1.79-.85.35-.47.53-1.11.53-1.91v-6.65h2.3Zm-8.76-1.45h-1.93v-2.53h1.93v2.53Zm3.47,0h-1.93v-2.53h1.93v2.53Z"/>
    <path class="cls-2" d="m261.11,40.89v11.78c0,.94.25,1.66.76,2.16.43.4.93.6,1.5.6h.48v1.88h-.55c-1.36-.01-2.44-.41-3.22-1.2-.83-.83-1.24-2.05-1.24-3.68v-11.55h2.28Z"/>
    <path class="cls-2" d="m271.92,57.31h-2.51c-.94,0-1.53-.25-1.79-.76-.74.51-1.69.76-2.85.76h-1.33v-1.88h1.33c.78,0,1.38-.29,1.79-.85.35-.47.53-1.11.53-1.91v-6.65h2.28v6.42c0,1.16-.25,2.08-.74,2.76.14.15.4.23.78.23h2.51v1.88Zm-6.16,4.76h-1.93v-2.53h1.93v2.53Zm3.47,0h-1.93v-2.53h1.93v2.53Z"/>
    <path class="cls-2" d="m278.73,45.77c2.05,0,3.58.73,4.58,2.18.37.49.64,1.21.8,2.16.02.12.06.43.14.92.15,1.17.29,1.97.41,2.42.12.6.28,1.04.48,1.33.35.43.84.64,1.45.64h.51v1.88h-15.59v-1.88h11.45c-.37-.43-.62-1.17-.76-2.23-.06-.29-.12-.77-.18-1.45-.03-.29-.05-.52-.07-.69-.11-.84-.31-1.52-.62-2.02-.25-.43-.6-.77-1.06-1.01-.46-.25-.98-.37-1.56-.37-1.09,0-2.03.55-2.83,1.66l-1.75-.99c.47-.81,1.11-1.44,1.91-1.89.8-.44,1.69-.67,2.69-.67Zm1.06,16.31h-2.28v-2.58h2.28v2.58Z"/>
    <path class="cls-2" d="m295.17,57.31h-2.51c-.94,0-1.53-.25-1.79-.76-.74.51-1.69.76-2.85.76h-1.33v-1.88h1.33c.78,0,1.38-.29,1.79-.85.35-.47.53-1.11.53-1.91v-6.65h2.28v6.42c0,1.16-.25,2.08-.74,2.76.14.15.4.23.78.23h2.51v1.88Zm-6.16,4.76h-1.93v-2.53h1.93v2.53Zm3.47,0h-1.93v-2.53h1.93v2.53Z"/>
    <path class="cls-2" d="m300.69,46.02v6.42c0,1.72-.46,2.99-1.38,3.82-.78.71-1.86,1.06-3.22,1.06h-1.33v-1.88h1.33c.78,0,1.38-.29,1.79-.85.35-.47.53-1.11.53-1.91v-6.65h2.28Zm-1.93-2.35h-1.93v-2.53h1.93v2.53Zm3.47,0h-1.93v-2.53h1.93v2.53Z"/>
    <path class="cls-2" d="m306.97,40.89v16.42h-2.28v-16.42h2.28Z"/>
    <path class="cls-2" d="m317.62,55.43v1.88h-1.84c-.26,0-.5-.02-.71-.07-.02,1.13-.09,2.03-.23,2.68-.14.65-.38,1.25-.71,1.78-.72,1.06-1.86,1.59-3.4,1.59-1.09,0-2.05-.21-2.9-.64l.71-1.72c.57.29,1.18.44,1.84.44.97,0,1.63-.38,2-1.13.28-.51.41-1.44.41-2.81v-11.41h2.28v9.29c.15.08.37.12.64.12h1.91Z"/>
    <path class="cls-2" d="m325.7,57.31h-2.51c-.94,0-1.53-.25-1.79-.76-.74.51-1.69.76-2.85.76h-1.33v-1.88h1.33c.78,0,1.38-.29,1.79-.85.35-.47.53-1.11.53-1.91v-6.65h2.28v6.42c0,1.16-.25,2.08-.74,2.76.14.15.4.23.78.23h2.51v1.88Zm-4.46-13.64h-1.93v-2.53h1.93v2.53Zm3.47,0h-1.93v-2.53h1.93v2.53Z"/>
    <path class="cls-2" d="m346.35,46.04v6.65c0,1.72-.46,2.99-1.38,3.82-.78.71-1.86,1.06-3.24,1.06-1.55,0-2.68-.52-3.4-1.56-.72,1.03-1.89,1.54-3.52,1.54s-2.91-.55-3.61-1.66c-.74.95-1.85,1.43-3.33,1.43h-2.58v-1.88h2.58c.78,0,1.38-.29,1.79-.85.35-.47.53-1.11.53-1.91v-6.65h2.3v6.9c0,.92.22,1.62.67,2.09.4.43.95.64,1.66.64.8,0,1.4-.28,1.82-.83.34-.47.51-1.11.51-1.91v-6.9h2.28v6.9c0,.92.22,1.62.67,2.12.4.43.95.64,1.66.64.8,0,1.4-.28,1.82-.85.34-.47.51-1.11.51-1.91v-6.88h2.3Z"/>
    <path class="cls-2" d="m353.32,63.47h-4.16v-1.15h.74c-.18-.28-.28-.61-.28-.99,0-.52.18-.96.54-1.3.36-.35.81-.52,1.35-.52.34,0,.66.09.97.28s.53.41.67.69l-.92.53-.05-.07c-.17-.25-.39-.37-.67-.37-.43,0-.64.27-.64.81,0,.28.1.5.3.68.2.18.45.26.76.26h1.4v1.15Zm-.94-22.59v16.42h-2.28v-16.42h2.28Z"/>
  </g>
  <circle class="cls-2" cx="404.34" cy="50" r="32.51"/>
  <g>
    <path class="cls-1" d="m397.31,40.59c1,0,1.87.21,2.62.62.67.38,1.2.91,1.56,1.59l-1.77.96c-.61-.86-1.4-1.29-2.37-1.29-.81,0-1.47.27-1.98.8-.46.51-.69,1.16-.69,1.96,0,.84.32,1.51.97,2,.51.4,1.09.6,1.75.6h3.01v1.86h-3.36c-.8,0-1.47.28-2.02.83-.52.54-.79,1.21-.8,2.03,0,1,.31,1.79.94,2.37.54.49,1.19.73,1.96.73,1.15,0,2.02-.42,2.6-1.26l1.77.96c-.38.74-1,1.3-1.84,1.68-.74.34-1.58.51-2.53.51-1.61,0-2.9-.48-3.86-1.45-.86-.84-1.29-1.93-1.29-3.27.03-1.84.83-3.17,2.42-4-1.3-.84-1.96-2.03-1.96-3.56,0-1.4.47-2.53,1.4-3.4.87-.83,2.03-1.25,3.47-1.27Z"/>
    <path class="cls-1" d="m411.51,57.31h-2.55l-5.24-16.42h2.39l4.12,12.79,4.16-12.79h2.37l-5.24,16.42Z"/>
  </g>
</svg>