<?xml version="1.0" encoding="UTF-8"?>
<svg id="Layer_1" data-name="Layer 1" xmlns="http://www.w3.org/2000/svg" viewBox="0 0 387 100">
  <defs>
    <style>
      .cls-1 {
        fill: #333;
      }

      .cls-2 {
        fill: #ccc;
      }
    </style>
  </defs>
  <g>
    <path class="cls-2" d="m55.53,57.31h-.55c-1.64,0-2.85-.56-3.63-1.68-.43.32-.98.59-1.64.82s-1.29.33-1.85.33c-1.58,0-2.76-.47-3.54-1.4-.72-.84-1.08-2.06-1.08-3.66v-.9c0-1.79.47-3.12,1.43-3.98.77-.71,1.83-1.06,3.2-1.06.98,0,1.87.19,2.67.58v-1.06h2.28v7.36c0,.87.23,1.56.69,2.07.41.46.93.69,1.56.69h.48v1.89Zm-8.23-13.89h-1.93v-2.53h1.93v2.53Zm.71,11.48c.98,0,1.86-.35,2.64-1.06-.09-.4-.14-1.01-.14-1.84v-3.61c-.58-.49-1.41-.74-2.48-.74-1.67,0-2.51.98-2.51,2.94v1.36c0,1.96.83,2.94,2.48,2.94Zm2.76-11.48h-1.93v-2.53h1.93v2.53Z"/>
    <path class="cls-2" d="m76.23,55.42v1.89h-2.09c-.94,0-1.53-.25-1.79-.76-.75.51-1.69.76-2.83.76h-14.4v-1.89h3.66v-14.54h2.3v8.83c.74-1.36,1.79-2.4,3.15-3.11,1.1-.57,2.31-.85,3.61-.85,1.7,0,3.1.47,4.19,1.4.98.84,1.62,1.98,1.91,3.4.12.55.18,1.23.18,2.05,0,1.06-.21,1.96-.62,2.69.15.08.36.12.62.12h2.12Zm-15.18,0h8.44c.78,0,1.38-.29,1.79-.87.35-.49.53-1.13.53-1.93,0-1.56-.38-2.8-1.15-3.7-.72-.84-1.7-1.27-2.94-1.27-1.81,0-3.38.94-4.71,2.83-1.04,1.47-1.69,3.12-1.96,4.95Z"/>
    <path class="cls-2" d="m100.38,55.42v1.89h-3.36c-.86,0-1.43-.21-1.7-.64-.75.6-1.77.9-3.06.9-1.55,0-2.68-.52-3.4-1.56-.72,1.03-1.89,1.54-3.52,1.54s-2.91-.55-3.61-1.66c-.74.95-1.85,1.43-3.33,1.43h-2.58v-1.89h2.58c.78,0,1.38-.28,1.79-.85.35-.47.53-1.11.53-1.91v-6.65h2.3v6.9c0,.92.22,1.62.67,2.09.4.43.95.64,1.66.64.8,0,1.4-.28,1.82-.83.34-.47.51-1.11.51-1.91v-6.9h2.28v6.9c0,.92.22,1.62.67,2.12.4.43.95.64,1.66.64.8,0,1.4-.28,1.82-.85.34-.47.51-1.11.51-1.91v-6.88h2.3v6.65c0,1-.17,1.87-.51,2.62.15.08.37.12.64.12h3.36Zm-12.31-11.75h-1.93v-2.53h1.93v2.53Zm1.68-3.59h-1.79v-2.25h1.79v2.25Zm-.14,1.06h1.93v2.53h-1.93v-2.53Z"/>
    <path class="cls-2" d="m105.9,46.02v6.42c0,1.72-.46,2.99-1.38,3.82-.78.71-1.86,1.06-3.22,1.06h-1.33v-1.89h1.33c.78,0,1.38-.28,1.79-.85.35-.47.53-1.11.53-1.91v-6.65h2.28Zm0-2.32h-2.28v-2.58h2.28v2.58Z"/>
    <path class="cls-2" d="m121.28,40.89v11.55c0,3.25-1.53,4.88-4.6,4.88h-7.64v-1.89h3.06v-11.11h2.28v11.11h2.3c.78,0,1.38-.28,1.79-.85.35-.47.53-1.11.53-1.91v-11.78h2.28Zm-6,1.1h-4.16v-1.13h.74c-.18-.29-.28-.63-.28-1.01,0-.51.18-.93.54-1.28.36-.34.81-.52,1.34-.52.34,0,.66.09.98.26.31.18.53.4.66.68l-.92.55-.05-.07c-.17-.26-.39-.39-.67-.39-.43,0-.64.28-.64.83,0,.28.1.5.29.67s.45.26.77.28h1.4v1.13Z"/>
    <path class="cls-2" d="m127.33,40.89v16.42h-2.28v-16.42h2.28Z"/>
    <path class="cls-2" d="m150.56,57.31h-.78c0,.78-.24,1.6-.71,2.46-.55,1.01-1.33,1.82-2.35,2.42-1.2.74-2.63,1.1-4.3,1.1-2.44,0-4.34-.75-5.7-2.25-1.17-1.29-1.75-2.95-1.75-4.99,0-1.66.39-3.13,1.17-4.42l1.66,1.13c-.46.98-.69,1.99-.69,3.01,0,1.87.55,3.3,1.66,4.28.93.84,2.16,1.26,3.68,1.26,1.69,0,3.02-.54,4-1.61.69-.74,1.04-1.45,1.04-2.14,0-.17-.09-.25-.28-.25h-3.2v-1.89h6.55v1.89Zm-8.9,10.63h-1.93v-2.53h1.93v2.53Zm3.47,0h-1.93v-2.53h1.93v2.53Z"/>
    <path class="cls-2" d="m158.63,45.76c3.17,0,4.76,1.69,4.76,5.06v1.45c0,3.36-1.59,5.04-4.76,5.04h-8.49v-1.89h4.74c-.71-.67-1.06-1.73-1.06-3.15v-1.45c0-1.85.47-3.2,1.4-4.02.78-.69,1.92-1.04,3.4-1.04Zm-.02,1.89c-1.67,0-2.51.98-2.51,2.94v1.89c0,1.96.84,2.94,2.51,2.94s2.51-.98,2.51-2.94v-1.89c0-1.96-.84-2.94-2.51-2.94Zm1.13-3.96h-2.28v-2.58h2.28v2.58Z"/>
    <path class="cls-2" d="m186.35,55.42v1.89h-.55c-1.2-.01-2.16-.32-2.9-.92-.75,1.24-2.11,1.86-4.07,1.86s-3.28-.6-4.05-1.79c-1.09.14-1.63.77-1.63,1.91v6.95h-2.28v-6.74c0-1.41.31-2.43.94-3.06.51-.51,1.28-.81,2.32-.92-.08-.46-.12-.93-.12-1.4v-2.37c0-3.37,1.6-5.06,4.81-5.06s4.78,1.69,4.78,5.06v1.84c0,.94.25,1.66.76,2.16.43.4.93.6,1.5.6h.48Zm-5.01-2v-2.83c0-1.96-.84-2.94-2.51-2.94s-2.51.98-2.51,2.94v2.83c0,1.96.83,2.94,2.51,2.94s2.51-.98,2.51-2.94Z"/>
    <path class="cls-2" d="m194.42,55.42v1.89h-2.48c-.95,0-1.55-.26-1.79-.78-.75.52-1.71.78-2.88.78h-1.33v-1.89h1.33c.78,0,1.38-.28,1.79-.85.35-.47.53-1.11.53-1.91v-11.78h2.28v11.55c0,1.17-.21,2.12-.62,2.85.15.09.38.14.67.14h2.51Z"/>
    <path class="cls-2" d="m202.52,45.76c1.67,0,2.99.52,3.96,1.56.87.95,1.33,2.25,1.38,3.91-1.52,1.12-2.57,2.52-3.15,4.19h5.17v1.89h-5.57c-.78,0-1.39-.13-1.82-.39-.43.26-1.03.39-1.79.39h-6.69v-1.89h6.33c-.61-1.67-1.66-3.07-3.15-4.19.05-1.87.64-3.3,1.77-4.28.93-.8,2.12-1.2,3.56-1.2Zm0,1.91c-.84,0-1.55.29-2.12.87-.55.57-.87,1.33-.94,2.28,1.27.92,2.25,2.33,2.94,4.23.03.06.07.09.12.09.06,0,.1-.03.12-.09.69-1.92,1.67-3.33,2.94-4.23-.09-1.09-.48-1.92-1.15-2.48-.54-.44-1.17-.67-1.91-.67Z"/>
    <path class="cls-2" d="m217.95,57.31h-2.51c-.94,0-1.53-.25-1.79-.76-.74.51-1.69.76-2.85.76h-1.33v-1.89h1.33c.78,0,1.38-.28,1.79-.85.35-.47.53-1.11.53-1.91v-6.65h2.28v6.42c0,1.17-.25,2.08-.74,2.76.14.15.4.23.78.23h2.51v1.89Zm-4.46-13.64h-1.93v-2.53h1.93v2.53Zm3.47,0h-1.93v-2.53h1.93v2.53Z"/>
    <path class="cls-2" d="m223.47,40.89v11.55c0,1.72-.46,2.99-1.38,3.82-.78.71-1.86,1.06-3.22,1.06h-1.33v-1.89h1.33c.78,0,1.38-.28,1.79-.85.35-.47.53-1.11.53-1.91v-11.78h2.28Z"/>
    <path class="cls-2" d="m229.52,40.89v16.42h-2.28v-16.42h2.28Z"/>
    <path class="cls-2" d="m243.04,45.76c2.05,0,3.58.73,4.58,2.18.37.51.63,1.23.78,2.16.03.23.09.62.18,1.17.14,1.06.27,1.78.39,2.16.12.67.31,1.15.55,1.43.32.37.8.55,1.45.55h.44v1.89h-6.49c-1.13,0-2.06.11-2.78.32-.83.28-1.47.74-1.93,1.38-.41.58-.62,1.23-.62,1.96,0,1.1.41,2.01,1.24,2.71.61.55,1.33.88,2.16.99.43.06.77.09,1.04.09,1.3,0,2.69-.38,4.16-1.15l.76,1.7c-1.55.94-3.24,1.4-5.06,1.4-.44,0-.76-.02-.94-.05-1.66-.15-3.01-.73-4.07-1.73-1.07-1.01-1.61-2.3-1.61-3.86,0-1.21.31-2.25.94-3.13.6-.86,1.46-1.51,2.6-1.95.86-.34,2.01-.53,3.45-.58h3.01c-.35-.4-.61-1.14-.78-2.23-.05-.28-.09-.71-.14-1.31-.03-.35-.06-.63-.09-.83-.14-.87-.34-1.55-.62-2.02-.25-.43-.6-.77-1.06-1.01s-.98-.37-1.56-.37c-1.09,0-2.03.55-2.83,1.66l-1.75-.99c.47-.81,1.11-1.44,1.91-1.89.8-.44,1.69-.67,2.69-.67Zm2.92,16.28h-2.28v-2.58h2.28v2.58Z"/>
    <path class="cls-2" d="m256.94,46.02v6.42c0,1.72-.46,2.99-1.38,3.82-.78.71-1.86,1.06-3.22,1.06h-1.33v-1.89h1.33c.78,0,1.38-.28,1.79-.85.35-.47.53-1.11.53-1.91v-6.65h2.28Zm-1.93-2.35h-1.93v-2.53h1.93v2.53Zm3.47,0h-1.93v-2.53h1.93v2.53Z"/>
    <path class="cls-2" d="m263.22,40.89v16.42h-2.28v-16.42h2.28Z"/>
    <path class="cls-2" d="m271.54,45.76c1.7,0,2.94.46,3.7,1.38.71.83,1.06,2.05,1.06,3.68v4.6h2.55v1.89h-2.55v.58c-.02,1.9-.54,3.31-1.56,4.23-.86.78-2.05,1.17-3.56,1.17-1.35,0-2.65-.31-3.89-.92l.76-1.72c.95.48,1.9.71,2.85.71,2.08,0,3.13-1.1,3.13-3.31v-.74h-2.71c-1.49,0-2.62-.43-3.4-1.29-.77-.84-1.15-2.09-1.15-3.75v-1.45c0-3.37,1.59-5.06,4.78-5.06Zm.02,1.89c-1.67,0-2.51.98-2.51,2.94v1.89c0,1.96.84,2.94,2.51,2.94h2.48v-4.83c0-1.06-.22-1.83-.67-2.3-.4-.43-1-.64-1.82-.64Z"/>
    <path class="cls-2" d="m284.38,46.02v6.42c0,1.72-.46,2.99-1.38,3.82-.78.71-1.86,1.06-3.22,1.06h-1.33v-1.89h1.33c.78,0,1.38-.28,1.79-.85.35-.47.53-1.11.53-1.91v-6.65h2.28Zm0-2.32h-2.28v-2.58h2.28v2.58Z"/>
  </g>
  <circle class="cls-2" cx="336.34" cy="50" r="32.51"/>
  <g>
    <path class="cls-1" d="m329.31,40.59c1,0,1.87.21,2.62.62.67.38,1.2.91,1.56,1.59l-1.77.97c-.61-.86-1.4-1.29-2.37-1.29-.81,0-1.47.27-1.98.8-.46.51-.69,1.16-.69,1.96,0,.84.32,1.51.97,2,.51.4,1.09.6,1.75.6h3.01v1.86h-3.36c-.8,0-1.47.28-2.02.83-.52.54-.79,1.21-.8,2.02,0,1,.31,1.79.94,2.37.54.49,1.19.74,1.96.74,1.15,0,2.02-.42,2.6-1.26l1.77.97c-.38.74-1,1.3-1.84,1.68-.74.34-1.58.51-2.53.51-1.61,0-2.9-.48-3.86-1.45-.86-.84-1.29-1.93-1.29-3.27.03-1.84.83-3.17,2.42-4-1.3-.84-1.96-2.03-1.96-3.56,0-1.4.47-2.53,1.4-3.4.87-.83,2.03-1.25,3.47-1.26Z"/>
    <path class="cls-1" d="m346.38,57.31l-4.16-12.79-4.12,12.79h-2.39l5.24-16.42h2.55l5.24,16.42h-2.37Z"/>
  </g>
</svg>