<?xml version="1.0" encoding="UTF-8"?>
<svg id="Layer_1" data-name="Layer 1" xmlns="http://www.w3.org/2000/svg" xmlns:xlink="http://www.w3.org/1999/xlink" viewBox="0 0 217 100">
  <defs>
    <style>
      .cls-1 {
        filter: url(#drop-shadow-10);
      }

      .cls-2 {
        fill: #fff;
      }

      .cls-3 {
        fill: #333;
      }

      .cls-4 {
        fill: #ffaa45;
      }
    </style>
    <filter id="drop-shadow-10" filterUnits="userSpaceOnUse">
      <feOffset dx="-1" dy="2"/>
      <feGaussianBlur result="blur" stdDeviation="0"/>
      <feFlood flood-color="#000" flood-opacity=".25"/>
      <feComposite in2="blur" operator="in"/>
      <feComposite in="SourceGraphic"/>
    </filter>
  </defs>
  <g>
    <rect class="cls-4" x="3.44" y="3.44" width="209.76" height="93.12" rx="46.56" ry="46.56"/>
    <g>
      <g class="cls-1">
        <path class="cls-2" d="m49.01,45.77c1.67,0,2.99.52,3.96,1.56.87.95,1.33,2.25,1.38,3.91-1.5,1.12-2.56,2.52-3.17,4.19h5.2v1.89h-5.75c-.72,0-1.28-.12-1.68-.37-.25.23-.67.44-1.27.62-.35.12-.73.29-1.13.51-.58.28-1.04.67-1.36,1.18-.32.51-.48,1.08-.48,1.71,0,1.1.41,2.01,1.24,2.71.61.55,1.33.88,2.16.99.43.06.77.09,1.04.09,1.3,0,2.69-.38,4.16-1.15l.76,1.7c-1.55.94-3.24,1.4-5.06,1.4-.44,0-.76-.02-.94-.05-1.66-.15-3.01-.73-4.07-1.73-1.07-1.01-1.61-2.3-1.61-3.86,0-2.1.91-3.64,2.71-4.62.4-.21.84-.39,1.31-.53.25-.05.44-.1.58-.16-.23-.57-.43-1-.6-1.29-.78-1.39-1.69-2.48-2.74-3.24.05-1.89.64-3.31,1.77-4.28.94-.8,2.13-1.2,3.59-1.2Zm-.02,1.91c-.84,0-1.55.29-2.12.87-.55.57-.87,1.33-.94,2.28,1.27.92,2.25,2.33,2.94,4.23.03.06.07.09.12.09.06,0,.1-.03.12-.09.69-1.92,1.67-3.33,2.94-4.23-.09-1.09-.48-1.92-1.15-2.48-.54-.44-1.17-.67-1.91-.67Z"/>
        <path class="cls-2" d="m63.18,45.77c2.05,0,3.58.73,4.58,2.18.37.49.64,1.21.8,2.16.02.12.06.43.14.92.15,1.17.29,1.97.41,2.42.12.66.31,1.13.55,1.4.29.38.78.58,1.47.58h.05v1.89h-15.23v-1.89h11.45c-.37-.43-.62-1.17-.76-2.23-.06-.29-.12-.77-.18-1.45-.03-.29-.05-.52-.07-.69-.11-.84-.31-1.52-.62-2.02-.25-.43-.6-.77-1.06-1.01s-.98-.37-1.56-.37c-1.09,0-2.03.55-2.83,1.66l-1.75-.99c.47-.81,1.11-1.44,1.91-1.89.8-.44,1.69-.67,2.69-.67Zm1.06,16.31h-2.28v-2.58h2.28v2.58Z"/>
        <path class="cls-2" d="m76.61,40.89v16.42h-2.28v-16.42h2.28Z"/>
        <path class="cls-2" d="m87.26,55.43v1.89h-1.84c-.26,0-.5-.02-.71-.07-.02,1.13-.09,2.03-.23,2.68-.14.65-.38,1.25-.71,1.78-.72,1.06-1.86,1.59-3.4,1.59-1.09,0-2.05-.22-2.9-.64l.71-1.72c.57.29,1.18.44,1.84.44.97,0,1.63-.38,2-1.13.28-.51.41-1.44.41-2.81v-11.41h2.28v9.29c.15.08.37.12.64.12h1.91Z"/>
        <path class="cls-2" d="m102.81,55.43v1.89h-.55c-1.17-.01-2.12-.31-2.88-.9-.75,1.23-2.11,1.84-4.07,1.84s-3.33-.61-4.09-1.84c-.77.6-1.78.9-3.04.9h-1.33v-1.89h1.33c.78,0,1.38-.28,1.79-.85.35-.47.53-1.11.53-1.91v-1.84c0-3.37,1.6-5.06,4.81-5.06s4.78,1.69,4.78,5.06v2.3c.06.71.31,1.27.74,1.7.43.4.93.6,1.49.6h.48Zm-5.01-1.98v-2.85c0-1.96-.84-2.94-2.51-2.94s-2.51.98-2.51,2.94v2.85c0,1.95.84,2.92,2.51,2.92s2.51-.97,2.51-2.92Z"/>
        <path class="cls-2" d="m108.33,40.89v11.55c0,1.72-.46,2.99-1.38,3.82-.78.71-1.86,1.06-3.22,1.06h-1.33v-1.89h1.33c.78,0,1.38-.28,1.79-.85.35-.47.53-1.11.53-1.91v-11.78h2.28Z"/>
        <path class="cls-2" d="m114.38,40.89v16.42h-2.28v-16.42h2.28Z"/>
      </g>
      <circle class="cls-2" cx="166.34" cy="50" r="32.51"/>
    </g>
  </g>
  <g>
    <path class="cls-3" d="m160.58,40.59c1,0,1.87.21,2.62.62.67.38,1.2.91,1.56,1.59l-1.77.97c-.61-.86-1.4-1.29-2.37-1.29-.81,0-1.47.27-1.98.8-.46.51-.69,1.16-.69,1.96,0,.84.32,1.51.97,2,.51.4,1.09.6,1.75.6h3.01v1.86h-3.36c-.8,0-1.47.28-2.02.83-.52.54-.79,1.21-.8,2.02,0,1,.31,1.79.94,2.37.54.49,1.19.74,1.96.74,1.15,0,2.02-.42,2.6-1.26l1.77.97c-.38.74-1,1.3-1.84,1.68-.74.34-1.58.51-2.53.51-1.61,0-2.9-.48-3.86-1.45-.86-.84-1.29-1.93-1.29-3.27.03-1.84.83-3.17,2.42-4-1.3-.84-1.96-2.03-1.96-3.56,0-1.4.47-2.53,1.4-3.4.87-.83,2.03-1.25,3.47-1.26Z"/>
    <path class="cls-3" d="m171.94,40.61c1.41,0,2.51.34,3.31,1.01.98.83,1.47,2.05,1.47,3.66v12.03h-2.3l.02-6.58h-2.51c-1.67,0-2.9-.44-3.68-1.33-.67-.8-1.04-1.89-1.1-3.29v-.83c.02-1.41.4-2.54,1.15-3.38.81-.86,2.02-1.29,3.63-1.29Zm0,1.89c-.81,0-1.44.23-1.89.69-.41.49-.62,1.19-.62,2.09v.76c.03.92.24,1.62.62,2.12.41.48,1.04.71,1.89.71h2.48v-3.59c0-.9-.21-1.6-.62-2.09-.41-.46-1.04-.69-1.86-.69Z"/>
  </g>
</svg>