<?xml version="1.0" encoding="UTF-8"?>
<svg id="Layer_2" data-name="Layer 2" xmlns="http://www.w3.org/2000/svg" viewBox="0 0 812.41 44.3">
  <defs>
    <style>
      .cls-1 {
        fill: #2baf9f;
      }

      .cls-2 {
        fill: #ff9f1c;
      }
    </style>
  </defs>
  <g id="Layer_1-2" data-name="Layer 1">
    <rect class="cls-1" x="792.74" width="19.67" height="39.47" rx="3.47" ry="3.47"/>
    <g>
      <path class="cls-2" d="m254.79,25.26l3.04-1.92c.42.68.94,1.17,1.59,1.48s1.46.47,2.47.47c1.94,0,2.91-.74,2.91-2.21,0-.76-.26-1.31-.78-1.64-.26-.17-.52-.3-.78-.38s-1.03-.28-2.31-.61c-2.04-.5-3.47-1.23-4.26-2.18-.69-.83-1.04-1.97-1.04-3.41,0-1.89.62-3.3,1.85-4.24,1.09-.83,2.58-1.25,4.47-1.25,2.95,0,5.01,1,6.19,3.02l-2.96,1.9c-.81-1.14-1.92-1.72-3.3-1.72-.82,0-1.43.2-1.85.6-.38.36-.57.85-.57,1.46,0,.74.29,1.32.86,1.71.49.35,1.36.68,2.63.99,1.2.29,2.02.53,2.48.7.46.17.92.41,1.39.7,1.21.81,1.82,2.19,1.82,4.13s-.5,3.25-1.51,4.13c-1.18,1.02-2.93,1.53-5.25,1.53-3.45,0-5.81-1.09-7.07-3.28Z"/>
      <path class="cls-2" d="m275.49,28.23v-15.31h-4.94v-3.25h13.86v3.25h-4.91v15.31h-4Z"/>
      <path class="cls-2" d="m287.24,28.23V9.66h11.73v3.25h-7.77v4.32h6.58v3.25h-6.58v4.5h7.88v3.25h-11.83Z"/>
      <path class="cls-2" d="m312.93,24.74h-6.5l-1.09,3.48h-4.32l6.71-18.56h3.87l6.73,18.56h-4.34l-1.07-3.48Zm-.96-3.17l-2.26-7.23-2.31,7.23h4.58Z"/>
      <path class="cls-2" d="m319.82,28.23V9.66h3.72l4.81,9.98,4.78-9.98h3.74v18.56h-3.85v-11.1l-3.41,7.04h-2.55l-3.43-7.04v11.1h-3.82Z"/>
      <path class="cls-2" d="m365.61,15.15v7.28c0,3.87-1.92,5.8-5.75,5.8h-7.93c-2.13,0-3.8-.72-4.99-2.16-.94-1.13-1.4-2.45-1.4-3.98,0-1.21.16-2.28.47-3.19.31-.91.81-1.77,1.51-2.59l2.57,1.74c-.87,1.07-1.3,2.3-1.3,3.67,0,.97.36,1.79,1.09,2.47.73.69,1.69,1.04,2.89,1.04h7.1c.64,0,1.14-.21,1.51-.64.36-.43.55-1.01.55-1.76v-7.7h3.69Zm-10.4-1.69h-3.07v-3.33h3.07v3.33Zm4.55,0h-3.07v-3.33h3.07v3.33Z"/>
      <path class="cls-2" d="m383.39,9.66v12.77c0,3.87-1.92,5.8-5.75,5.8h-8.87v-2.99h3.17v-11.67h3.69v11.67h2c.64,0,1.14-.21,1.51-.64.36-.43.55-1.01.55-1.76v-13.18h3.69Z"/>
      <path class="cls-2" d="m390.75,9.66v13.18c0,.76.2,1.36.6,1.79.36.4.84.6,1.43.6h.78v2.99h-.81c-3.8,0-5.69-1.93-5.69-5.8v-12.77h3.69Z"/>
      <path class="cls-2" d="m401.75,14.86c2.36,0,4.17.8,5.43,2.39.36.47.63,1.01.81,1.62.17.62.35,1.62.52,3,.17,1.3.39,2.15.65,2.55.35.54.96.81,1.85.81h.23v2.99h-18.17v-2.99h12.51c-.22-.38-.38-.76-.47-1.13s-.17-1.05-.26-2.04c-.12-1.27-.39-2.25-.81-2.96-.23-.38-.55-.68-.98-.91-.42-.22-.87-.34-1.34-.34-.64,0-1.19.15-1.65.44s-.9.78-1.31,1.46l-2.78-1.56c.54-1.07,1.32-1.9,2.34-2.47.99-.57,2.13-.86,3.43-.86Zm1.48,18.62h-3.69v-3.38h3.69v3.38Z"/>
      <path class="cls-2" d="m420.52,14.86c3.87,0,5.8,1.96,5.8,5.88v2.7c0,3.92-1.93,5.88-5.8,5.88-2.13,0-3.68-.59-4.65-1.77-.85.45-1.92.68-3.22.68h-1.9v-2.99h1.9c.64,0,1.14-.21,1.51-.64.36-.43.55-1.01.55-1.76v-2.11c0-3.92,1.94-5.88,5.82-5.88Zm2.11,9v-3.54c0-1.65-.7-2.47-2.11-2.47s-2.13.82-2.13,2.47v3.54c0,1.65.71,2.47,2.13,2.47s2.11-.82,2.11-2.47Z"/>
      <path class="cls-2" d="m453.2,28.23h-.88c0,.87-.28,1.78-.83,2.73-.66,1.16-1.59,2.08-2.78,2.76-1.44.85-3.16,1.27-5.15,1.27-3.02,0-5.34-.9-6.97-2.71-1.35-1.51-2.03-3.43-2.03-5.77,0-2.01.49-3.74,1.46-5.2l2.6,1.77c-.43,1.02-.65,2.02-.65,2.99,0,1.94.56,3.41,1.69,4.42.97.88,2.28,1.33,3.93,1.33s2.96-.47,3.98-1.4c.73-.66,1.09-1.3,1.09-1.92,0-.17-.1-.26-.29-.26h-3.69v-2.99h8.53v2.99Zm-10.61,11.91h-3.07v-3.33h3.07v3.33Zm4.55,0h-3.07v-3.33h3.07v3.33Z"/>
      <path class="cls-2" d="m462.51,14.86c3.87,0,5.8,1.96,5.8,5.88v1.61c0,3.92-1.93,5.88-5.8,5.88h-9.8v-2.99h4.78c-.54-.76-.81-1.72-.81-2.89v-1.61c0-3.92,1.94-5.88,5.82-5.88Zm0,2.99c-1.42,0-2.13.82-2.13,2.47v2.44c0,1.65.71,2.47,2.13,2.47s2.11-.82,2.11-2.47v-2.44c0-1.65-.7-2.47-2.11-2.47Zm1.85-4.68h-3.69v-3.41h3.69v3.41Z"/>
      <path class="cls-2" d="m484.82,35.74c.78,0,1.5-.09,2.16-.27.66-.18,1.47-.52,2.44-1l1.2,2.68c-1.89,1.14-3.89,1.71-6.01,1.71-.56,0-.97-.02-1.25-.05-1.98-.19-3.61-.88-4.89-2.08-1.3-1.21-1.95-2.77-1.95-4.65,0-1.46.38-2.71,1.14-3.77.71-1.01,1.75-1.79,3.12-2.34,1.06-.4,2.44-.64,4.16-.73h2.39c-.23-.38-.38-.76-.47-1.13-.09-.37-.17-1.05-.26-2.04-.12-1.27-.39-2.25-.81-2.96-.23-.38-.55-.68-.97-.91-.42-.22-.87-.34-1.34-.34-.64,0-1.19.15-1.65.44s-.9.78-1.31,1.46l-2.78-1.56c.54-1.07,1.32-1.9,2.34-2.47.99-.57,2.13-.86,3.43-.86,2.36,0,4.17.8,5.43,2.39.36.47.63,1.01.81,1.62.17.62.35,1.62.52,3,.17,1.3.39,2.15.65,2.55.35.54.96.81,1.85.81h.23v2.99h-6.89c-1.42,0-2.51.12-3.28.36-.83.28-1.47.74-1.92,1.38-.42.59-.62,1.24-.62,1.95,0,1.07.4,1.98,1.2,2.71.64.57,1.37.91,2.18,1.01.49.07.87.1,1.14.1Zm2.78-2.31h-3.69v-3.38h3.69v3.38Z"/>
      <path class="cls-2" d="m514.04,28.23h-1.79c-1.27,0-2.06-.35-2.39-1.04-.97.69-2.23,1.04-3.77,1.04h-3.93c-1.02,0-1.86-.17-2.52-.52-.66.35-1.49.52-2.5.52h-4.65v-2.99h3.64c-.24-.29-.45-.67-.61-1.13-.17-.46-.25-.9-.25-1.31,0-1.37.33-2.48.99-3.33.57-.73,1.34-1.19,2.31-1.38l1.3-2.47c1.28-.5,2.7-.75,4.24-.75,2.44.02,4.38.83,5.82,2.45,1.25,1.4,1.87,3.18,1.87,5.33,0,.94-.13,1.76-.39,2.47.17.09.45.13.83.13h1.79v2.99Zm-14.4-3.15c.48-.12.87-.39,1.14-.82.28-.43.42-.95.42-1.57,0-.69-.14-1.24-.42-1.65-.28-.41-.66-.61-1.14-.61s-.87.21-1.14.61c-.28.41-.42.96-.42,1.65,0,.61.14,1.13.43,1.56.29.43.66.71,1.13.83Zm3.54.16h2.89c.62,0,1.12-.23,1.5-.69.37-.46.56-1.08.56-1.86,0-1.47-.45-2.66-1.35-3.56-.85-.83-1.99-1.26-3.41-1.28-.99,0-1.92.07-2.81.21,1.16.19,2.05.75,2.65,1.69.54.81.81,1.83.81,3.04,0,.45-.08.9-.23,1.36-.16.46-.36.82-.6,1.08Z"/>
      <path class="cls-2" d="m513.55,25.24h1.92c.64,0,1.14-.21,1.51-.64.36-.43.55-1.01.55-1.76v-7.7h3.69v7.28c0,1.06-.14,1.94-.42,2.65.19.1.47.16.83.16h2.26v2.99h-2.24c-1.27,0-2.06-.35-2.39-1.04-.95.69-2.22,1.04-3.8,1.04h-1.92v-2.99Zm7.67-12.09h-3.69v-3.41h3.69v3.41Z"/>
      <path class="cls-2" d="m541.81,28.23h-.81c-1.25,0-2.31-.22-3.17-.68-.95,1.18-2.5,1.77-4.63,1.77s-3.68-.59-4.65-1.77c-.85.45-1.92.68-3.22.68h-1.9v-2.99h1.9c.64,0,1.14-.21,1.51-.64.36-.43.55-1.01.55-1.76v-2.11c0-3.92,1.94-5.88,5.82-5.88s5.8,1.96,5.8,5.88v2.11c0,.76.2,1.36.6,1.79.36.4.84.6,1.43.6h.78v2.99Zm-6.5-4.37v-3.54c0-1.65-.7-2.47-2.11-2.47s-2.13.82-2.13,2.47v3.54c0,1.65.71,2.47,2.13,2.47s2.11-.82,2.11-2.47Z"/>
      <path class="cls-2" d="m548.96,9.66v12.77c0,3.87-1.92,5.8-5.75,5.8h-1.9v-2.99h1.9c.64,0,1.14-.21,1.51-.64.36-.43.55-1.01.55-1.76v-13.18h3.69Z"/>
      <path class="cls-2" d="m556.32,9.66v18.56h-3.69V9.66h3.69Z"/>
      <path class="cls-2" d="m576.6,14.26v8.58c0,.73.19,1.32.57,1.77.36.42.84.62,1.43.62h.81v2.99h-.83c-2.05,0-3.53-.55-4.45-1.66-.45.31-1.01.57-1.69.77-.68.2-1.32.3-1.92.3-1.84,0-3.23-.54-4.19-1.61-.88-1-1.33-2.43-1.33-4.26v-1.01c0-2.01.62-3.54,1.85-4.6.99-.83,2.24-1.25,3.74-1.25h.18c.68,0,1.39.14,2.13.42v-1.04h3.69Zm-6.45-1.61h-3.07v-3.33h3.07v3.33Zm.65,5.2c-.68,0-1.2.21-1.56.64-.36.43-.55,1.04-.55,1.83v1.85c0,1.65.7,2.47,2.11,2.47.76,0,1.49-.28,2.18-.83-.05-.47-.08-.99-.08-1.56v-3.82c-.49-.38-1.19-.57-2.11-.57Zm3.9-5.2h-3.07v-3.33h3.07v3.33Z"/>
      <path class="cls-2" d="m603.37,28.23h-1.79c-1.27,0-2.06-.35-2.39-1.04-.94.69-2.18,1.04-3.74,1.04h-16.54v-2.99h3.95v-15.57h3.69v8.58c.88-1.16,2.07-2.04,3.56-2.65,1.2-.48,2.44-.73,3.74-.73,2.58,0,4.51.86,5.8,2.57.99,1.34,1.48,3.01,1.48,5.02,0,.97-.14,1.85-.42,2.63.19.1.48.16.86.16h1.79v2.99Zm-16.82-2.99h8.87c.62,0,1.12-.22,1.5-.68s.56-1.05.56-1.79c0-1.54-.35-2.75-1.04-3.61-.68-.87-1.63-1.3-2.86-1.3-1.72,0-3.3.9-4.76,2.71-1.13,1.4-1.88,2.96-2.26,4.68Z"/>
      <path class="cls-2" d="m631.09,28.23h-3.25c-1.14,0-1.91-.29-2.29-.88-.95.8-2.29,1.2-4,1.2-1.58,0-2.84-.43-3.8-1.3-.92.85-2.25,1.27-4,1.27s-3.19-.46-4.11-1.38c-.9.73-2.13,1.09-3.69,1.09h-3.07v-2.99h3.07c.64,0,1.14-.21,1.51-.64.36-.43.55-1.01.55-1.76v-7.7h3.69v7.98c0,.8.19,1.4.57,1.82.36.4.86.6,1.48.6s1.14-.21,1.51-.64c.36-.42.55-1.02.55-1.78v-7.98h3.69v8.01c0,.8.19,1.4.57,1.82.35.38.84.57,1.48.57s1.17-.21,1.52-.62c.35-.42.53-1,.53-1.77v-7.98h3.69v7.57c0,.88-.1,1.66-.31,2.34.19.1.47.16.83.16h3.28v2.99Zm-14.07-15.11h-3.07v-3.33h3.07v3.33Zm2.13-4.47h-2.78v-3.02h2.78v3.02Zm2.42,4.47h-3.07v-3.33h3.07v3.33Z"/>
      <path class="cls-2" d="m638.24,15.15v7.28c0,3.87-1.92,5.8-5.75,5.8h-1.9v-2.99h1.9c.64,0,1.14-.21,1.51-.64.36-.43.55-1.01.55-1.76v-7.7h3.69Zm.03-1.98h-3.69v-3.41h3.69v3.41Z"/>
      <path class="cls-2" d="m646.48,9.17h-5.49v-1.61h.91c-.19-.37-.29-.77-.29-1.22,0-.64.24-1.2.73-1.66.47-.43,1.05-.65,1.74-.65.43,0,.85.12,1.25.37.4.24.68.54.86.91l-1.3.75s-.03-.04-.05-.08c-.19-.31-.42-.47-.7-.47-.49,0-.73.31-.73.94,0,.33.11.59.34.79.22.2.53.31.91.33h1.82v1.61Zm-.86,1.95v17.11h-3.69V11.12h3.69Z"/>
      <path class="cls-2" d="m654.49,18.32v-3.64h4v3.64h-4Zm0,9.91v-3.64h4v3.64h-4Z"/>
      <path class="cls-2" d="m680.33,28.23h-.88c0,.87-.28,1.78-.83,2.73-.66,1.16-1.59,2.08-2.78,2.76-1.44.85-3.16,1.27-5.15,1.27-3.02,0-5.34-.9-6.97-2.71-1.35-1.51-2.03-3.43-2.03-5.77,0-2.01.49-3.74,1.46-5.2l2.6,1.77c-.43,1.02-.65,2.02-.65,2.99,0,1.94.56,3.41,1.69,4.42.97.88,2.28,1.33,3.93,1.33s2.96-.47,3.98-1.4c.73-.66,1.09-1.3,1.09-1.92,0-.17-.09-.26-.29-.26h-3.69v-2.99h8.53v2.99Zm-10.61,11.91h-3.07v-3.33h3.07v3.33Zm4.55,0h-3.07v-3.33h3.07v3.33Z"/>
      <path class="cls-2" d="m687.49,15.15v7.28c0,3.87-1.92,5.8-5.75,5.8h-1.9v-2.99h1.9c.64,0,1.14-.21,1.51-.64.36-.43.55-1.01.55-1.76v-7.7h3.69Zm.03-1.98h-3.69v-3.41h3.69v3.41Z"/>
      <path class="cls-2" d="m694.87,9.66v13.18c0,.76.2,1.36.6,1.79.36.4.84.6,1.43.6h.78v2.99h-.81c-3.8,0-5.69-1.93-5.69-5.8v-12.77h3.69Z"/>
      <path class="cls-2" d="m697.18,25.24h1.92c.64,0,1.14-.21,1.51-.64.36-.43.55-1.01.55-1.76v-7.7h3.69v7.28c0,1.06-.14,1.94-.42,2.65.19.1.47.16.83.16h2.26v2.99h-2.24c-1.27,0-2.06-.35-2.39-1.04-.95.69-2.22,1.04-3.8,1.04h-1.92v-2.99Zm5.04-12.12h-3.07v-3.33h3.07v3.33Zm2.13-4.47h-2.78v-3.02h2.78v3.02Zm2.42,4.47h-3.07v-3.33h3.07v3.33Z"/>
      <path class="cls-2" d="m714.71,9.66v12.77c0,3.87-1.92,5.8-5.75,5.8h-1.9v-2.99h1.9c.64,0,1.14-.21,1.51-.64.36-.43.55-1.01.55-1.76v-13.18h3.69Z"/>
      <path class="cls-2" d="m722.07,9.66v18.56h-3.69V9.66h3.69Z"/>
      <path class="cls-2" d="m748.38,28.23h-.81c-1.27,0-2.33-.22-3.2-.68-.95,1.16-2.49,1.74-4.6,1.74s-3.7-.6-4.65-1.79c-.8.26-1.2.9-1.2,1.92v7.85h-3.69v-7.62c0-1.73.35-3.01,1.04-3.82.61-.71,1.52-1.16,2.73-1.35-.04-.45-.05-.81-.05-1.07v-2.68c0-3.92,1.94-5.88,5.82-5.88s5.8,1.96,5.8,5.88v2.11c0,.76.2,1.36.6,1.79.36.4.84.6,1.43.6h.78v2.99Zm-6.5-4.39v-3.51c0-1.65-.7-2.47-2.11-2.47s-2.13.82-2.13,2.47v3.51c0,1.65.71,2.47,2.13,2.47s2.11-.82,2.11-2.47Z"/>
      <path class="cls-2" d="m776.09,28.23h-3.25c-1.14,0-1.91-.29-2.29-.88-.95.8-2.29,1.2-4,1.2-1.58,0-2.84-.43-3.8-1.3-.92.85-2.25,1.27-4,1.27s-3.19-.46-4.11-1.38c-.9.73-2.13,1.09-3.69,1.09h-3.07v-2.99h3.07c.64,0,1.14-.21,1.51-.64.36-.43.55-1.01.55-1.76v-7.7h3.69v7.98c0,.8.19,1.4.57,1.82.36.4.86.6,1.48.6s1.14-.21,1.51-.64c.36-.42.55-1.02.55-1.78v-7.98h3.69v8.01c0,.8.19,1.4.57,1.82.35.38.84.57,1.48.57s1.17-.21,1.52-.62c.35-.42.53-1,.53-1.77v-7.98h3.69v7.57c0,.88-.1,1.66-.31,2.34.19.1.47.16.83.16h3.28v2.99Z"/>
      <path class="cls-2" d="m784.96,14.86c2.03,0,3.56.62,4.6,1.87.87,1.06,1.3,2.45,1.3,4.19,0,.73-.18,1.5-.53,2.33-.36.82-.8,1.49-1.34,1.99h4.21v2.99h-5.98c-.94,0-1.69-.16-2.26-.47-.59.31-1.35.47-2.29.47h-7.07v-2.99h5.3c-.54-.5-.98-1.17-1.34-1.99-.36-.82-.53-1.6-.53-2.33,0-1.99.56-3.53,1.69-4.6,1.04-.97,2.45-1.46,4.24-1.46Zm-.88-1.79h-3.07v-3.33h3.07v3.33Zm.88,4.78c-.71,0-1.27.32-1.66.96-.33.5-.49,1.13-.49,1.87,0,1.91.72,3.33,2.16,4.26,1.42-.94,2.13-2.36,2.13-4.26,0-.87-.21-1.56-.62-2.08-.38-.5-.88-.75-1.51-.75Zm3.67-4.78h-3.07v-3.33h3.07v3.33Z"/>
      <path class="cls-2" d="m800.38,9.66v12.77c0,3.87-1.92,5.8-5.75,5.8h-1.9v-2.99h1.9c.64,0,1.14-.21,1.51-.64.36-.43.55-1.01.55-1.76v-13.18h3.69Z"/>
      <path class="cls-2" d="m807.74,9.66v18.56h-3.69V9.66h3.69Z"/>
    </g>
  </g>
</svg>