<?xml version="1.0" encoding="UTF-8"?>
<svg xmlns="http://www.w3.org/2000/svg" viewBox="0 0 168 235">
  <defs>
    <style>
      .cls-1, .cls-2 {
        fill: #fff;
      }

      .cls-3 {
        opacity: .5;
      }

      .cls-4 {
        fill: #2baf9f;
      }

      .cls-2, .cls-5 {
        opacity: .8;
      }
    </style>
  </defs>
  <g id="Layer_1" data-name="Layer 1">
    <g>
      <rect class="cls-2" x="8.22" y="16.82" width="155.58" height="155.58" rx="77.79" ry="77.79"/>
      <g class="cls-3">
        <g>
          <path class="cls-4" d="m119.42,74.65c0,1.35-1.1,2.45-2.45,2.45h-61.9c-1.35,0-2.45-1.1-2.45-2.45v-3.56c0-1.35,1.1-2.45,2.45-2.45h61.9c1.35,0,2.45,1.1,2.45,2.45v3.56Zm0,0"/>
          <path class="cls-4" d="m57.41,75.82v32.34c0,3.31,2.7,6.01,6.01,6.01h21.76v14.09c-1.64.38-2.87,1.85-2.87,3.6,0,2.04,1.66,3.7,3.7,3.7s3.7-1.66,3.7-3.7c0-1.75-1.23-3.22-2.87-3.6v-14.09h21.76c3.31,0,6.01-2.69,6.01-6.01v-32.34h-57.2Zm28.9,26.18h-12.33c-.9,0-1.63-.73-1.63-1.63s.73-1.64,1.63-1.64h12.33c.9,0,1.63.73,1.63,1.64s-.73,1.63-1.63,1.63h0Zm11.72-10.75h-24.04c-.9,0-1.63-.73-1.63-1.63s.73-1.63,1.63-1.63h24.04c.9,0,1.63.73,1.63,1.63s-.73,1.63-1.63,1.63h0Zm0,0"/>
        </g>
      </g>
    </g>
  </g>
  <g id="Layer_2" data-name="Layer 2">
    <g class="cls-5">
      <path class="cls-1" d="m44.44,203.55v9.24c0,.78.21,1.42.62,1.9.39.45.9.67,1.54.67h.87v3.22h-.9c-2.2,0-3.8-.6-4.79-1.79-.49.34-1.09.61-1.82.83-.73.21-1.42.32-2.07.32-1.98,0-3.48-.58-4.51-1.74-.95-1.08-1.43-2.61-1.43-4.59v-1.09c0-2.16.66-3.82,1.99-4.96,1.06-.9,2.41-1.34,4.03-1.34h.2c.73,0,1.49.15,2.3.45v-1.12h3.98Zm-6.94-1.74h-3.3v-3.58h3.3v3.58Zm.7,5.6c-.73,0-1.29.23-1.68.69-.39.46-.59,1.12-.59,1.97v1.99c0,1.77.76,2.66,2.27,2.66.82,0,1.61-.3,2.35-.9-.06-.5-.08-1.06-.08-1.68v-4.12c-.52-.41-1.28-.62-2.27-.62Zm4.2-5.6h-3.3v-3.58h3.3v3.58Z"/>
      <path class="cls-1" d="m57.46,204.19c4.16,0,6.24,2.11,6.24,6.33v2.91c0,4.22-2.08,6.33-6.24,6.33-2.3,0-3.97-.63-5.01-1.9-.91.48-2.07.73-3.47.73h-2.04v-3.22h2.04c.69,0,1.23-.23,1.62-.69.39-.46.59-1.09.59-1.89v-2.27c0-4.22,2.09-6.33,6.27-6.33Zm2.27,9.69v-3.81c0-1.77-.76-2.66-2.27-2.66s-2.3.89-2.3,2.66v3.81c0,1.77.76,2.66,2.3,2.66s2.27-.89,2.27-2.66Z"/>
      <path class="cls-1" d="m81.6,218.58h-1.93c-1.34,0-2.19-.36-2.55-1.09-1.08.75-2.48,1.11-4.2,1.09h-5.96v-3.22h5.96c1.53-.02,2.3-.9,2.3-2.63,0-1.92-.55-3.33-1.65-4.23-.86-.71-2.13-1.13-3.81-1.26l1.54-3.05c5.26.52,7.9,3.35,7.9,8.48,0,.92-.13,1.77-.39,2.55.19.09.48.14.87.14h1.93v3.22Z"/>
      <path class="cls-1" d="m91.15,204.19c2.18,0,3.84.67,4.96,2.02.93,1.14,1.4,2.64,1.4,4.51,0,.78-.19,1.62-.57,2.51-.38.89-.86,1.6-1.44,2.14h4.54v3.22h-6.44c-1.01,0-1.82-.17-2.44-.5-.63.34-1.46.5-2.46.5h-7.62v-3.22h5.71c-.58-.54-1.06-1.26-1.44-2.14s-.57-1.72-.57-2.51c0-2.15.61-3.8,1.82-4.96,1.12-1.04,2.64-1.57,4.56-1.57Zm-.95-1.93h-3.3v-3.58h3.3v3.58Zm.95,5.15c-.77,0-1.36.35-1.79,1.04-.35.54-.53,1.21-.53,2.02,0,2.05.77,3.58,2.32,4.59,1.53-1.01,2.3-2.54,2.3-4.59,0-.93-.22-1.68-.67-2.24-.41-.54-.95-.81-1.62-.81Zm3.95-5.15h-3.3v-3.58h3.3v3.58Z"/>
      <path class="cls-1" d="m119.31,218.58h-.87c-1.34,0-2.48-.24-3.42-.73-1.03,1.27-2.69,1.9-4.98,1.9s-3.97-.63-5.01-1.9c-.91.48-2.07.73-3.47.73h-2.04v-3.22h2.04c.69,0,1.23-.23,1.62-.69.39-.46.59-1.09.59-1.89v-2.27c0-4.22,2.09-6.33,6.27-6.33s6.24,2.11,6.24,6.33v2.27c0,.82.21,1.46.64,1.93.39.43.91.64,1.54.64h.84v3.22Zm-7-4.7v-3.81c0-1.77-.76-2.66-2.27-2.66s-2.3.89-2.3,2.66v3.81c0,1.77.76,2.66,2.3,2.66s2.27-.89,2.27-2.66Z"/>
      <path class="cls-1" d="m127.01,198.59v13.75c0,4.16-2.06,6.24-6.19,6.24h-2.04v-3.22h2.04c.69,0,1.23-.23,1.62-.69.39-.46.59-1.09.59-1.89v-14.2h3.98Z"/>
      <path class="cls-1" d="m134.94,198.59v19.99h-3.98v-19.99h3.98Z"/>
    </g>
  </g>
</svg>