<?xml version="1.0" encoding="UTF-8"?>
<svg xmlns="http://www.w3.org/2000/svg" xmlns:xlink="http://www.w3.org/1999/xlink" viewBox="0 0 188 235">
  <defs>
    <style>
      .cls-1 {
        filter: url(#drop-shadow-10);
      }

      .cls-2 {
        fill: #fff;
      }

      .cls-3 {
        fill: none;
        stroke: #ff9f1c;
        stroke-linecap: round;
        stroke-linejoin: round;
        stroke-width: 2px;
      }

      .cls-4 {
        fill: #2baf9f;
      }

      .cls-5 {
        fill: #ffd9b0;
        filter: url(#outer-glow-9);
      }

      .cls-6 {
        fill: #ffaa45;
      }
    </style>
    <filter id="outer-glow-9" filterUnits="userSpaceOnUse">
      <feOffset dx="0" dy="0"/>
      <feGaussianBlur result="blur" stdDeviation="5"/>
      <feFlood flood-color="#000" flood-opacity=".17"/>
      <feComposite in2="blur" operator="in"/>
      <feComposite in="SourceGraphic"/>
    </filter>
    <filter id="drop-shadow-10" filterUnits="userSpaceOnUse">
      <feOffset dx="3" dy="4"/>
      <feGaussianBlur result="blur-2" stdDeviation="0"/>
      <feFlood flood-color="#000" flood-opacity=".15"/>
      <feComposite in2="blur-2" operator="in"/>
      <feComposite in="SourceGraphic"/>
    </filter>
  </defs>
  <g id="Layer_1" data-name="Layer 1">
    <g>
      <g>
        <rect class="cls-5" x="16.21" y="16.82" width="155.58" height="155.58" rx="77.79" ry="77.79"/>
        <circle class="cls-2" cx="94" cy="94.61" r="69.79"/>
      </g>
      <path class="cls-3" d="m86.47,150.84l6.94-5.33c.31-.24.87-.24,1.18,0l6.94,5.33"/>
      <g class="cls-1">
        <path class="cls-4" d="m120.93,73.87l-15.46-15.46c-.58-.58-1.37-.91-2.19-.91h-27.83c-5.12,0-9.28,4.16-9.28,9.28v55.67c0,5.12,4.16,9.28,9.28,9.28h37.11c5.12,0,9.28-4.16,9.28-9.28v-46.39c0-.82-.33-1.61-.91-2.19h0Zm-14.56,45.48h-24.74c-1.71,0-3.09-1.39-3.09-3.09s1.39-3.09,3.09-3.09h24.74c1.71,0,3.09,1.39,3.09,3.09s-1.39,3.09-3.09,3.09h0Zm0-13.92h-24.74c-1.71,0-3.09-1.39-3.09-3.09s1.39-3.09,3.09-3.09h24.74c1.71,0,3.09,1.39,3.09,3.09s-1.39,3.09-3.09,3.09h0Zm0-13.92h-24.74c-1.71,0-3.09-1.39-3.09-3.09s1.39-3.09,3.09-3.09h24.74c1.71,0,3.09,1.39,3.09,3.09s-1.39,3.09-3.09,3.09h0Zm8.75-15.46h-10.67c-.65,0-1.17-.53-1.17-1.17v-10.67c0-.47.56-.7.9-.37l11.32,11.32c.33.33.1.9-.37.9h0Zm0,0"/>
      </g>
    </g>
  </g>
  <g id="Layer_2" data-name="Layer 2">
    <rect class="cls-6" x="4.17" y="189.99" width="179.67" height="38.39" rx="19.19" ry="19.19"/>
    <g>
      <path class="cls-2" d="m37.24,198.43v17.69c0,2.69-.78,4.79-2.34,6.29-1.5,1.47-3.61,2.2-6.32,2.2-1.58,0-3.02-.36-4.33-1.07-1.27-.7-2.28-1.66-3.01-2.88-.75-1.27-1.13-2.69-1.13-4.25,0-1.38.21-2.72.63-4.02.42-1.3,1-2.42,1.73-3.38l2.66,1.8c-1,1.56-1.51,3.28-1.51,5.16,0,1.72.56,3.09,1.67,4.11.91.82,2.02,1.24,3.31,1.24,1.54,0,2.75-.47,3.63-1.4.79-.84,1.18-1.97,1.18-3.39v-18.12h3.82Z"/>
      <path class="cls-2" d="m46.86,203.81c2.1,0,3.63.54,4.6,1.61.91.99,1.37,2.47,1.37,4.46v7.34c0,4.93-2.15,7.39-6.45,7.39-1.72,0-3.36-.38-4.92-1.16l1.18-2.79c1.08.5,2.13.75,3.17.75,1.15,0,1.97-.28,2.47-.83.48-.52.73-1.32.73-2.39v-.81c-.81.36-1.68.54-2.61.54-1.76,0-3.12-.52-4.09-1.56-.97-1.06-1.45-2.55-1.45-4.49v-1.99c0-4.05,2-6.08,5.99-6.08Zm0,3.09c-1.45,0-2.18.85-2.18,2.55v2.85c0,1.7.73,2.55,2.18,2.55.81,0,1.52-.2,2.15-.59v-4.81c0-1.7-.72-2.55-2.15-2.55Z"/>
      <path class="cls-2" d="m71.24,198.43v13.2c0,4-1.98,6-5.94,6h-9.17v-3.09h3.28v-12.07h3.82v12.07h2.07c.66,0,1.18-.22,1.56-.66.38-.44.56-1.04.56-1.81v-13.63h3.82Zm-7.15,2.02h-5.67v-1.67h.94c-.2-.38-.3-.8-.3-1.26,0-.66.25-1.24.75-1.72.48-.45,1.08-.67,1.8-.67.45,0,.88.12,1.29.38.41.25.71.56.89.94l-1.34.78s-.04-.04-.05-.08c-.2-.32-.44-.48-.73-.48-.5,0-.75.32-.75.97,0,.34.12.61.35.82.23.21.55.32.94.34h1.88v1.67Z"/>
      <path class="cls-2" d="m78.85,198.43v19.2h-3.82v-19.2h3.82Z"/>
      <path class="cls-2" d="m106.06,217.63h-.83c-1.31,0-2.41-.23-3.31-.7-.99,1.2-2.57,1.8-4.76,1.8s-3.83-.62-4.81-1.86c-.82.27-1.24.93-1.24,1.99v8.12h-3.82v-7.88c0-1.79.36-3.11,1.08-3.95.63-.73,1.57-1.2,2.82-1.4-.04-.47-.05-.83-.05-1.1v-2.77c0-4.05,2.01-6.08,6.02-6.08s5.99,2.03,5.99,6.08v2.18c0,.79.21,1.41.62,1.85.38.41.87.62,1.48.62h.81v3.09Zm-6.72-4.54v-3.63c0-1.7-.73-2.55-2.18-2.55s-2.2.85-2.2,2.55v3.63c0,1.7.73,2.55,2.2,2.55s2.18-.85,2.18-2.55Z"/>
      <path class="cls-2" d="m134.71,217.63h-3.36c-1.18,0-1.97-.3-2.37-.91-.99.82-2.37,1.24-4.14,1.24-1.63,0-2.94-.45-3.92-1.34-.95.88-2.33,1.32-4.14,1.32s-3.3-.47-4.25-1.42c-.93.75-2.2,1.13-3.82,1.13h-3.17v-3.09h3.17c.66,0,1.18-.22,1.56-.66.38-.44.56-1.04.56-1.81v-7.96h3.82v8.25c0,.82.2,1.45.59,1.88.38.41.89.62,1.53.62s1.18-.22,1.56-.66.56-1.05.56-1.84v-8.25h3.82v8.28c0,.82.2,1.45.59,1.88.36.39.87.59,1.53.59s1.21-.21,1.57-.64.55-1.04.55-1.83v-8.25h3.82v7.82c0,.91-.11,1.72-.32,2.42.2.11.48.16.86.16h3.39v3.09Z"/>
      <path class="cls-2" d="m143.88,203.81c2.1,0,3.68.65,4.76,1.94.9,1.09,1.34,2.54,1.34,4.33,0,.75-.18,1.55-.55,2.41s-.83,1.54-1.38,2.06h4.35v3.09h-6.18c-.97,0-1.75-.16-2.34-.48-.61.32-1.4.48-2.37.48h-7.31v-3.09h5.48c-.56-.52-1.02-1.21-1.38-2.06s-.55-1.65-.55-2.41c0-2.06.58-3.65,1.75-4.76,1.08-1,2.54-1.51,4.38-1.51Zm-.91-1.85h-3.17v-3.44h3.17v3.44Zm.91,4.95c-.74,0-1.31.33-1.72.99-.34.52-.51,1.17-.51,1.94,0,1.97.74,3.44,2.23,4.41,1.47-.97,2.2-2.44,2.2-4.41,0-.89-.21-1.61-.65-2.15-.39-.52-.91-.78-1.56-.78Zm3.79-4.95h-3.17v-3.44h3.17v3.44Z"/>
      <path class="cls-2" d="m159.82,198.43v13.2c0,4-1.98,6-5.94,6h-1.96v-3.09h1.96c.66,0,1.18-.22,1.56-.66s.56-1.04.56-1.81v-13.63h3.82Z"/>
      <path class="cls-2" d="m167.43,198.43v19.2h-3.82v-19.2h3.82Z"/>
    </g>
  </g>
</svg>