<?xml version="1.0" encoding="UTF-8"?>
<svg id="Layer_1" data-name="Layer 1" xmlns="http://www.w3.org/2000/svg" xmlns:xlink="http://www.w3.org/1999/xlink" viewBox="0 0 188 235">
  <defs>
    <style>
      .cls-1 {
        fill: #fff;
      }

      .cls-2 {
        fill: none;
        stroke: #ff9f1c;
        stroke-linecap: round;
        stroke-linejoin: round;
        stroke-width: 2px;
      }

      .cls-3 {
        fill: #2baf9f;
      }

      .cls-4 {
        fill: #ffd9b0;
        filter: url(#outer-glow-1);
      }

      .cls-5 {
        filter: url(#drop-shadow-2);
      }

      .cls-6 {
        fill: #ffaa45;
      }
    </style>
    <filter id="outer-glow-1" filterUnits="userSpaceOnUse">
      <feOffset dx="0" dy="0"/>
      <feGaussianBlur result="blur" stdDeviation="5"/>
      <feFlood flood-color="#000" flood-opacity=".17"/>
      <feComposite in2="blur" operator="in"/>
      <feComposite in="SourceGraphic"/>
    </filter>
    <filter id="drop-shadow-2" filterUnits="userSpaceOnUse">
      <feOffset dx="3" dy="4"/>
      <feGaussianBlur result="blur-2" stdDeviation="0"/>
      <feFlood flood-color="#000" flood-opacity=".15"/>
      <feComposite in2="blur-2" operator="in"/>
      <feComposite in="SourceGraphic"/>
    </filter>
  </defs>
  <rect class="cls-6" x="4.17" y="189.99" width="179.67" height="43.5" rx="20.43" ry="20.43"/>
  <g>
    <path class="cls-1" d="m37.55,217.63h-.91c0,.89-.29,1.84-.86,2.82-.68,1.2-1.64,2.15-2.88,2.85-1.49.88-3.26,1.32-5.32,1.32-3.12,0-5.52-.93-7.2-2.79-1.4-1.56-2.1-3.55-2.1-5.97,0-2.08.5-3.87,1.5-5.38l2.69,1.83c-.45,1.06-.67,2.09-.67,3.09,0,2.01.58,3.53,1.75,4.57,1,.91,2.36,1.37,4.06,1.37s3.06-.48,4.11-1.45c.75-.68,1.13-1.34,1.13-1.99,0-.18-.1-.27-.3-.27h-3.82v-3.09h8.82v3.09Zm-10.97,12.31h-3.17v-3.44h3.17v3.44Zm4.7,0h-3.17v-3.44h3.17v3.44Z"/>
    <path class="cls-1" d="m44.94,204.11v7.53c0,4-1.98,6-5.94,6h-1.96v-3.09h1.96c.66,0,1.18-.22,1.56-.66s.56-1.04.56-1.81v-7.96h3.82Zm.03-2.04h-3.82v-3.52h3.82v3.52Z"/>
    <path class="cls-1" d="m52.57,198.43v13.63c0,.79.21,1.41.62,1.85.38.41.87.62,1.48.62h.81v3.09h-.83c-3.92,0-5.89-2-5.89-6v-13.2h3.82Z"/>
    <path class="cls-1" d="m54.97,214.54h1.99c.66,0,1.18-.22,1.56-.66.38-.44.56-1.04.56-1.81v-7.96h3.82v7.53c0,1.09-.14,2.01-.43,2.74.2.11.48.16.86.16h2.34v3.09h-2.31c-1.31,0-2.13-.36-2.47-1.08-.99.72-2.29,1.08-3.92,1.08h-1.99v-3.09Zm5.21-12.53h-3.17v-3.44h3.17v3.44Zm2.21-4.62h-2.88v-3.12h2.88v3.12Zm2.5,4.62h-3.17v-3.44h3.17v3.44Z"/>
    <path class="cls-1" d="m73.09,198.43v13.2c0,4-1.98,6-5.94,6h-1.96v-3.09h1.96c.66,0,1.18-.22,1.56-.66s.56-1.04.56-1.81v-13.63h3.82Z"/>
    <path class="cls-1" d="m80.69,198.43v19.2h-3.82v-19.2h3.82Z"/>
    <path class="cls-1" d="m107.9,217.63h-.83c-1.31,0-2.41-.23-3.31-.7-.99,1.2-2.57,1.8-4.76,1.8s-3.83-.62-4.81-1.86c-.82.27-1.24.93-1.24,1.99v8.12h-3.82v-7.88c0-1.79.36-3.11,1.08-3.95.63-.73,1.57-1.2,2.82-1.4-.04-.47-.05-.83-.05-1.1v-2.77c0-4.05,2.01-6.08,6.02-6.08s5.99,2.03,5.99,6.08v2.18c0,.79.21,1.41.62,1.85.38.41.87.62,1.48.62h.81v3.09Zm-6.72-4.54v-3.63c0-1.7-.73-2.55-2.18-2.55s-2.2.85-2.2,2.55v3.63c0,1.7.73,2.55,2.2,2.55s2.18-.85,2.18-2.55Z"/>
    <path class="cls-1" d="m136.55,217.63h-3.36c-1.18,0-1.97-.3-2.37-.91-.99.82-2.37,1.24-4.14,1.24-1.63,0-2.94-.45-3.92-1.34-.95.88-2.33,1.32-4.14,1.32s-3.3-.47-4.25-1.42c-.93.75-2.2,1.13-3.82,1.13h-3.17v-3.09h3.17c.66,0,1.18-.22,1.56-.66.38-.44.56-1.04.56-1.81v-7.96h3.82v8.25c0,.82.2,1.45.59,1.88.38.41.89.62,1.53.62s1.18-.22,1.56-.66.56-1.05.56-1.84v-8.25h3.82v8.28c0,.82.2,1.45.59,1.88.36.39.87.59,1.53.59s1.21-.21,1.57-.64.55-1.04.55-1.83v-8.25h3.82v7.82c0,.91-.11,1.72-.32,2.42.2.11.48.16.86.16h3.39v3.09Z"/>
    <path class="cls-1" d="m145.72,203.81c2.1,0,3.68.65,4.76,1.94.9,1.09,1.34,2.54,1.34,4.33,0,.75-.18,1.55-.55,2.41s-.83,1.54-1.38,2.06h4.35v3.09h-6.18c-.97,0-1.75-.16-2.34-.48-.61.32-1.4.48-2.37.48h-7.31v-3.09h5.48c-.56-.52-1.02-1.21-1.38-2.06s-.55-1.65-.55-2.41c0-2.06.58-3.65,1.75-4.76,1.08-1,2.54-1.51,4.38-1.51Zm-.91-1.85h-3.17v-3.44h3.17v3.44Zm.91,4.95c-.74,0-1.31.33-1.72.99-.34.52-.51,1.17-.51,1.94,0,1.97.74,3.44,2.23,4.41,1.47-.97,2.2-2.44,2.2-4.41,0-.89-.21-1.61-.65-2.15-.39-.52-.91-.78-1.56-.78Zm3.79-4.95h-3.17v-3.44h3.17v3.44Z"/>
    <path class="cls-1" d="m161.66,198.43v13.2c0,4-1.98,6-5.94,6h-1.96v-3.09h1.96c.66,0,1.18-.22,1.56-.66s.56-1.04.56-1.81v-13.63h3.82Z"/>
    <path class="cls-1" d="m169.27,198.43v19.2h-3.82v-19.2h3.82Z"/>
  </g>
  <g>
    <rect class="cls-4" x="16.21" y="16.82" width="155.58" height="155.58" rx="77.79" ry="77.79"/>
    <circle class="cls-1" cx="94" cy="94.61" r="69.79"/>
  </g>
  <g class="cls-5">
    <path class="cls-3" d="m56.67,79.13c.94.54,2.04.69,3.09.41,1.05-.28,1.93-.96,2.47-1.9,1.12-1.95.45-4.44-1.49-5.56-.64-.37-1.34-.55-2.03-.55-1.41,0-2.78.73-3.54,2.04-1.12,1.94-.45,4.44,1.49,5.56h0Zm0,0"/>
    <path class="cls-3" d="m98.07,59.32c0,2.25-1.82,4.07-4.07,4.07s-4.07-1.82-4.07-4.07,1.82-4.07,4.07-4.07,4.07,1.82,4.07,4.07h0Zm0,0"/>
    <path class="cls-3" d="m65.14,77.77l12.56,7.13,14.94-8.71v-10.22c-2.42-.49-4.34-2.29-5.08-4.6l-22.62,11.64c.62,1.49.72,3.18.19,4.76h0Zm0,0"/>
    <path class="cls-3" d="m79.07,87.25v14.73l14.93,8.71,14.93-8.71v-14.73l-14.93-8.71-14.93,8.71Zm24.43,7.37c0,5.24-4.26,9.5-9.5,9.5s-9.5-4.26-9.5-9.5,4.26-9.5,9.5-9.5,9.5,4.26,9.5,9.5h0Zm0,0"/>
    <g>
      <path class="cls-3" d="m100.79,94.61c0,3.75-3.04,6.79-6.79,6.79s-6.79-3.04-6.79-6.79,3.04-6.79,6.79-6.79,6.79,3.04,6.79,6.79h0Zm0,0"/>
      <path class="cls-3" d="m128.24,79.54c1.05.28,2.15.14,3.09-.41,1.95-1.12,2.62-3.62,1.49-5.56-.75-1.3-2.13-2.03-3.54-2.03-.69,0-1.39.17-2.03.54-1.95,1.12-2.61,3.62-1.49,5.56.54.94,1.42,1.62,2.47,1.9h0Zm0,0"/>
      <path class="cls-3" d="m95.36,76.18l14.94,8.72,12.56-7.13c-.43-1.26-.47-2.61-.12-3.92.08-.29.2-.57.32-.84l-22.62-11.65c-.74,2.32-2.67,4.11-5.08,4.6v10.22Zm0,0"/>
      <path class="cls-3" d="m58.7,109.54c-.69,0-1.39.17-2.03.54-1.95,1.12-2.61,3.62-1.49,5.56.54.94,1.42,1.62,2.47,1.9,1.05.28,2.15.14,3.09-.41,1.95-1.12,2.61-3.62,1.49-5.56-.75-1.3-2.13-2.03-3.53-2.03h0Zm0,0"/>
    </g>
    <path class="cls-3" d="m122.86,111.45l-12.56-7.13-14.94,8.71v10.22c2.42.49,4.34,2.29,5.08,4.6l22.62-11.64c-.62-1.49-.73-3.18-.19-4.76h0Zm0,0"/>
    <g>
      <path class="cls-3" d="m127.94,106.99v-24.75c-.13-.03-.27-.05-.4-.08-1.3-.35-2.44-1.06-3.31-2.05l-12.58,7.14v14.71l12.58,7.14c.87-.99,2.01-1.7,3.31-2.04.13-.04.27-.04.4-.07h0Zm0,0"/>
      <path class="cls-3" d="m131.33,110.09c-.63-.36-1.32-.55-2.03-.55-.35,0-.71.05-1.06.14-1.05.28-1.93.96-2.47,1.9-1.12,1.95-.45,4.44,1.49,5.56,1.94,1.12,4.44.45,5.56-1.49,1.12-1.95.45-4.44-1.49-5.56h0Zm0,0"/>
    </g>
    <path class="cls-3" d="m76.35,87.26l-12.58-7.14c-.87.98-2.01,1.7-3.31,2.04-.13.04-.27.05-.4.08v24.75c1.4.29,2.72,1,3.71,2.11l12.58-7.14v-14.71Zm0,0"/>
    <path class="cls-3" d="m98.07,129.91c0,2.25-1.82,4.07-4.07,4.07s-4.07-1.82-4.07-4.07,1.82-4.07,4.07-4.07,4.07,1.82,4.07,4.07h0Zm0,0"/>
    <path class="cls-3" d="m92.64,113.04l-14.94-8.72-12.56,7.13c.53,1.58.43,3.27-.19,4.76l22.62,11.65c.74-2.32,2.66-4.11,5.08-4.6v-10.22h0Zm0,0"/>
  </g>
  <path class="cls-2" d="m86.47,150.84l6.94-5.33c.31-.24.87-.24,1.18,0l6.94,5.33"/>
</svg>