<?xml version="1.0" encoding="UTF-8"?>
<svg xmlns="http://www.w3.org/2000/svg" viewBox="0 0 262 235">
  <defs>
    <style>
      .cls-1, .cls-2 {
        fill: #fff;
      }

      .cls-3 {
        opacity: .5;
      }

      .cls-4 {
        fill: #2baf9f;
      }

      .cls-2, .cls-5 {
        opacity: .8;
      }
    </style>
  </defs>
  <g id="Layer_1" data-name="Layer 1">
    <g>
      <rect class="cls-2" x="53.21" y="16.82" width="155.58" height="155.58" rx="77.79" ry="77.79"/>
      <g class="cls-3">
        <g>
          <g>
            <path class="cls-4" d="m151.68,122.35c-.04.56-.52.98-1.08.98h-23.68c-.29,0-.52-.23-.52-.52v-1.04c0-.29.23-.52.52-.52h23.71c.6,0,1.08.51,1.04,1.11h0Zm0,0"/>
            <path class="cls-4" d="m149.73,116.28v1.83c0,.58-.47,1.04-1.04,1.04h-21.76c-.29,0-.52-.23-.52-.52,0-.42.05-.77-.31-1.13-.67-.67-1.78-.18-1.78.78v4.99c0,1.81-1.63,3.02-3.29,2.58l-2.1-.57-2.04.55c-1.76.47-3.35-.81-3.35-2.5v-5.06c0-.56-.42-1.04-.97-1.08-.61-.04-1.11.44-1.11,1.04v.39c0,.29-.23.52-.52.52h-.29c-1.05,0-1.96-.81-2.01-1.86-.06-1.12.84-2.06,1.96-2.06,28.45,0,35.95.01,38.11,0,.58,0,1.05.46,1.05,1.04h0Zm0,0"/>
            <path class="cls-4" d="m110.92,121.24h-.35c-2.27,0-4.11-1.88-4.04-4.17.06-1.89,1.44-3.42,3.22-3.82.48-.11.83-.53.83-1.02v-47.79c0-.67-.62-1.16-1.27-1.02-2.78.59-4.86,3.05-4.86,6v47.77c0,3.39,2.75,6.13,6.13,6.13h.35c.29,0,.52-.23.52-.52v-1.04c0-.29-.23-.52-.52-.52h0Zm0,0"/>
          </g>
          <path class="cls-4" d="m125.32,79.99v-3.13c0-1.15-.94-2.09-2.09-2.09s-2.09.94-2.09,2.09v3.13h4.18Zm0,0"/>
          <path class="cls-4" d="m142.55,95.66h-22.19c-.58,0-1.04.47-1.04,1.04v3.65c0,.58.47,1.04,1.04,1.04h22.19c.58,0,1.04-.47,1.04-1.04v-3.65c0-.58-.47-1.04-1.04-1.04h0Zm0,0"/>
          <path class="cls-4" d="m149.08,63.29h-35.37c-.58,0-1.04.47-1.04,1.04v47.77c0,.58.47,1.04,1.04,1.04h35.37c1.73,0,3.13-1.4,3.13-3.13v-43.59c0-1.73-1.4-3.13-3.13-3.13h0Zm-3.39,37.07c0,1.73-1.41,3.13-3.13,3.13h-22.19c-1.73,0-3.13-1.41-3.13-3.13v-3.65c0-1.73,1.41-3.13,3.13-3.13h22.19c1.73,0,3.13,1.41,3.13,3.13v3.65Zm0,0"/>
          <path class="cls-4" d="m157.56,70.6v4.83c0,1.32-.62,2.5-1.58,3.27-.68.54-1.69.05-1.69-.82v-9.71c0-.87,1.01-1.37,1.69-.82.96.77,1.58,1.95,1.58,3.27h0Zm0,0"/>
          <path class="cls-4" d="m157.56,85.61v4.83c0,1.32-.62,2.5-1.58,3.27-.68.54-1.69.05-1.69-.82v-9.71c0-.87,1.01-1.37,1.69-.82.96.77,1.58,1.95,1.58,3.27h0Zm0,0"/>
          <path class="cls-4" d="m157.56,100.62v4.83c0,1.32-.62,2.5-1.58,3.27-.68.54-1.69.05-1.69-.82v-9.71c0-.87,1.01-1.37,1.69-.82.96.77,1.58,1.95,1.58,3.27h0Zm0,0"/>
        </g>
      </g>
    </g>
  </g>
  <g id="Layer_2" data-name="Layer 2">
    <g class="cls-5">
      <path class="cls-1" d="m38.53,204.5v7.84c0,4.16-2.06,6.24-6.19,6.24h-8.54c-2.3,0-4.09-.77-5.38-2.32-1.01-1.21-1.51-2.64-1.51-4.28,0-1.31.17-2.45.5-3.43.34-.98.88-1.91,1.62-2.79l2.77,1.88c-.93,1.16-1.4,2.47-1.4,3.95,0,1.05.39,1.93,1.18,2.66.78.75,1.82,1.12,3.11,1.12h7.64c.69,0,1.23-.23,1.62-.69.39-.46.59-1.09.59-1.89v-8.29h3.98Zm-11.2-1.82h-3.3v-3.58h3.3v3.58Zm4.9,0h-3.3v-3.58h3.3v3.58Z"/>
      <path class="cls-1" d="m46.45,198.59v14.2c0,.82.21,1.47.64,1.93.39.43.91.64,1.54.64h.84v3.22h-.87c-4.09,0-6.13-2.08-6.13-6.24v-13.75h3.98Z"/>
      <path class="cls-1" d="m58.3,204.19c2.54,0,4.49.86,5.85,2.58.39.5.68,1.09.87,1.75.19.66.37,1.74.56,3.23.19,1.4.42,2.31.7,2.74.37.58,1.04.87,1.99.87h.25v3.22h-19.57v-3.22h13.47c-.24-.41-.41-.82-.5-1.22-.09-.4-.19-1.13-.28-2.2-.13-1.36-.42-2.43-.87-3.19-.24-.41-.59-.74-1.05-.98-.46-.24-.94-.36-1.44-.36-.69,0-1.28.16-1.78.48-.5.32-.97.84-1.41,1.57l-3-1.68c.58-1.16,1.42-2.04,2.52-2.66,1.06-.62,2.3-.92,3.7-.92Z"/>
      <path class="cls-1" d="m79.16,218.58h-2.41c-1.38,0-2.24-.38-2.58-1.15-1.01.77-2.39,1.15-4.14,1.15h-2.04v-3.22h2.04c.69,0,1.23-.23,1.62-.69.39-.46.59-1.09.59-1.89v-14.2h3.98v13.75c0,1.1-.14,2.04-.42,2.83.17.13.49.2.95.2h2.41v3.22Z"/>
      <path class="cls-1" d="m104.97,218.58h-1.93c-1.36,0-2.22-.37-2.58-1.12-1.01.75-2.35,1.12-4.03,1.12h-17.81v-3.22h4.26v-16.77h3.98v9.24c.95-1.25,2.23-2.2,3.84-2.86,1.29-.52,2.63-.78,4.03-.78,2.78,0,4.86.92,6.24,2.77,1.06,1.44,1.6,3.24,1.6,5.4,0,1.05-.15,1.99-.45,2.83.21.11.51.17.92.17h1.93v3.22Zm-18.12-3.22h9.55c.67,0,1.21-.24,1.61-.73.4-.49.6-1.13.6-1.93,0-1.66-.37-2.96-1.12-3.89-.73-.93-1.75-1.4-3.08-1.4-1.85,0-3.56.97-5.12,2.91-1.21,1.51-2.03,3.19-2.44,5.04Z"/>
      <path class="cls-1" d="m130.82,218.58h-1.93c-1.38,0-2.24-.38-2.58-1.15-1.01.77-2.36,1.15-4.06,1.15h-9.58v2.04h-3.98v-2.04h-4.26v-3.22h4.26v-10.89h3.98v3.36c.95-1.25,2.23-2.2,3.84-2.86,1.29-.52,2.63-.78,4.03-.78,2.78,0,4.86.92,6.24,2.77,1.06,1.44,1.6,3.24,1.6,5.4,0,1.05-.15,1.99-.45,2.83.21.11.52.17.95.17h1.93v3.22Zm-18.14-3.22h9.55c.67,0,1.21-.24,1.61-.73.4-.49.6-1.13.6-1.93,0-1.66-.37-2.96-1.12-3.89-.73-.93-1.75-1.4-3.08-1.4-1.85,0-3.56.97-5.12,2.91-1.21,1.51-2.03,3.19-2.44,5.04Z"/>
      <path class="cls-1" d="m150.08,218.58h-.87c-1.34,0-2.48-.24-3.42-.73-1.03,1.27-2.69,1.9-4.98,1.9s-3.97-.63-5.01-1.9c-.91.49-2.07.73-3.47.73h-2.04v-3.22h2.04c.69,0,1.23-.23,1.62-.69.39-.46.59-1.09.59-1.89v-2.27c0-4.22,2.09-6.33,6.27-6.33s6.24,2.11,6.24,6.33v2.27c0,.82.21,1.47.64,1.93.39.43.91.64,1.54.64h.84v3.22Zm-7-4.7v-3.81c0-1.77-.76-2.66-2.27-2.66s-2.3.89-2.3,2.66v3.81c0,1.77.76,2.66,2.3,2.66s2.27-.89,2.27-2.66Z"/>
      <path class="cls-1" d="m157.78,198.59v13.75c0,4.16-2.06,6.24-6.19,6.24h-2.04v-3.22h2.04c.69,0,1.23-.23,1.62-.69.39-.46.59-1.09.59-1.89v-14.2h3.98Z"/>
      <path class="cls-1" d="m165.71,198.59v19.99h-3.98v-19.99h3.98Z"/>
      <path class="cls-1" d="m187.55,203.55v9.24c0,.78.21,1.42.62,1.9.39.45.9.67,1.54.67h.87v3.22h-.9c-2.2,0-3.8-.6-4.79-1.79-.49.34-1.09.61-1.82.83-.73.21-1.42.32-2.07.32-1.98,0-3.48-.58-4.51-1.74-.95-1.08-1.43-2.61-1.43-4.59v-1.09c0-2.17.66-3.82,1.99-4.96,1.06-.9,2.41-1.34,4.03-1.34h.2c.73,0,1.49.15,2.3.45v-1.12h3.98Zm-6.94-1.74h-3.3v-3.58h3.3v3.58Zm.7,5.6c-.73,0-1.29.23-1.68.69-.39.46-.59,1.12-.59,1.97v1.99c0,1.77.76,2.66,2.27,2.66.82,0,1.61-.3,2.35-.9-.06-.5-.08-1.06-.08-1.68v-4.12c-.52-.41-1.28-.62-2.27-.62Zm4.2-5.6h-3.3v-3.58h3.3v3.58Z"/>
      <path class="cls-1" d="m209.83,218.58h-.87c-1.34,0-2.48-.24-3.42-.73-1.03,1.27-2.69,1.9-4.98,1.9s-3.97-.63-5.01-1.9c-.91.49-2.07.73-3.47.73h-2.04v-3.22h2.04c.69,0,1.23-.23,1.62-.69.39-.46.59-1.09.59-1.89v-2.27c0-4.22,2.09-6.33,6.27-6.33s6.24,2.11,6.24,6.33v2.27c0,.82.21,1.47.64,1.93.39.43.91.64,1.54.64h.84v3.22Zm-7-4.7v-3.81c0-1.77-.76-2.66-2.27-2.66s-2.3.89-2.3,2.66v3.81c0,1.77.76,2.66,2.3,2.66s2.27-.89,2.27-2.66Z"/>
      <path class="cls-1" d="m217.53,204.5v7.84c0,4.16-2.06,6.24-6.19,6.24h-2.04v-3.22h2.04c.69,0,1.23-.23,1.62-.69.39-.46.59-1.09.59-1.89v-8.29h3.98Zm.95-2.13h-5.91v-1.74h.98c-.21-.39-.31-.83-.31-1.32,0-.69.26-1.29.78-1.79.5-.47,1.13-.7,1.88-.7.47,0,.91.13,1.34.39.43.26.74.59.92.98l-1.4.81s-.04-.05-.06-.08c-.21-.34-.46-.5-.76-.5-.52,0-.78.34-.78,1.01,0,.36.12.64.36.85.24.21.57.33.98.35h1.96v1.74Z"/>
      <path class="cls-1" d="m225.49,198.59v14.2c0,.82.21,1.47.64,1.93.39.43.91.64,1.54.64h.84v3.22h-.87c-4.09,0-6.13-2.08-6.13-6.24v-13.75h3.98Z"/>
      <path class="cls-1" d="m238.53,204.19c4.16,0,6.24,2.11,6.24,6.33v1.74c0,4.22-2.08,6.33-6.24,6.33h-10.56v-3.22h5.15c-.58-.82-.87-1.86-.87-3.11v-1.74c0-4.22,2.09-6.33,6.27-6.33Zm-.78-1.93h-3.3v-3.58h3.3v3.58Zm.78,5.15c-1.53,0-2.3.89-2.3,2.66v2.63c0,1.77.77,2.66,2.3,2.66s2.27-.89,2.27-2.66v-2.63c0-1.77-.76-2.66-2.27-2.66Zm4.12-5.15h-3.3v-3.58h3.3v3.58Z"/>
    </g>
  </g>
</svg>