<?xml version="1.0" encoding="UTF-8"?>
<svg id="Layer_2" data-name="Layer 2" xmlns="http://www.w3.org/2000/svg" xmlns:xlink="http://www.w3.org/1999/xlink" viewBox="0 0 481.33 93.38">
  <defs>
    <style>
      .cls-1 {
        fill: #fff;
      }

      .cls-2 {
        clip-path: url(#clippath);
      }

      .cls-3 {
        fill: none;
      }

      .cls-4 {
        fill: #ff9f1c;
      }
    </style>
    <clipPath id="clippath">
      <circle class="cls-3" cx="445.74" cy="35.59" r="35.59"/>
    </clipPath>
  </defs>
  <g id="Layer_1-2" data-name="Layer 1">
    <g>
      <circle class="cls-1" cx="445.74" cy="35.59" r="35.59"/>
      <g>
        <path class="cls-1" d="m33.55,23.19c2.44,0,4.79.64,7.07,1.92,2.27,1.24,3.93,2.94,4.96,5.08l-6.7,3.6c-1.49-2.31-3.29-3.47-5.4-3.47-1.78,0-3.22.81-4.34,2.42-1.03,1.49-1.55,3.47-1.55,5.95.04,3.6,1.16,6.16,3.35,7.69,1.49,1.03,3.29,1.55,5.4,1.55h4.09c3.68,0,5.52,1.9,5.52,5.71,0,2.64-.72,5.23-2.17,7.75-1.61,2.89-3.91,5.19-6.88,6.88-3.43,1.94-7.48,2.92-12.15,2.92-7.19,0-12.73-2.15-16.62-6.45-3.22-3.6-4.84-8.19-4.84-13.77,0-4.79,1.16-8.93,3.47-12.4l6.2,4.22c-1.03,2.44-1.55,4.82-1.55,7.13,0,4.63,1.34,8.14,4.03,10.54,2.31,2.11,5.44,3.16,9.36,3.16s7.05-1.12,9.49-3.35c1.74-1.61,2.6-3.14,2.6-4.59,0-.41-.23-.62-.68-.62h-2.67c-4.34,0-7.98-1.74-10.91-5.21-2.56-3.02-3.84-6.59-3.84-10.73,0-4.96,1.45-8.93,4.34-11.91,2.69-2.69,6.16-4.03,10.42-4.03Z"/>
        <path class="cls-1" d="m87.37,55.06h-6.51c-.29,10.75-5.25,16.12-14.88,16.12-3.97,0-7.75-.89-11.35-2.67l2.73-6.45c2.48,1.16,4.92,1.74,7.32,1.74,2.65,0,4.55-.64,5.71-1.92,1.12-1.2,1.67-3.04,1.67-5.52v-1.3h-6.02c-4.05,0-7.19-1.22-9.43-3.66-2.23-2.4-3.35-5.85-3.35-10.36v-3.84c0-9.34,4.61-14.01,13.83-14.01,4.84,0,8.37,1.24,10.6,3.72,2.11,2.27,3.16,5.71,3.16,10.29v10.73h6.51v7.13Zm-25.3-18.85v5.83c0,3.93,1.67,5.89,5.02,5.89h4.96v-11.72c0-3.93-1.65-5.89-4.96-5.89s-5.02,1.96-5.02,5.89Z"/>
        <path class="cls-1" d="m86.19,47.93h4.59c1.53,0,2.73-.51,3.6-1.52.87-1.01,1.3-2.41,1.3-4.19v-18.36h8.81v17.36c0,2.52-.33,4.63-.99,6.33.45.25,1.12.37,1.98.37h5.4v7.13h-5.33c-3.02,0-4.92-.83-5.71-2.48-2.27,1.65-5.29,2.48-9.05,2.48h-4.59v-7.13Zm12.15-28.9h-7.32v-7.94h7.32v7.94Zm10.85,0h-7.32v-7.94h7.32v7.94Z"/>
        <path class="cls-1" d="m130.47,23.19c5.62,0,9.94,1.9,12.96,5.71.87,1.12,1.51,2.41,1.92,3.88.41,1.47.83,3.86,1.24,7.16.41,3.1.93,5.13,1.55,6.08.83,1.28,2.29,1.92,4.4,1.92h.56v7.13h-43.34v-7.13h29.83c-.54-.91-.91-1.81-1.12-2.7-.21-.89-.41-2.51-.62-4.87-.29-3.02-.93-5.37-1.92-7.07-.54-.91-1.31-1.63-2.33-2.17-1.01-.54-2.08-.81-3.19-.81-1.53,0-2.84.35-3.94,1.05-1.1.7-2.14,1.86-3.13,3.47l-6.63-3.72c1.28-2.56,3.14-4.53,5.58-5.89,2.36-1.36,5.08-2.05,8.19-2.05Z"/>
        <path class="cls-1" d="m195.77,55.06h-1.92c-2.98,0-5.5-.54-7.57-1.61-2.27,2.81-5.95,4.22-11.04,4.22s-8.79-1.41-11.1-4.22c-2.03,1.08-4.59,1.61-7.69,1.61h-4.53v-7.13h4.53c1.53,0,2.73-.51,3.6-1.52.87-1.01,1.3-2.41,1.3-4.19v-5.02c0-9.34,4.63-14.01,13.89-14.01s13.83,4.67,13.83,14.01v5.02c0,1.82.47,3.25,1.43,4.28.87.95,2,1.43,3.41,1.43h1.86v7.13Zm-15.5-10.42v-8.43c0-3.93-1.67-5.89-5.02-5.89s-5.08,1.96-5.08,5.89v8.43c0,3.93,1.69,5.89,5.08,5.89s5.02-1.96,5.02-5.89Z"/>
        <path class="cls-1" d="m212.82,10.78v30.45c0,9.22-4.57,13.83-13.7,13.83h-4.53v-7.13h4.53c1.53,0,2.73-.51,3.6-1.52.87-1.01,1.3-2.41,1.3-4.19V10.78h8.81Z"/>
        <path class="cls-1" d="m230.37,10.78v44.28h-8.81V10.78h8.81Z"/>
        <path class="cls-1" d="m327.04,23.93v18.04c0,9.22-4.57,13.83-13.7,13.83-3.97,0-7.03-.95-9.18-2.85-2.03,1.86-4.94,2.79-8.74,2.79-2.27,0-4.15-.5-5.64-1.49v-.06c-.54,5.5-2.58,9.74-6.14,12.71-3.39,2.85-7.96,4.28-13.7,4.28-3.64,0-6.97-.83-9.98-2.48-2.94-1.61-5.25-3.82-6.95-6.64-1.74-2.94-2.6-6.2-2.6-9.8,0-3.18.49-6.27,1.46-9.27.97-3,2.3-5.59,4-7.78l6.14,4.15c-2.32,3.6-3.47,7.57-3.47,11.91,0,3.97,1.28,7.13,3.84,9.49,2.11,1.9,4.65,2.85,7.63,2.85,3.55,0,6.34-1.08,8.37-3.22,1.82-1.94,2.73-4.55,2.73-7.81v-28.77h8.81v19.1c0,1.86.45,3.31,1.36,4.34.87.95,2.02,1.43,3.47,1.43,1.57,0,2.78-.5,3.63-1.49.85-.99,1.27-2.42,1.27-4.28v-19.04h8.81v19.16c0,3.76,1.63,5.64,4.9,5.64,1.57,0,2.78-.5,3.63-1.49.85-.99,1.27-2.4,1.27-4.22v-19.04h8.81Z"/>
        <path class="cls-1" d="m356.31,55.06h-4.59c-.5,0-1.16-.04-1.98-.12v.81c0,10.29-4.36,15.44-13.08,15.44-3.06,0-5.97-.7-8.74-2.11l2.73-6.45c1.82.78,3.53,1.18,5.15,1.18,1.98,0,3.39-.77,4.22-2.29.62-1.2.93-2.94.93-5.21V23.81h8.8v23.87c.46.17,1.03.25,1.74.25h4.84v7.13Z"/>
        <path class="cls-1" d="m406.54,55.06h-4.28c-3.02,0-4.92-.83-5.71-2.48-2.32,1.65-5.31,2.48-8.99,2.48h-9.36c-2.44,0-4.44-.41-6.01-1.24-1.57.83-3.56,1.24-5.95,1.24h-11.1v-7.13h8.68c-.58-.7-1.07-1.6-1.46-2.7-.39-1.1-.59-2.14-.59-3.13,0-3.27.79-5.91,2.36-7.94,1.36-1.74,3.2-2.83,5.52-3.29l3.1-5.89c3.06-1.2,6.43-1.8,10.11-1.8,5.83.04,10.46,1.98,13.89,5.83,2.98,3.35,4.46,7.59,4.46,12.71,0,2.23-.31,4.2-.93,5.89.41.21,1.07.31,1.98.31h4.28v7.13Zm-34.35-7.5c1.16-.29,2.07-.94,2.73-1.95.66-1.01.99-2.26.99-3.75,0-1.65-.33-2.97-.99-3.94-.66-.97-1.57-1.46-2.73-1.46s-2.07.49-2.73,1.46c-.66.97-.99,2.28-.99,3.94,0,1.45.34,2.69,1.02,3.72.68,1.03,1.58,1.7,2.7,1.98Zm8.43.37h6.88c1.49,0,2.68-.55,3.57-1.64.89-1.09,1.33-2.57,1.33-4.43,0-3.51-1.08-6.35-3.22-8.5-2.03-1.98-4.73-3-8.12-3.04-2.36,0-4.59.17-6.7.5,2.77.46,4.88,1.8,6.33,4.03,1.28,1.94,1.92,4.36,1.92,7.25,0,1.08-.19,2.16-.56,3.26s-.85,1.95-1.43,2.57Z"/>
        <path class="cls-1" d="m418.26,55.06h-12.9v-7.13h12.9v7.13Z"/>
        <path class="cls-1" d="m429.92,55.06h-12.9v-7.13h12.9v7.13Z"/>
        <path class="cls-1" d="m452.05,23.19c9.22,0,13.83,4.67,13.83,14.01v3.84c0,9.34-4.61,14.01-13.83,14.01h-23.38v-7.13h11.41c-1.28-1.82-1.92-4.11-1.92-6.88v-3.84c0-9.34,4.63-14.01,13.89-14.01Zm0,7.13c-3.39,0-5.08,1.96-5.08,5.89v5.83c0,3.93,1.69,5.89,5.08,5.89s5.02-1.96,5.02-5.89v-5.83c0-3.93-1.67-5.89-5.02-5.89Zm4.4-11.16h-8.81v-8.12h8.81v8.12Z"/>
      </g>
      <g class="cls-2">
        <g>
          <path class="cls-4" d="m33.55,23.19c2.44,0,4.79.64,7.07,1.92,2.27,1.24,3.93,2.94,4.96,5.08l-6.7,3.6c-1.49-2.31-3.29-3.47-5.4-3.47-1.78,0-3.22.81-4.34,2.42-1.03,1.49-1.55,3.47-1.55,5.95.04,3.6,1.16,6.16,3.35,7.69,1.49,1.03,3.29,1.55,5.4,1.55h4.09c3.68,0,5.52,1.9,5.52,5.71,0,2.64-.72,5.23-2.17,7.75-1.61,2.89-3.91,5.19-6.88,6.88-3.43,1.94-7.48,2.92-12.15,2.92-7.19,0-12.73-2.15-16.62-6.45-3.22-3.6-4.84-8.19-4.84-13.77,0-4.79,1.16-8.93,3.47-12.4l6.2,4.22c-1.03,2.44-1.55,4.82-1.55,7.13,0,4.63,1.34,8.14,4.03,10.54,2.31,2.11,5.44,3.16,9.36,3.16s7.05-1.12,9.49-3.35c1.74-1.61,2.6-3.14,2.6-4.59,0-.41-.23-.62-.68-.62h-2.67c-4.34,0-7.98-1.74-10.91-5.21-2.56-3.02-3.84-6.59-3.84-10.73,0-4.96,1.45-8.93,4.34-11.91,2.69-2.69,6.16-4.03,10.42-4.03Z"/>
          <path class="cls-4" d="m87.37,55.06h-6.51c-.29,10.75-5.25,16.12-14.88,16.12-3.97,0-7.75-.89-11.35-2.67l2.73-6.45c2.48,1.16,4.92,1.74,7.32,1.74,2.65,0,4.55-.64,5.71-1.92,1.12-1.2,1.67-3.04,1.67-5.52v-1.3h-6.02c-4.05,0-7.19-1.22-9.43-3.66-2.23-2.4-3.35-5.85-3.35-10.36v-3.84c0-9.34,4.61-14.01,13.83-14.01,4.84,0,8.37,1.24,10.6,3.72,2.11,2.27,3.16,5.71,3.16,10.29v10.73h6.51v7.13Zm-25.3-18.85v5.83c0,3.93,1.67,5.89,5.02,5.89h4.96v-11.72c0-3.93-1.65-5.89-4.96-5.89s-5.02,1.96-5.02,5.89Z"/>
          <path class="cls-4" d="m86.19,47.93h4.59c1.53,0,2.73-.51,3.6-1.52.87-1.01,1.3-2.41,1.3-4.19v-18.36h8.81v17.36c0,2.52-.33,4.63-.99,6.33.45.25,1.12.37,1.98.37h5.4v7.13h-5.33c-3.02,0-4.92-.83-5.71-2.48-2.27,1.65-5.29,2.48-9.05,2.48h-4.59v-7.13Zm12.15-28.9h-7.32v-7.94h7.32v7.94Zm10.85,0h-7.32v-7.94h7.32v7.94Z"/>
          <path class="cls-4" d="m130.47,23.19c5.62,0,9.94,1.9,12.96,5.71.87,1.12,1.51,2.41,1.92,3.88.41,1.47.83,3.86,1.24,7.16.41,3.1.93,5.13,1.55,6.08.83,1.28,2.29,1.92,4.4,1.92h.56v7.13h-43.34v-7.13h29.83c-.54-.91-.91-1.81-1.12-2.7-.21-.89-.41-2.51-.62-4.87-.29-3.02-.93-5.37-1.92-7.07-.54-.91-1.31-1.63-2.33-2.17-1.01-.54-2.08-.81-3.19-.81-1.53,0-2.84.35-3.94,1.05-1.1.7-2.14,1.86-3.13,3.47l-6.63-3.72c1.28-2.56,3.14-4.53,5.58-5.89,2.36-1.36,5.08-2.05,8.19-2.05Z"/>
          <path class="cls-4" d="m195.77,55.06h-1.92c-2.98,0-5.5-.54-7.57-1.61-2.27,2.81-5.95,4.22-11.04,4.22s-8.79-1.41-11.1-4.22c-2.03,1.08-4.59,1.61-7.69,1.61h-4.53v-7.13h4.53c1.53,0,2.73-.51,3.6-1.52.87-1.01,1.3-2.41,1.3-4.19v-5.02c0-9.34,4.63-14.01,13.89-14.01s13.83,4.67,13.83,14.01v5.02c0,1.82.47,3.25,1.43,4.28.87.95,2,1.43,3.41,1.43h1.86v7.13Zm-15.5-10.42v-8.43c0-3.93-1.67-5.89-5.02-5.89s-5.08,1.96-5.08,5.89v8.43c0,3.93,1.69,5.89,5.08,5.89s5.02-1.96,5.02-5.89Z"/>
          <path class="cls-4" d="m212.82,10.78v30.45c0,9.22-4.57,13.83-13.7,13.83h-4.53v-7.13h4.53c1.53,0,2.73-.51,3.6-1.52.87-1.01,1.3-2.41,1.3-4.19V10.78h8.81Z"/>
          <path class="cls-4" d="m230.37,10.78v44.28h-8.81V10.78h8.81Z"/>
          <path class="cls-4" d="m327.04,23.93v18.04c0,9.22-4.57,13.83-13.7,13.83-3.97,0-7.03-.95-9.18-2.85-2.03,1.86-4.94,2.79-8.74,2.79-2.27,0-4.15-.5-5.64-1.49v-.06c-.54,5.5-2.58,9.74-6.14,12.71-3.39,2.85-7.96,4.28-13.7,4.28-3.64,0-6.97-.83-9.98-2.48-2.94-1.61-5.25-3.82-6.95-6.64-1.74-2.94-2.6-6.2-2.6-9.8,0-3.18.49-6.27,1.46-9.27.97-3,2.3-5.59,4-7.78l6.14,4.15c-2.32,3.6-3.47,7.57-3.47,11.91,0,3.97,1.28,7.13,3.84,9.49,2.11,1.9,4.65,2.85,7.63,2.85,3.55,0,6.34-1.08,8.37-3.22,1.82-1.94,2.73-4.55,2.73-7.81v-28.77h8.81v19.1c0,1.86.45,3.31,1.36,4.34.87.95,2.02,1.43,3.47,1.43,1.57,0,2.78-.5,3.63-1.49.85-.99,1.27-2.42,1.27-4.28v-19.04h8.81v19.16c0,3.76,1.63,5.64,4.9,5.64,1.57,0,2.78-.5,3.63-1.49.85-.99,1.27-2.4,1.27-4.22v-19.04h8.81Z"/>
          <path class="cls-4" d="m356.31,55.06h-4.59c-.5,0-1.16-.04-1.98-.12v.81c0,10.29-4.36,15.44-13.08,15.44-3.06,0-5.97-.7-8.74-2.11l2.73-6.45c1.82.78,3.53,1.18,5.15,1.18,1.98,0,3.39-.77,4.22-2.29.62-1.2.93-2.94.93-5.21V23.81h8.8v23.87c.46.17,1.03.25,1.74.25h4.84v7.13Z"/>
          <path class="cls-4" d="m406.54,55.06h-4.28c-3.02,0-4.92-.83-5.71-2.48-2.32,1.65-5.31,2.48-8.99,2.48h-9.36c-2.44,0-4.44-.41-6.01-1.24-1.57.83-3.56,1.24-5.95,1.24h-11.1v-7.13h8.68c-.58-.7-1.07-1.6-1.46-2.7-.39-1.1-.59-2.14-.59-3.13,0-3.27.79-5.91,2.36-7.94,1.36-1.74,3.2-2.83,5.52-3.29l3.1-5.89c3.06-1.2,6.43-1.8,10.11-1.8,5.83.04,10.46,1.98,13.89,5.83,2.98,3.35,4.46,7.59,4.46,12.71,0,2.23-.31,4.2-.93,5.89.41.21,1.07.31,1.98.31h4.28v7.13Zm-34.35-7.5c1.16-.29,2.07-.94,2.73-1.95.66-1.01.99-2.26.99-3.75,0-1.65-.33-2.97-.99-3.94-.66-.97-1.57-1.46-2.73-1.46s-2.07.49-2.73,1.46c-.66.97-.99,2.28-.99,3.94,0,1.45.34,2.69,1.02,3.72.68,1.03,1.58,1.7,2.7,1.98Zm8.43.37h6.88c1.49,0,2.68-.55,3.57-1.64.89-1.09,1.33-2.57,1.33-4.43,0-3.51-1.08-6.35-3.22-8.5-2.03-1.98-4.73-3-8.12-3.04-2.36,0-4.59.17-6.7.5,2.77.46,4.88,1.8,6.33,4.03,1.28,1.94,1.92,4.36,1.92,7.25,0,1.08-.19,2.16-.56,3.26s-.85,1.95-1.43,2.57Z"/>
          <path class="cls-4" d="m418.26,55.06h-12.9v-7.13h12.9v7.13Z"/>
          <path class="cls-4" d="m429.92,55.06h-12.9v-7.13h12.9v7.13Z"/>
          <path class="cls-4" d="m452.05,23.19c9.22,0,13.83,4.67,13.83,14.01v3.84c0,9.34-4.61,14.01-13.83,14.01h-23.38v-7.13h11.41c-1.28-1.82-1.92-4.11-1.92-6.88v-3.84c0-9.34,4.63-14.01,13.89-14.01Zm0,7.13c-3.39,0-5.08,1.96-5.08,5.89v5.83c0,3.93,1.69,5.89,5.08,5.89s5.02-1.96,5.02-5.89v-5.83c0-3.93-1.67-5.89-5.02-5.89Zm4.4-11.16h-8.81v-8.12h8.81v8.12Z"/>
        </g>
      </g>
    </g>
  </g>
</svg>